<svg xmlns="http://www.w3.org/2000/svg" class="logo" width="200" height="41.425" viewBox="0 0 500 103.563">        <path d="M48.1126 1.20751V8.3583C48.1126 9.35706 48.6528 10.2887 49.5222 10.7923L77.5542 26.9739C78.3561 27.4355 78.8456 28.2915 78.8456 29.2148V65.3716C78.8456 65.7996 78.6177 66.2025 78.2379 66.4123L66.1 73.412C65.7286 73.6302 65.4923 74.0247 65.4923 74.4527V82.5351C65.4923 83.4668 66.5052 84.0459 67.3155 83.5759L88.35 71.4397C88.7298 71.2215 88.9577 70.827 88.9577 70.3989V23.3901C88.9577 22.962 88.7298 22.5592 88.35 22.3493L49.9358 0.166782C49.1255 -0.303222 48.1126 0.275891 48.1126 1.20751Z" fill="white"></path>        <path d="M61.2635 56.6597L48.7205 63.9028C48.3491 64.121 48.1127 64.5155 48.1127 64.9435V92.4137C48.1127 93.3453 49.1256 93.9244 49.9359 93.4544L57.2119 89.2495C57.5833 89.0313 57.8112 88.6368 57.8197 88.2088L57.8365 69.9541C57.8365 69.5261 58.0644 69.1316 58.4443 68.9134L70.9704 61.6787C71.3418 61.4605 71.5782 61.066 71.5782 60.638V33.0252C71.5782 32.5971 71.3503 32.1943 70.9704 31.9844L49.9444 19.8566C49.1341 19.3866 48.1212 19.9741 48.1212 20.8974V28.7699C48.1212 29.198 48.3491 29.6008 48.7289 29.8107L61.272 37.0538C61.6434 37.272 61.8797 37.6665 61.8797 38.0945V55.6022C61.8797 56.0302 61.6518 56.4331 61.272 56.6429L61.2635 56.6597Z" fill="white"></path>        <path d="M0.000174923 24.2629V69.5176C0.000174923 70.4577 0.506622 71.3221 1.31694 71.8005L39.0136 93.5634C39.8239 94.0334 40.8368 93.4459 40.8368 92.5227V85.3551C40.8368 84.3564 40.2966 83.4248 39.4272 82.9212L10.7116 66.3535C10.3402 66.1353 10.1038 65.7408 10.1038 65.3128V28.4677C10.1038 28.0397 10.3317 27.6368 10.7116 27.427L23.2546 20.1923C23.626 19.9741 23.8623 19.5796 23.8623 19.1516V11.0608C23.8623 10.1292 22.8495 9.55005 22.0391 10.0201L1.33382 21.9716C0.506625 22.45 0.000174923 23.3229 0.000174923 24.2713V24.2629Z" fill="white"></path>        <path d="M17.3881 33.0838V59.765C17.3881 60.7638 17.9198 61.687 18.7893 62.1822L39.0219 73.8568C39.8322 74.3268 40.8451 73.7393 40.8451 72.8161V64.9267C40.8451 64.4986 40.6172 64.0958 40.2374 63.886L27.6943 56.6512C27.3229 56.433 27.0866 56.0386 27.0866 55.6105V38.1196C27.0866 37.6916 27.3145 37.2887 27.6943 37.0789L40.2374 29.8442C40.6087 29.626 40.8451 29.2315 40.8451 28.8034V1.30815C40.8451 0.376538 39.8322 -0.202575 39.0219 0.267429L31.7459 4.4639C31.3745 4.68212 31.1382 5.07659 31.1382 5.50463V23.7593C31.1382 24.1873 30.9103 24.5902 30.5304 24.8L17.9874 32.0347C17.616 32.2529 17.3796 32.6474 17.3796 33.0755L17.3881 33.0838Z" fill="white"></path>        <path d="M122.002 83.1572V27.1984C122.002 26.5313 122.545 25.9824 123.222 25.9824H130.881C131.551 25.9824 132.101 26.5228 132.101 27.1984V31.184C134.584 27.6374 139.133 25.3322 144.674 25.3322C156.671 25.3322 164.033 34.0718 164.033 46.7717C164.033 59.4716 156.171 68.2112 143.928 68.2112C138.879 68.2112 134.414 66.2353 132.101 63.0181V83.1656C132.101 83.8327 131.559 84.3816 130.881 84.3816H123.222C122.553 84.3816 122.002 83.8412 122.002 83.1656V83.1572ZM153.934 46.7717C153.934 39.1045 149.469 34.0718 142.768 34.0718C136.066 34.0718 131.432 39.1045 131.432 46.7717C131.432 54.4389 135.897 59.4716 142.768 59.4716C149.639 59.4716 153.934 54.4389 153.934 46.7717Z" fill="white"></path>        <path d="M206.527 41.1721V66.6732C206.527 67.3403 205.985 67.8891 205.307 67.8891H197.725C197.056 67.8891 196.505 67.3487 196.505 66.6732V61.6996C194.768 65.8203 189.973 68.5393 184.008 68.5393C175.731 68.5393 170.106 63.2618 170.106 56.0843C170.106 48.0034 176.392 42.9707 185.745 42.9707H193.438C195.505 42.9707 196.496 41.8139 196.496 40.1673C196.496 36.131 193.353 33.2431 187.973 33.2431C183.085 33.2431 179.967 36.0381 179.323 39.3397C179.213 39.9139 178.722 40.3361 178.137 40.3361H171.461C170.716 40.3361 170.139 39.6775 170.25 38.9429C171.41 31.377 178.247 25.6519 188.465 25.6519C198.682 25.6519 206.502 31.757 206.502 41.1552L206.527 41.1721ZM196.513 50.3255V49.6668H187.168C182.865 49.6668 179.967 52.0565 179.967 55.6875C179.967 58.9046 182.61 61.0494 186.423 61.0494C192.794 61.0494 196.513 56.5994 196.513 50.3339V50.3255Z" fill="white"></path>        <path d="M247.651 26.3274C248.498 26.3274 249.083 27.1634 248.795 27.9571L234.833 65.9132L228.657 83.8906C228.487 84.3804 228.03 84.7097 227.504 84.7097H220.405C219.566 84.7097 218.981 83.8906 219.253 83.0969L224.565 67.8891L209.942 27.9571C209.654 27.1634 210.238 26.3274 211.085 26.3274H218.812C219.337 26.3274 219.795 26.6567 219.964 27.1549L229.368 54.8599L238.688 27.1549C238.857 26.6652 239.315 26.3274 239.84 26.3274H247.651Z" fill="white"></path>        <path d="M252.405 54.0324H259.31C259.877 54.0324 260.36 54.4293 260.487 54.9781C261.258 58.3811 264.181 60.4668 268.358 60.4668C272.535 60.4668 274.975 58.4908 274.975 56.0167C274.975 46.7789 252.142 55.603 252.142 38.0393C252.142 30.7859 258.513 25.6688 267.113 25.6688C276.305 25.6688 282.786 30.4228 283.854 37.7269C283.964 38.4531 283.379 39.1033 282.642 39.1033H275.695C275.153 39.1033 274.678 38.7486 274.534 38.2335C273.594 34.9319 270.332 33.2515 267.358 33.2515C263.715 33.2515 261.318 34.8981 261.318 37.7016C261.318 46.686 284.48 36.798 284.48 55.5945C284.48 63.4306 278.109 68.5393 268.349 68.5393C258.59 68.5393 252.269 63.5066 251.185 55.4003C251.092 54.6741 251.659 54.0239 252.396 54.0239L252.405 54.0324Z" fill="white"></path>        <path d="M297.654 13.788H305.398C306.067 13.788 306.618 14.3284 306.618 15.0039V26.3274L316.987 26.3443C317.657 26.3443 318.207 26.8847 318.207 27.5602V32.7111C318.207 33.3782 317.665 33.9271 316.987 33.9271L306.618 33.9102V52.3942C306.618 56.5994 308.854 58.7442 312.658 58.7442H316.987C317.657 58.7442 318.207 59.2846 318.207 59.9601V66.69C318.207 67.3571 317.665 67.906 316.987 67.906H311.506C302.407 67.906 296.451 62.6284 296.451 53.3906V33.9186H289.478C288.809 33.9186 288.258 33.3782 288.258 32.7027V27.5518C288.258 26.8847 288.801 26.3358 289.478 26.3358H296.451V15.0124C296.451 14.3453 296.993 13.7964 297.671 13.7964L297.654 13.788Z" fill="white"></path>        <path d="M360.272 41.1721V66.6732C360.272 67.3403 359.73 67.8891 359.052 67.8891H351.469C350.8 67.8891 350.249 67.3487 350.249 66.6732V61.6996C348.512 65.8203 343.717 68.5393 337.753 68.5393C329.475 68.5393 323.85 63.2618 323.85 56.0843C323.85 48.0034 330.136 42.9707 339.49 42.9707H347.182C349.249 42.9707 350.241 41.8139 350.241 40.1673C350.241 36.131 347.098 33.2431 341.718 33.2431C336.829 33.2431 333.712 36.0381 333.068 39.3397C332.957 39.9139 332.466 40.3361 331.882 40.3361H325.205C324.46 40.3361 323.884 39.6775 323.994 38.9429C325.155 31.377 331.992 25.6519 342.209 25.6519C352.427 25.6519 360.246 31.757 360.246 41.1552L360.272 41.1721ZM350.258 50.3255V49.6668H340.913C336.609 49.6668 333.712 52.0565 333.712 55.6875C333.712 58.9046 336.355 61.0494 340.167 61.0494C346.538 61.0494 350.258 56.5994 350.258 50.3339V50.3255Z" fill="white"></path>        <path d="M369.091 66.6732V27.5349C369.091 26.8678 369.633 26.319 370.311 26.319H378.055C378.724 26.319 379.275 26.8594 379.275 27.5349V32.7534C381.588 28.2189 386.307 25.6603 392.263 25.6603C401.692 25.6603 407.818 32.424 407.818 42.1516V66.6647C407.818 67.3318 407.275 67.8807 406.598 67.8807H398.854C398.185 67.8807 397.634 67.3403 397.634 66.6647V44.2964C397.634 38.6051 394.16 34.6448 388.95 34.6448C383.24 34.6448 379.266 39.0948 379.266 45.1999V66.6647C379.266 67.3318 378.724 67.8807 378.046 67.8807H370.303C369.633 67.8807 369.083 67.3403 369.083 66.6647L369.091 66.6732Z" fill="white"></path>        <path d="M414.731 47.1083C414.731 34.4084 422.093 25.6688 434.42 25.6688C439.885 25.6688 444.265 27.974 446.662 31.3601V9.72638C446.662 9.0593 447.205 8.51044 447.882 8.51044H455.541C456.211 8.51044 456.761 9.05086 456.761 9.72638V66.6732C456.761 67.3403 456.219 67.8891 455.541 67.8891H447.882C447.213 67.8891 446.662 67.3487 446.662 66.6732V62.6876C444.265 66.3185 439.631 68.5393 434.581 68.5393C422.085 68.5393 414.722 59.7997 414.722 47.0998L414.731 47.1083ZM447.332 47.1083C447.332 39.4411 442.867 34.4084 436.081 34.4084C429.294 34.4084 424.83 39.4411 424.83 47.1083C424.83 54.7755 429.294 59.8081 436.081 59.8081C442.867 59.8081 447.332 54.7755 447.332 47.1083Z" fill="white"></path>       </svg>