<svg width="49" height="49" viewBox="0 0 49 49" fill="none" xmlns="http://www.w3.org/2000/svg">
            <path d="M24.4997 44.9193C35.7756 44.9193 44.9163 35.7786 44.9163 24.5026C44.9163 13.2268 35.7756 4.08594 24.4997 4.08594C13.2239 4.08594 4.08301 13.2268 4.08301 24.5026C4.08301 35.7786 13.2239 44.9193 24.4997 44.9193Z" fill="#CFDCDF"></path>
            <path d="M24.4997 44.9193C35.7756 44.9193 44.9163 35.7786 44.9163 24.5026C44.9163 13.2268 35.7756 4.08594 24.4997 4.08594C13.2239 4.08594 4.08301 13.2268 4.08301 24.5026C4.08301 35.7786 13.2239 44.9193 24.4997 44.9193Z" stroke="#182D55" stroke-width="1.5" stroke-linecap="round" stroke-linejoin="round"></path>
            <path d="M15.0771 24.5039H33.9233" stroke="#182D55" stroke-width="1.5" stroke-linecap="round" stroke-linejoin="round"></path>
            <path d="M29.2129 19.7891L33.9244 24.5006L29.2129 29.2121" stroke="#182D55" stroke-width="1.5" stroke-linecap="round" stroke-linejoin="round"></path>
          </svg>