<svg width="101" height="101" viewBox="0 0 101 101" fill="none" xmlns="http://www.w3.org/2000/svg">
<g clip-path="url(#clip0_109_986)">
<path d="M68.9247 37.5078H83.0411C85.8619 37.5078 88.1593 39.7925 88.1593 42.626V82.1801H12.8418V42.626C12.8418 39.8052 15.1265 37.5078 17.96 37.5078H30.6341" fill="white"/>
<path d="M68.9247 37.5078H83.0411C85.8619 37.5078 88.1593 39.7925 88.1593 42.626V82.1801H12.8418V42.626C12.8418 39.8052 15.1265 37.5078 17.96 37.5078H30.6341" stroke="#182D55" stroke-width="1.91453" stroke-linecap="round" stroke-linejoin="round"/>
<path d="M21.6745 42.6133H79.3146C81.8162 42.6133 83.8456 44.6427 83.8456 47.1443V82.1802H17.1562V47.1443C17.1562 44.6427 19.1856 42.6133 21.6873 42.6133H21.6745Z" fill="#CFDCDF"/>
<path d="M88.0066 91L13.0082 91C9.75346 91 7.11141 88.358 7.11141 85.1033V82.1676L93.9033 82.1676V85.1033C93.9033 88.358 91.2613 91 88.0066 91Z" fill="white" stroke="#182D55" stroke-width="2.20809" stroke-linecap="round" stroke-linejoin="round"/>
<path d="M46.3587 67.2539H40.0918V72.1806H46.3587V67.2539Z" stroke="#182D55" stroke-width="1.91453" stroke-linecap="round" stroke-linejoin="round"/>
<path d="M40.0918 77.1064V72.1797H46.3587V77.1064" stroke="#182D55" stroke-width="1.91453" stroke-linecap="round" stroke-linejoin="round"/>
<path d="M56.8763 67.2539H50.6094V72.1806H56.8763V67.2539Z" stroke="#182D55" stroke-width="1.91453" stroke-linecap="round" stroke-linejoin="round"/>
<path d="M50.6094 77.1064V72.1797H56.8763" stroke="#182D55" stroke-width="1.91453" stroke-linecap="round" stroke-linejoin="round"/>
<path d="M60.9082 77.1073V67.2539" stroke="#182D55" stroke-width="1.91453" stroke-linecap="round" stroke-linejoin="round"/>
<path d="M43.079 15.9597L44.7255 11.6967C45.0063 10.9819 45.4913 10.3565 46.1295 9.92256C46.7676 9.4886 47.5207 9.24609 48.2865 9.24609H51.4263C52.2049 9.24609 52.9579 9.4886 53.5833 9.92256C54.2215 10.3565 54.7065 10.9819 54.9873 11.6967L56.6338 15.9597L62.237 19.1761L66.7681 18.4869C67.5211 18.3848 68.2869 18.5124 68.9761 18.8443C69.6654 19.1761 70.227 19.7122 70.6099 20.3631L72.1415 23.0435C72.5372 23.7072 72.7159 24.4857 72.6648 25.2643C72.6137 26.0429 72.3202 26.7832 71.8352 27.383L69.04 30.9441V37.3896L71.9118 40.9507C72.3968 41.5633 72.6776 42.2908 72.7414 43.0694C72.7924 43.848 72.6138 44.6138 72.2181 45.2903L70.6865 47.9706C70.3036 48.6343 69.742 49.1576 69.0527 49.4895C68.3763 49.8213 67.5977 49.9489 66.8446 49.8468L62.3136 49.1576L56.7104 52.374L55.0639 56.637C54.7831 57.3518 54.2981 57.9772 53.6599 58.4112C53.0218 58.8451 52.2687 59.0876 51.5029 59.0876H48.2865C47.5079 59.0876 46.7549 58.8451 46.1295 58.4112C45.4913 57.9772 45.0063 57.3518 44.7255 56.637L43.079 52.374L37.4758 49.1576L32.9447 49.8468C32.1917 49.9489 31.4259 49.8213 30.7367 49.4895C30.0474 49.1576 29.4858 48.6215 29.1029 47.9706L27.5713 45.2903C27.1756 44.6266 26.9969 43.848 27.048 43.0694C27.0991 42.2908 27.3926 41.5506 27.8776 40.9507L30.6728 37.3896V30.9441L27.801 27.383C27.316 26.7704 27.0352 26.0429 26.9714 25.2643C26.9204 24.4857 27.0991 23.7199 27.4947 23.0435L29.0263 20.3631C29.4092 19.6994 29.9708 19.1761 30.6601 18.8443C31.3493 18.5124 32.1151 18.3848 32.8682 18.4869L37.3992 19.1761L43.079 15.9597ZM42.1983 34.1732C42.1983 35.6921 42.645 37.1727 43.4874 38.4363C44.3298 39.6998 45.5296 40.6826 46.9336 41.257C48.3375 41.8313 49.8819 41.9845 51.3625 41.691C52.8431 41.3974 54.2215 40.6699 55.2937 39.5977C56.3658 38.5256 57.0933 37.1599 57.3869 35.6666C57.6804 34.1732 57.5273 32.6416 56.9529 31.2376C56.3786 29.8336 55.383 28.6339 54.1322 27.7915C52.8686 26.9491 51.388 26.5024 49.8692 26.5024C47.8398 26.5024 45.8869 27.3065 44.4447 28.7487C43.0024 30.191 42.1983 32.1438 42.1983 34.1732Z" fill="#CFDCDF" stroke="#182D55" stroke-width="1.91453" stroke-linecap="round" stroke-linejoin="round"/>
<path d="M56.0979 82.1797H44.9043V86.0087H56.0979V82.1797Z" stroke="#182D55" stroke-width="1.91453" stroke-linecap="round" stroke-linejoin="round"/>
</g>
<defs>
<clipPath id="clip0_109_986">
<rect width="89" height="83.818" fill="white" transform="translate(6 8.29297)"/>
</clipPath>
</defs>
</svg>
