<svg width="164" height="92" viewBox="0 0 164 92" fill="none" xmlns="http://www.w3.org/2000/svg">
<path fill-rule="evenodd" clip-rule="evenodd" d="M162.2 44.5544L160.953 46.8284C159.945 46.2043 158.785 45.8653 157.598 45.8481C156.535 45.8481 155.757 46.2085 155.757 46.8944C155.757 47.626 156.87 47.8001 158.167 48.0248L158.65 48.1077C160.926 48.4981 162.357 49.5491 162.357 51.4555C162.357 54.2183 159.956 55.3787 157.447 55.3787C155.615 55.4335 153.812 54.9158 152.292 53.8987L153.689 51.6393C154.792 52.4247 156.113 52.8514 157.471 52.8609C158.527 52.8609 159.329 52.5005 159.329 51.7798C159.329 51.0819 158.544 50.8825 157.012 50.6494L156.426 50.557C154.016 50.1846 152.71 49.1035 152.754 47.0097C152.795 44.7502 154.736 43.322 157.472 43.322C159.132 43.2902 160.769 43.716 162.2 44.552M147.554 44.552C146.123 43.716 144.486 43.2902 142.826 43.322C140.09 43.322 138.149 44.7502 138.108 47.0097C138.067 49.1035 139.371 50.1846 141.782 50.557L142.367 50.6494C143.897 50.8825 144.685 51.0819 144.685 51.7798C144.685 52.5005 143.88 52.8609 142.826 52.8609C141.469 52.8515 140.148 52.4247 139.044 51.6393L137.647 53.8987C139.167 54.916 140.97 55.4337 142.802 55.3787C145.312 55.3787 147.713 54.2231 147.713 51.4555C147.713 49.5539 146.283 48.4981 144.006 48.1077L143.522 48.0248C142.225 47.8013 141.112 47.6272 141.112 46.8944C141.112 46.2061 141.89 45.8481 142.952 45.8481C144.139 45.8653 145.299 46.2043 146.307 46.8284L147.554 44.552ZM132.231 43.5298H129.435V55.1613H132.231V43.5298ZM119.509 46.0464C120.497 46.0464 121.131 46.4295 121.131 47.2476C121.131 48.0656 120.513 48.4692 119.509 48.4692H117.241V46.0428L119.509 46.0464ZM114.447 43.5298V55.1613H117.241V50.808H117.65L120.738 55.1613H124.067L120.704 50.7251C121.595 50.6786 122.434 50.2905 123.043 49.6426C123.652 48.9947 123.985 48.1374 123.97 47.2512C123.97 44.958 122.43 43.5274 119.535 43.5274L114.447 43.5298ZM104.686 46.0464C105.69 46.0464 106.309 46.5209 106.309 47.4098C106.309 48.2987 105.69 48.7563 104.686 48.7563H102.503V46.0464H104.686ZM104.753 51.2308C107.624 51.2308 109.155 49.7017 109.155 47.4098C109.155 45.0746 107.624 43.5298 104.729 43.5298H99.7079V55.1613H102.503V51.2308H104.753ZM89.9472 46.0464C90.9513 46.0464 91.572 46.5209 91.572 47.4098C91.572 48.2987 90.9525 48.7563 89.9472 48.7563H87.7599V46.0464H89.9472ZM90.015 51.2308C92.8846 51.2308 94.415 49.7017 94.415 47.4098C94.415 45.0746 92.8846 43.5298 89.9895 43.5298H84.9689V55.1613H87.7623V51.2308H90.015ZM73.8944 46.2878L75.3183 50.2098H72.4741L73.8944 46.2878ZM75.5881 43.525H72.2503L67.7559 55.1565H70.6763L71.5631 52.7143H76.2148L77.1028 55.1565H80.0813L75.5881 43.525Z" fill="#231932"/>
<path d="M13.3962 64.5023L1.45432 46.0215C1.41455 45.9599 1.39221 45.8888 1.38967 45.8157C1.38713 45.7426 1.40448 45.6702 1.43988 45.606C1.47529 45.5418 1.52742 45.4883 1.59085 45.4511C1.65428 45.4139 1.72662 45.3943 1.8003 45.3945H10.7722L15.5013 59.7179C15.659 60.1941 15.9642 60.6086 16.3733 60.9024C16.7824 61.1962 17.2745 61.3542 17.7793 61.3539H25.7846L14.5528 64.9155C14.3412 64.9843 14.1126 64.9809 13.9031 64.9061C13.6936 64.8312 13.5152 64.6892 13.3962 64.5023ZM16.8187 59.289L12.2324 45.3945H22.2447L20.153 49.1915C19.9044 49.6428 19.8098 50.1618 19.8833 50.671C19.9568 51.1801 20.1945 51.6519 20.5607 52.0156L28.5804 59.9785H17.7757C17.5628 59.9789 17.3552 59.9124 17.1827 59.7886C17.0102 59.6647 16.8815 59.4899 16.8151 59.289M41.3547 52.0156C41.7211 51.652 41.959 51.1803 42.0327 50.6712C42.1064 50.1621 42.012 49.6429 41.7636 49.1915L39.6719 45.3945H49.6842L45.0966 59.289C45.0303 59.4897 44.9018 59.6644 44.7295 59.7882C44.5572 59.9121 44.3499 59.9787 44.1372 59.9785H33.3337L41.3547 52.0156ZM47.3638 64.9155L36.132 61.3539H44.1372C44.642 61.3543 45.134 61.1963 45.5429 60.9025C45.9518 60.6087 46.2567 60.1941 46.4141 59.7179L51.1432 45.3945H60.1187C60.1924 45.3943 60.2647 45.4139 60.3281 45.4511C60.3915 45.4883 60.4437 45.5418 60.4791 45.606C60.5145 45.6702 60.5318 45.7426 60.5293 45.8157C60.5268 45.8888 60.5044 45.9599 60.4647 46.0215L48.5228 64.5023C48.4038 64.6892 48.2254 64.8312 48.0159 64.9061C47.8064 64.9809 47.5778 64.9843 47.3662 64.9155M9.87207 38.2484C9.85003 38.1886 9.84336 38.1244 9.85265 38.0615C9.86195 37.9985 9.88692 37.9389 9.92531 37.888C9.96215 37.8351 10.011 37.7915 10.068 37.7608C10.125 37.7302 10.1884 37.7132 10.2532 37.7114C10.298 37.712 10.3424 37.7193 10.385 37.7331L24.132 41.965L23.0021 44.0155H11.7763L9.87207 38.2484ZM37.7858 41.9638L51.5339 37.7318C51.5761 37.7179 51.6202 37.7106 51.6646 37.7102C51.7292 37.7122 51.7923 37.7292 51.8491 37.7599C51.9058 37.7906 51.9545 37.834 51.9912 37.8868C52.0296 37.9377 52.0547 37.9973 52.0642 38.0602C52.0737 38.1231 52.0673 38.1873 52.0457 38.2472L50.1402 44.013H38.9157L37.7858 41.9638ZM30.2439 59.6818L21.5333 51.033C21.3798 50.8794 21.2801 50.6808 21.2492 50.4666C21.2183 50.2524 21.2576 50.034 21.3615 49.8438L30.5923 33.0855C30.6274 33.0202 30.6797 32.9656 30.7436 32.9275C30.8075 32.8894 30.8807 32.8693 30.9552 32.8693C31.0298 32.8693 31.1029 32.8894 31.1669 32.9275C31.2308 32.9656 31.2831 33.0202 31.3182 33.0855L40.5478 49.8438C40.6522 50.0339 40.692 50.2524 40.661 50.4668C40.63 50.6811 40.5301 50.8797 40.376 51.033L31.6654 59.6818C31.5718 59.7751 31.4606 59.8491 31.3381 59.8996C31.2156 59.9501 31.0842 59.9761 30.9516 59.9761C30.819 59.9761 30.6877 59.9501 30.5652 59.8996C30.4427 59.8491 30.3315 59.7751 30.2378 59.6818M29.3752 32.4309L24.8022 40.7313L10.7867 36.4165C10.6117 36.3621 10.4294 36.3341 10.2459 36.3336C9.96304 36.3365 9.68481 36.4056 9.43379 36.5351C9.18278 36.6647 8.96603 36.8511 8.80109 37.0794C8.63616 37.3076 8.52767 37.5712 8.48443 37.8488C8.44119 38.1264 8.46442 38.4102 8.55222 38.6772L10.3149 44.0155H1.80635C1.48364 44.0153 1.16683 44.1014 0.88922 44.2648C0.611615 44.4282 0.383481 44.6628 0.228756 44.944C0.0740316 45.2252 -0.00157154 45.5426 0.00993048 45.8628C0.0214325 46.1831 0.119598 46.4943 0.294105 46.7639L12.2348 65.2447C12.5202 65.6856 12.9442 66.0208 13.4409 66.1982C13.9376 66.3756 14.4794 66.3854 14.9823 66.2261L29.7515 61.5413C30.5421 61.2911 31.3914 61.2911 32.182 61.5413L46.9524 66.2261C47.455 66.3853 47.9964 66.3754 48.4927 66.1979C48.989 66.0205 49.4125 65.6854 49.6975 65.2447L61.6406 46.7639C61.8148 46.4936 61.9124 46.1817 61.9231 45.8609C61.9339 45.5402 61.8573 45.2225 61.7016 44.9414C61.5458 44.6602 61.3166 44.4259 61.038 44.2632C60.7595 44.1004 60.4419 44.0153 60.1187 44.0166H51.6005L53.3631 38.6784C53.4509 38.4114 53.4742 38.1276 53.4309 37.85C53.3877 37.5724 53.2792 37.3088 53.1143 37.0806C52.9493 36.8524 52.7326 36.6659 52.4816 36.5363C52.2305 36.4068 51.9523 36.3378 51.6694 36.3348C51.4856 36.3351 51.3029 36.3631 51.1274 36.4177L37.1107 40.7325L32.5389 32.4321C32.3842 32.1511 32.1562 31.9167 31.8789 31.7534C31.6015 31.5901 31.285 31.5039 30.9625 31.5039C30.6401 31.5039 30.3235 31.5901 30.0462 31.7534C29.7688 31.9167 29.5408 32.1511 29.3861 32.4321" fill="url(#paint0_linear_60_2431)"/>
<defs>
<linearGradient id="paint0_linear_60_2431" x1="30.9665" y1="31.5039" x2="30.9665" y2="61.2181" gradientUnits="userSpaceOnUse">
<stop stop-color="#641895"/>
<stop offset="1" stop-color="#E55A62"/>
</linearGradient>
</defs>
</svg>
