<?xml version="1.0" encoding="UTF-8"?>
<svg id="Layer_1" data-name="Layer 1" xmlns="http://www.w3.org/2000/svg" viewBox="0 0 200 33.81">
  <defs>
    <style>
      .cls-1 {
        fill: #1a1d22;
        stroke-width: 0px;
      }
    </style>
  </defs>
  <g id="_0NLqIG" data-name="0NLqIG">
    <g>
      <path class="cls-1" d="M95.49,33.82h-7.24c-.11-.37-.15-22.63-.04-23.37.38-.1,6.19-.13,7.01-.03.15,1.1.14,2.23.29,3.43.13-.15.21-.23.28-.31,2.02-2.68,4.71-3.85,8.04-3.58,2.45.2,4.5,1.2,6.08,3.11,1.14,1.38,1.8,2.99,2.08,4.75.13.84.2,1.7.2,2.56.02,4.25,0,8.5,0,12.75v.66h-7.32v-.63c0-3.93,0-7.87,0-11.8,0-.74-.08-1.47-.31-2.17-.63-1.91-2.09-2.92-4.1-2.83-2.16.09-4.09,1.64-4.72,3.85-.16.55-.23,1.13-.23,1.7-.02,3.74-.01,7.48-.01,11.23,0,.21,0,.41,0,.69Z"/>
      <path class="cls-1" d="M160.24,10.4h7.94c-.06.19-.11.34-.17.48-3.04,7.48-6.08,14.95-9.13,22.43-.23.56-.12.53-.79.53-2.01,0-4.02,0-6.03,0h-.56c-3.18-7.81-6.35-15.6-9.54-23.44h7.97c1.7,4.88,3.41,9.77,5.12,14.66.04,0,.09,0,.13,0,1.68-4.87,3.36-9.75,5.06-14.66Z"/>
      <path class="cls-1" d="M115.24,3.45h7.33c.02,2.28.04,4.54.06,6.86h6.63v6.02h-6.58c-.02.21-.04.36-.04.52,0,2.66,0,5.32,0,7.97,0,.53.07,1.05.28,1.54.4.92,1.08,1.5,2.09,1.61,1.31.15,2.58-.06,3.81-.5.18-.06.35-.13.58-.21v5.82c-.85.41-1.76.65-2.69.83-1.4.27-2.81.37-4.23.31-3.82-.16-6.43-2.63-7.02-6.04-.12-.72-.18-1.46-.18-2.19-.02-5.91-.03-11.82-.03-17.73,0-1.4,0-2.8,0-4.2,0-.19,0-.38,0-.61Z"/>
      <path class="cls-1" d="M59.93,27.24v5.81c-.17.07-.34.16-.52.23-2.39.86-4.87,1.15-7.38.82-3.28-.43-5.74-2.96-6.12-6.26-.11-.97-.11-1.95-.12-2.93-.02-4.46-.02-8.92-.03-13.38,0-2.47-.03-4.93-.04-7.4,0-.21,0-.42,0-.61.39-.14,6.73-.17,7.35-.03.02,2.23.04,4.48.07,6.8.76,0,1.48,0,2.21.01.72,0,1.43,0,2.15,0s1.46,0,2.23,0v6.02h-6.58c-.01.23-.03.4-.03.57,0,2.64,0,5.28,0,7.92,0,.19,0,.39.03.58.21,1.48,1.12,2.61,2.88,2.61,1.15,0,2.26-.16,3.34-.57.16-.06.32-.12.56-.2Z"/>
      <path class="cls-1" d="M42.62,16.34h-6.58c-.01.24-.03.41-.03.58,0,2.64,0,5.28,0,7.92,0,.64.11,1.25.43,1.82.41.73,1.02,1.19,1.86,1.31,1.36.18,2.68-.04,3.96-.51.16-.06.32-.12.53-.19v5.81c-.67.35-1.41.55-2.16.73-1.63.38-3.28.5-4.95.42-3.64-.17-6.49-2.8-6.89-6.42-.13-1.18-.11-2.37-.12-3.56-.02-4.46-.01-8.92-.03-13.38,0-2.26-.03-4.51-.04-6.77,0-.19,0-.38,0-.56.4-.13,6.33-.18,7.32-.06.11,2.25.03,4.51.1,6.84.75,0,1.48,0,2.2.01.72,0,1.43,0,2.15,0s1.46,0,2.22,0v6.02Z"/>
      <path class="cls-1" d="M139.97,33.81h-7.35V10.41c2.44,1.42,4.88,1.42,7.35,0v23.41Z"/>
      <path class="cls-1" d="M136.31,8.45c-1.29,0-2.44-.38-3.38-1.3-2-1.98-1.46-5.36,1.06-6.59,1.54-.75,3.12-.74,4.65.03,1.56.79,2.28,2.13,2.19,3.86-.09,1.73-1,2.94-2.58,3.63-.62.27-1.27.37-1.94.37Z"/>
      <path class="cls-1" d="M25.56,22.59c0-.92-.08-1.86-.26-2.76-.75-3.86-2.83-6.79-6.4-8.5-4.09-1.96-8.23-1.86-12.29.11-3.1,1.5-5.16,3.95-6.11,7.28-.65,2.3-.67,4.63-.14,6.95,1.15,5.05,4.98,8.3,9.47,8.6,3.24.21,6.04-.71,8.13-3.34.07-.08.16-.15.29-.27.08,1.12.15,2.16.22,3.21h7.09v-.58c0-3.57.02-7.13-.01-10.7ZM18.37,22.32c-.08,2.38-1.26,4.13-3.45,5.15-.64.3-1.33.41-1.94.4-2.98-.01-5.21-2.04-5.51-4.89-.1-.93-.04-1.85.22-2.75,1.05-3.54,4.93-4.64,7.55-3.26,2.13,1.12,3.2,2.97,3.12,5.35Z"/>
      <path class="cls-1" d="M85.54,19.23c-.63-3.24-2.3-5.79-5.16-7.48-2.72-1.61-5.69-2.08-8.8-1.66-3.34.45-6.02,2.07-7.98,4.82-1.95,2.73-2.62,5.81-2.18,9.11.6,4.48,3.05,7.58,7.24,9.25,2.79,1.11,5.69,1.19,8.61.55,2.34-.51,4.41-1.54,6.09-3.28.23-.24.44-.49.7-.8-1.91-.87-3.77-1.72-5.59-2.55-.08.04-.12.04-.14.06-2.13,1.54-4.44,1.74-6.87.89-1.04-.36-1.86-1.03-2.4-2.01-.24-.44-.44-.9-.44-1.48h16.77c.07-.29.12-.49.16-.69.32-1.58.29-3.17-.01-4.74ZM78.48,19.99h-9.91c.04-.3.07-.57.12-.84.45-2.03,1.87-3.38,3.94-3.68,1.34-.19,2.66-.06,3.86.64,1.38.8,2.02,2.03,2.03,3.6,0,.08-.02.17-.04.28Z"/>
      <path class="cls-1" d="M191.52,19.78c-.51-3.47-2.2-6.2-5.23-8.01-2.72-1.62-5.69-2.09-8.79-1.67-3.4.46-6.12,2.12-8.08,4.93-1.83,2.62-2.5,5.56-2.14,8.72.53,4.62,2.99,7.83,7.3,9.54,2.76,1.1,5.62,1.17,8.51.56,2.25-.48,4.26-1.44,5.93-3.06.32-.31.6-.66.95-1.03-1.93-.88-3.79-1.72-5.61-2.55-.08.04-.12.05-.15.07-2.13,1.54-4.45,1.74-6.87.88-1.37-.49-2.34-1.44-2.75-2.88-.05-.18-.06-.36-.1-.59h16.76c.05-.13.07-.19.09-.26.03-.1.05-.2.07-.31.31-1.44.31-2.88.1-4.33ZM184.36,19.99h-9.88c.04-.31.06-.59.12-.85.45-2.05,1.92-3.42,4-3.68,1.13-.14,2.23-.05,3.29.4,1.7.72,2.69,2.34,2.47,4.14Z"/>
      <path class="cls-1" d="M197.1,7.2c-.27-.05-.55-.05-.83-.08-2.21.01-3.63,1.19-3.84,3.26-.19,1.85.72,3.69,3.04,4.06.29.05.59.05.89.04,1.99-.03,3.39-1.25,3.62-3.21.21-1.82-.6-3.65-2.87-4.08ZM194.73,13.54c-1.07-.53-1.67-1.79-1.5-3.09.27-2.09,2.19-3.24,4.17-2.5,1.15.43,1.82,1.47,1.82,2.84.03,2.76-2.66,3.65-4.49,2.75Z"/>
      <path class="cls-1" d="M197.29,11.28c.14-.12.26-.2.35-.31.64-.78.26-1.87-.74-2.05-.69-.12-1.38,0-2.08,0v3.79h.94v-1.21c.38-.12.62-.06.79.27.13.26.3.51.47.76.06.09.17.2.27.21.28.03.57,0,.94,0-.35-.54-.63-.98-.94-1.45ZM196.51,10.62c-.24.03-.48,0-.78,0v-.94c.25,0,.49-.03.72-.02.29.02.49.21.5.44,0,.22-.19.48-.44.51Z"/>
    </g>
  </g>
</svg>