<svg width="101" height="101" viewBox="0 0 101 101" fill="none" xmlns="http://www.w3.org/2000/svg">
<g clip-path="url(#clip0_110_1057)">
<path d="M81.3616 56.403C81.3616 55.1862 74.4548 54.375 66.3195 54.375C57.7786 54.375 51.2773 55.1862 51.2773 56.403V60.8763C51.2773 62.0931 58.1842 62.9043 66.3195 62.9043C74.8604 62.9043 81.3616 62.0931 81.3616 60.8763V56.403Z" fill="#CFDCDF"/>
<path d="M65.9142 54.375C57.3733 54.375 50.8721 55.1862 50.8721 56.403C50.8721 57.6198 57.7789 58.431 65.9142 58.431C74.4551 58.431 80.9564 57.6198 80.9564 56.403C80.9564 55.1862 74.4551 54.375 65.9142 54.375Z" fill="white"/>
<path d="M50.8721 60.8763C50.8721 62.0931 57.7789 62.9043 65.9142 62.9043C74.4551 62.9043 80.9564 62.0931 80.9564 60.8763V56.403C80.9564 55.1862 74.0495 54.375 65.9142 54.375C57.3733 54.375 50.8721 55.1862 50.8721 56.403V60.8763Z" stroke="#182D55" stroke-width="1.73831" stroke-linecap="round" stroke-linejoin="round"/>
<path d="M81.3616 50.3054C81.3616 49.0886 74.4548 48.2773 66.3195 48.2773C57.7786 48.2773 51.2773 49.0886 51.2773 50.3054V54.7786C51.2773 55.9954 58.1842 56.8066 66.3195 56.8066C74.8604 56.8066 81.3616 55.9954 81.3616 54.7786V50.3054Z" fill="#CFDCDF"/>
<path d="M65.9142 48.2773C57.3733 48.2773 50.8721 49.0886 50.8721 50.3054C50.8721 51.5222 57.7789 52.3334 65.9142 52.3334C74.4551 52.3334 80.9564 51.5222 80.9564 50.3054C80.9564 49.0886 74.4551 48.2773 65.9142 48.2773Z" fill="white"/>
<path d="M50.8721 54.7786C50.8721 55.9954 57.7789 56.8066 65.9142 56.8066C74.4551 56.8066 80.9564 55.9954 80.9564 54.7786V50.3054C80.9564 49.0886 74.0495 48.2773 65.9142 48.2773C57.7789 48.2773 50.8721 49.0886 50.8721 50.3054V54.7786Z" stroke="#182D55" stroke-width="1.73831" stroke-linecap="round" stroke-linejoin="round"/>
<path d="M81.3616 44.2155C81.3616 42.9987 74.4548 42.1875 66.3195 42.1875C57.7786 42.1875 51.2773 42.9987 51.2773 44.2155V48.6888C51.2773 49.9056 58.1842 50.7168 66.3195 50.7168C74.8604 50.7168 81.3616 49.9056 81.3616 48.6888V44.2155Z" fill="#CFDCDF"/>
<path d="M65.9142 42.1875C57.3733 42.1875 50.8721 42.9987 50.8721 44.2155C50.8721 45.4323 57.7789 46.2435 65.9142 46.2435C74.4551 46.2435 80.9564 45.4323 80.9564 44.2155C80.9564 43.4043 74.4551 42.1875 65.9142 42.1875Z" fill="white"/>
<path d="M50.8721 48.6888C50.8721 49.9056 57.7789 50.7168 65.9142 50.7168C74.4551 50.7168 80.9564 49.9056 80.9564 48.6888V44.2155C80.9564 42.9987 74.0495 42.1875 65.9142 42.1875C57.7789 42.1875 50.8721 42.9987 50.8721 44.2155V48.6888Z" stroke="#182D55" stroke-width="1.73831" stroke-linecap="round" stroke-linejoin="round"/>
<path d="M81.3616 38.5241C81.3616 37.3073 74.4548 36.4961 66.3195 36.4961C57.7786 36.4961 51.2773 37.3073 51.2773 38.5241V42.9974C51.2773 44.2142 58.1842 45.0254 66.3195 45.0254C74.8604 45.0254 81.3616 44.2142 81.3616 42.9974V38.5241Z" fill="#CFDCDF"/>
<path d="M65.9142 36.0742C57.3733 36.0742 50.8721 36.8854 50.8721 38.1022C50.8721 39.3191 57.7789 40.1303 65.9142 40.1303C74.4551 40.1303 80.9564 39.3191 80.9564 38.1022C80.9564 37.291 74.4551 36.0742 65.9142 36.0742Z" fill="white"/>
<path d="M50.8721 42.5918C50.8721 43.8086 57.7789 44.6198 65.9142 44.6198C74.4551 44.6198 80.9564 43.8086 80.9564 42.5918V38.5241C80.9564 37.3073 74.0495 36.4961 65.9142 36.4961C57.7789 36.4961 50.8721 37.3073 50.8721 38.5241V42.5918Z" stroke="#182D55" stroke-width="1.73831" stroke-linecap="round" stroke-linejoin="round"/>
<path d="M81.3616 32.4265C81.3616 31.2096 74.4548 30.3984 66.3195 30.3984C57.7786 30.3984 51.2773 31.2096 51.2773 32.4265V36.8997C51.2773 38.1165 58.1842 38.9277 66.3195 38.9277C74.8604 38.9277 81.3616 38.1165 81.3616 36.8997V32.4265Z" fill="#CFDCDF"/>
<path d="M65.9142 30.3828C57.3733 30.3828 50.8721 31.194 50.8721 32.4108C50.8721 33.6277 57.7789 34.4389 65.9142 34.4389C74.4551 34.4389 80.9564 33.6277 80.9564 32.4108C80.9564 31.194 74.4551 30.3828 65.9142 30.3828Z" fill="white"/>
<path d="M50.8721 36.4817C50.8721 37.6985 57.7789 38.5098 65.9142 38.5098C74.4551 38.5098 80.9564 37.6985 80.9564 36.4817V32.0085C80.9564 30.7917 74.0495 29.9805 65.9142 29.9805C57.7789 29.9805 50.8721 30.7917 50.8721 32.0085V36.4817Z" stroke="#182D55" stroke-width="1.73831" stroke-linecap="round" stroke-linejoin="round"/>
<path d="M81.3616 26.321C81.3616 25.1042 74.4548 24.293 66.3195 24.293C57.7786 24.293 51.2773 25.1042 51.2773 26.321V30.7942C51.2773 32.011 58.1842 32.8223 66.3195 32.8223C74.8604 32.8223 81.3616 32.011 81.3616 30.7942V26.321Z" fill="#CFDCDF"/>
<path d="M65.9142 24.293C57.3733 24.293 50.8721 25.1042 50.8721 26.321C50.8721 27.5378 57.7789 28.349 65.9142 28.349C74.4551 28.349 80.9564 27.5378 80.9564 26.321C80.9564 25.1042 74.4551 24.293 65.9142 24.293Z" fill="white"/>
<path d="M50.8721 30.7942C50.8721 32.011 57.7789 32.8223 65.9142 32.8223C74.4551 32.8223 80.9564 32.011 80.9564 30.7942V26.321C80.9564 25.1042 74.0495 24.293 65.9142 24.293C57.3733 24.293 50.8721 25.1042 50.8721 26.321V30.7942Z" stroke="#182D55" stroke-width="1.73831" stroke-linecap="round" stroke-linejoin="round"/>
<path d="M50.8704 54.778C50.8704 53.5612 43.9635 52.75 35.8283 52.75C27.2874 52.75 20.7861 53.5612 20.7861 54.778V59.2513C20.7861 60.4681 27.693 61.2793 35.8283 61.2793C44.3692 61.2793 50.8704 60.4681 50.8704 59.2513V54.778Z" fill="#CFDCDF"/>
<path d="M35.424 52.75C26.8831 52.75 20.3818 53.5612 20.3818 54.778C20.3818 55.9948 27.2887 56.806 35.424 56.806C43.9649 56.806 50.4661 55.9948 50.4661 54.778C50.8717 53.5612 43.9649 52.75 35.424 52.75Z" fill="white"/>
<path d="M35.424 61.2838C43.9649 61.2838 50.4661 60.4726 50.4661 59.2558V55.1882C50.4661 53.9714 43.5592 53.1602 35.424 53.1602C26.8831 53.1602 20.3818 53.9714 20.3818 55.1882V57.6334L25.365 61.2954H35.424V61.2838Z" stroke="#182D55" stroke-width="1.73831" stroke-linecap="round" stroke-linejoin="round"/>
<path d="M50.8704 48.6882C50.8704 47.4714 43.9635 46.6602 35.8283 46.6602C27.2874 46.6602 20.7861 47.4714 20.7861 48.6882V53.1614C20.7861 54.3782 27.693 55.1894 35.8283 55.1894C44.3692 55.1894 50.8704 54.3782 50.8704 53.1614V48.6882Z" fill="#CFDCDF"/>
<path d="M35.424 46.6445C26.8831 46.6445 20.3818 47.4557 20.3818 48.6726C20.3818 49.8894 27.2887 50.7006 35.424 50.7006C43.9649 50.7006 50.4661 49.8894 50.4661 48.6726C50.8717 47.4557 43.9649 46.6445 35.424 46.6445Z" fill="white"/>
<path d="M20.3818 53.1614C20.3818 54.3782 27.2887 55.1894 35.424 55.1894C43.9649 55.1894 50.4661 54.3782 50.4661 53.1614V48.6882C50.4661 47.4714 43.5592 46.6602 35.424 46.6602C26.8831 46.6602 20.3818 47.4714 20.3818 48.6882V53.1614Z" stroke="#182D55" stroke-width="1.73831" stroke-linecap="round" stroke-linejoin="round"/>
<path d="M50.8704 42.5905C50.8704 41.3737 43.9635 40.5625 35.8283 40.5625C27.2874 40.5625 20.7861 41.3737 20.7861 42.5905V47.0638C20.7861 48.2806 27.693 49.0918 35.8283 49.0918C44.3692 49.0918 50.8704 48.2806 50.8704 47.0638V42.5905Z" fill="#CFDCDF"/>
<path d="M35.424 40.5508C26.8831 40.5508 20.3818 41.362 20.3818 42.5788C20.3818 43.7956 27.2887 44.6068 35.424 44.6068C43.9649 44.6068 50.4661 43.7956 50.4661 42.5788C50.8717 41.362 43.9649 40.5508 35.424 40.5508Z" fill="white"/>
<path d="M20.3818 47.0638C20.3818 48.2806 27.2887 49.0918 35.424 49.0918C43.9649 49.0918 50.4661 48.2806 50.4661 47.0638V42.5905C50.4661 41.3737 43.5592 40.5625 35.424 40.5625C27.2887 40.5625 20.3818 41.3737 20.3818 42.5905V47.0638Z" stroke="#182D55" stroke-width="1.73831" stroke-linecap="round" stroke-linejoin="round"/>
<path d="M90.7141 53.5612C89.9029 52.75 89.0916 52.75 88.2804 52.75C87.4692 52.75 86.658 53.1556 86.2524 53.5612L74.0611 62.9133L71.2103 61.6965C70.3991 61.2909 69.5878 61.2909 68.3594 61.2909C67.5482 61.2909 66.737 61.6965 65.9258 62.1021L65.1146 62.9133C62.681 64.9413 60.2358 67.3865 59.0189 70.2258C57.8021 73.0766 56.9909 76.3214 57.3965 79.5779L57.8021 82.4287V86.0907L57.3965 91.7808H78.5343V87.3075C78.5343 85.2795 78.1287 82.4287 78.9399 80.8063L82.602 75.9274C84.63 73.4938 86.264 70.643 87.4808 68.2093L92.3597 58.4516C92.7653 57.6404 92.7653 56.8292 92.7653 56.0064C91.5484 54.7896 91.1428 54.384 90.7372 53.5728L90.7141 53.5612Z" fill="white"/>
<path d="M90.3073 57.6328C86.7959 58.0268 79.7384 66.0694 76.0763 66.5793C73.1676 66.6025 69.5287 64.3543 67.1298 67.3905C58.7396 72.7097 62.5755 83.5104 60.8604 91.7847H77.6987C77.9769 88.5515 77.0266 83.7074 78.1043 80.8102C83.7365 74.3437 88.3488 65.1423 91.9297 57.6444H90.3073V57.6328Z" fill="#CFDCDF"/>
<path d="M85.8339 53.5612C86.6451 53.1556 87.0507 52.75 87.8619 52.75C88.6731 52.75 89.4843 53.1556 89.8899 53.5612C90.7011 53.9668 91.1067 54.778 91.1067 55.5892C91.1067 56.4004 91.1067 57.2117 90.7011 58.0229L85.8223 67.7806C84.6055 70.6314 82.9715 73.065 80.9435 75.5102L77.2814 80.3891C76.4702 82.0115 76.8758 84.8623 76.8758 86.8903V91.3636" stroke="#182D55" stroke-width="1.73831" stroke-linecap="round" stroke-linejoin="round"/>
<path d="M56.9666 91.7711L57.3722 86.0811V82.419L56.9666 79.5682C56.561 76.3118 56.9666 73.067 58.589 70.2161C59.8058 67.3653 61.8455 64.9317 64.6847 62.9037L65.4959 62.0925C66.3071 61.6869 67.1183 61.2812 67.9295 61.2812C68.7407 61.2812 69.9575 61.2812 70.7803 61.6869L73.6312 62.9037" stroke="#182D55" stroke-width="1.73831" stroke-linecap="round" stroke-linejoin="round"/>
<path d="M73.6416 62.9146L85.8329 53.5625" stroke="#182D55" stroke-width="1.73831" stroke-linecap="round" stroke-linejoin="round"/>
<path d="M77.2944 60.4688L69.9703 66.97C69.1591 67.7812 67.9423 68.1868 66.7139 68.1868" stroke="#182D55" stroke-width="1.73831" stroke-linecap="round" stroke-linejoin="round"/>
<path d="M62.25 91.7734H78.9146" stroke="#182D55" stroke-width="1.73831" stroke-linecap="round" stroke-linejoin="round"/>
<path d="M11.029 53.5612C11.8402 52.75 12.6514 52.75 13.4626 52.75C14.2738 52.75 15.085 53.1556 15.4907 53.5612L27.682 62.9133L30.5328 61.6965C31.344 61.2909 32.1552 61.2909 33.3836 61.2909C34.1948 61.2909 35.006 61.6965 35.8172 62.1021L36.6285 62.9133C39.0621 64.9413 41.5073 67.3865 42.7241 70.2258C43.9409 73.0766 44.7521 76.3214 44.3465 79.5779L43.9409 82.4287V86.0907L44.3465 91.7808H23.2319V87.3075C23.2319 85.2795 23.6375 82.4287 22.8263 80.8063L19.1643 75.9274C17.1362 73.4938 15.5022 70.643 14.2854 68.2093L9.40658 58.4401C9.00098 57.6288 9.00098 56.8176 9.00098 55.9948C9.81219 54.778 10.2178 54.3724 11.029 53.5612Z" fill="white"/>
<path d="M23.6372 91.7726H40.4756C39.0386 82.803 42.5152 68.8734 30.9612 65.756C27.8786 65.9182 25.0278 67.4248 22.4204 65.3504L12.6627 58.0379C12.0717 57.3542 10.3102 57.725 9.40625 57.6323C12.9987 65.1534 17.5879 74.32 23.2316 80.7981C24.3093 83.6953 23.3706 88.5626 23.6372 91.7726Z" fill="#CFDCDF"/>
<path d="M15.5033 53.5612C14.6921 53.1556 14.2865 52.75 13.4753 52.75C12.6641 52.75 11.8529 53.1556 11.4473 53.5612C10.6361 53.9668 10.2305 54.778 10.2305 55.5892C10.2305 56.4004 10.2305 57.2117 10.6361 58.0229L15.5149 67.7806C16.7317 70.6314 18.3657 73.065 20.3938 75.5102L24.0558 80.3891C24.867 82.0115 24.4614 84.8623 24.4614 86.8903V91.3636" stroke="#182D55" stroke-width="1.73831" stroke-linecap="round" stroke-linejoin="round"/>
<path d="M44.7759 91.7711L44.3703 86.0811V82.419L44.7759 79.5682C45.1815 76.3118 44.7759 73.067 43.1535 70.2161C41.9367 67.3653 39.897 64.9317 37.0578 62.9037L36.2466 62.0925C35.4354 61.6869 34.6242 61.2812 33.813 61.2812C33.0018 61.2812 31.7849 61.2812 30.9622 61.6869L28.1113 62.9037" stroke="#182D55" stroke-width="1.73831" stroke-linecap="round" stroke-linejoin="round"/>
<path d="M27.704 62.9146L15.5127 53.5625" stroke="#182D55" stroke-width="1.73831" stroke-linecap="round" stroke-linejoin="round"/>
<path d="M24.4492 60.4688L31.7617 66.97C32.5729 67.7812 33.7897 68.1868 35.0181 68.1868" stroke="#182D55" stroke-width="1.73831" stroke-linecap="round" stroke-linejoin="round"/>
<path d="M39.4907 91.7734H22.8262" stroke="#182D55" stroke-width="1.73831" stroke-linecap="round" stroke-linejoin="round"/>
<path d="M35.1803 33.0056C41.5772 33.0056 46.7574 27.8022 46.7458 21.3937C46.7458 14.9967 41.5425 9.81656 35.1339 9.82814C28.7254 9.83973 23.5568 15.0315 23.5684 21.44C23.58 27.8486 28.7717 33.0171 35.1803 33.0056Z" fill="#182D55"/>
<path d="M35.1803 33.0056C41.5772 33.0056 46.7574 27.8022 46.7458 21.3937C46.7458 14.9967 41.5425 9.81656 35.1339 9.82814C28.7254 9.83973 23.5568 15.0315 23.5684 21.44C23.58 27.8486 28.7717 33.0171 35.1803 33.0056Z" stroke="#182D55" stroke-width="1.73831" stroke-linecap="round" stroke-linejoin="round"/>
<path d="M35.1455 16.97V14.293" stroke="white" stroke-width="1.73831" stroke-linecap="round" stroke-linejoin="round"/>
<path d="M32.4912 24.1074C32.4912 25.4401 33.6848 25.8921 35.1682 25.8805C36.6516 25.8689 37.8452 25.8805 37.8452 24.0958C37.8452 21.4188 32.4912 21.4304 32.4912 18.7534C32.4912 16.9688 33.6848 16.9688 35.1682 16.9688C36.6516 16.9688 37.8452 17.6409 37.8452 18.7418" stroke="white" stroke-width="1.73831" stroke-linecap="round" stroke-linejoin="round"/>
<path d="M35.168 25.8789V28.5559" stroke="white" stroke-width="1.73831" stroke-linecap="round" stroke-linejoin="round"/>
</g>
<defs>
<clipPath id="clip0_110_1057">
<rect width="83.74" height="83.6357" fill="white" transform="translate(9 9)"/>
</clipPath>
</defs>
</svg>
