<svg width="181" height="100" viewBox="0 0 181 100" fill="none" xmlns="http://www.w3.org/2000/svg">
<path d="M33.1948 50.6581C33.189 47.1954 31.8349 43.8744 29.4256 41.4137C27.0163 38.9529 23.7456 37.5505 20.3212 37.5098C17.5934 35.8325 14.3459 35.2414 11.2109 35.8515C8.07576 36.4616 5.27728 38.2292 3.35998 40.8103C1.44267 43.3915 0.543688 46.6016 0.837966 49.8159C1.13224 53.0303 2.59873 56.019 4.95206 58.2004C5.83794 60.3595 7.26525 62.2477 9.09316 63.6787C10.9211 65.1098 13.0864 66.0342 15.3755 66.3608C17.6647 66.6875 19.9984 66.405 22.1466 65.5412C24.2948 64.6775 26.1831 63.2624 27.6253 61.4355C29.3444 60.2264 30.7488 58.6148 31.7186 56.7381C32.6884 54.8615 33.1949 52.7755 33.1948 50.6581ZM22.698 40.7703C20.4585 39.753 17.9851 39.3797 15.5494 39.6911C17.0215 39.0528 18.6075 38.7265 20.2093 38.7322H20.4972C21.3118 39.3163 22.0511 40.001 22.698 40.7703ZM26.1855 45.7569C28.0053 48.0318 28.9065 50.9186 28.7081 53.8375C28.5097 56.7565 27.2264 59.4915 25.116 61.4933C23.5795 62.2081 21.909 62.5803 20.2177 62.5847C18.5264 62.5891 16.854 62.2255 15.314 61.5187C18.4066 61.1029 21.245 59.5664 23.302 57.1946C25.359 54.8228 26.4948 51.7768 26.4986 48.6223C26.5008 47.6583 26.3958 46.6971 26.1855 45.7569ZM13.8102 60.6845C11.1791 58.9807 9.3251 56.2899 8.65608 53.204C7.98705 50.1181 8.55778 46.8899 10.2427 44.2295C10.4271 43.9399 10.6259 43.658 10.8392 43.3837C12.9357 41.9598 15.4384 41.2752 17.9589 41.4361C20.4795 41.5969 22.8772 42.5943 24.78 44.2734C25.472 46.0882 25.7199 48.0453 25.5025 49.9778C25.2851 51.9104 24.6089 53.7612 23.5315 55.3725C22.4541 56.9839 21.0075 58.308 19.3148 59.2321C17.6222 60.1562 15.7337 60.6529 13.8102 60.6799V60.6845ZM3.93278 53.0382C3.93286 54.0688 4.04941 55.096 4.28016 56.0999C2.6196 53.9809 1.71123 51.3593 1.7008 48.6558C1.69037 45.9523 2.5785 43.3236 4.22267 41.1916C5.86683 39.0596 8.1717 37.5479 10.7674 36.8991C13.3631 36.2503 16.0991 36.5019 18.5364 37.6137C15.8952 37.9534 13.4216 39.1072 11.4517 40.9182C9.19902 42.0203 7.29896 43.7418 5.96917 45.8853C4.63937 48.0289 3.93363 50.5078 3.93278 53.0382ZM7.27629 58.8151C6.16901 56.8686 5.64438 54.639 5.76608 52.3969C5.88779 50.1548 6.6506 47.9966 7.9619 46.1844C7.07441 48.6646 6.94571 51.3575 7.59257 53.9127C8.23943 56.4679 9.6319 58.7671 11.5888 60.5112C10.0564 60.238 8.59152 59.665 7.27629 58.8243V58.8151ZM17.2383 64.6567C15.5637 64.6562 13.9096 64.2855 12.3917 63.5706C10.8738 62.8557 9.52878 61.8139 8.45098 60.5181C9.88819 61.1596 11.4298 61.5285 12.9989 61.6065C15.5902 63.3551 18.7183 64.1 21.809 63.7047C20.3667 64.3375 18.8105 64.6617 17.2383 64.6567ZM24.6155 41.854C23.9511 40.7535 23.1293 39.7583 22.177 38.9008C24.1526 39.2404 26.01 40.0838 27.5735 41.3513C29.137 42.6188 30.3549 44.2685 31.1122 46.1446C31.8694 48.0206 32.141 50.0609 31.9011 52.0726C31.6613 54.0843 30.918 56.0009 29.7416 57.6412C30.7613 54.8096 30.8103 51.7137 29.8807 48.8506C28.951 45.9875 27.0967 43.5234 24.6155 41.854ZM50.1957 42.5472C48.1156 42.5537 46.1114 43.3381 44.5691 44.7494V38.0482H41.7261L41.7078 51.1156C41.7047 52.8134 42.1995 54.4741 43.1298 55.8876C44.0601 57.3011 45.384 58.4039 46.9342 59.0566C48.4843 59.7093 50.1911 59.8826 51.8386 59.5545C53.4862 59.2264 55.0005 58.4116 56.1901 57.2133C57.3797 56.015 58.1912 54.487 58.5219 52.8224C58.8526 51.1578 58.6877 49.4314 58.048 47.8616C57.4083 46.2917 56.3226 44.9489 54.9282 44.003C53.5337 43.057 51.8932 42.5504 50.214 42.5472H50.1957ZM50.1957 56.8579C48.7642 56.8389 47.3913 56.2805 46.3455 55.292C45.2998 54.3034 44.6565 52.9559 44.5417 51.513C44.5417 51.0047 44.5691 50.4131 44.5691 50.4131C44.7042 49.3174 45.1492 48.2845 45.8507 47.4382C46.5522 46.592 47.4804 45.9685 48.5238 45.6427C49.5671 45.3168 50.6814 45.3024 51.7327 45.6011C52.784 45.8999 53.7276 46.4991 54.4503 47.3269C55.173 48.1547 55.644 49.1758 55.8068 50.2677C55.9696 51.3595 55.8172 52.4756 55.3679 53.482C54.9187 54.4884 54.1916 55.3423 53.2742 55.9411C52.3567 56.54 51.2877 56.8583 50.1957 56.8579ZM97.1763 51.1156C97.1821 49.6574 96.8201 48.2218 96.1244 46.9444C95.4288 45.6671 94.4224 44.5902 93.2006 43.8155C91.9787 43.0409 90.5816 42.5941 89.1414 42.5174C87.7012 42.4407 86.2655 42.7366 84.9699 43.3771C83.6743 44.0177 82.5616 44.9817 81.7371 46.1781C80.9125 47.3745 80.4034 48.7637 80.2576 50.2144C80.1119 51.6652 80.3345 53.1295 80.9044 54.4691C81.4742 55.8087 82.3725 56.9792 83.5143 57.87C83.3201 58.5521 83.2216 59.2584 83.2217 59.9682C83.2172 61.2379 83.5211 62.4894 84.1068 63.6127C84.6925 64.7359 85.542 65.6966 86.5807 66.4103C87.6194 67.1239 88.8155 67.5688 90.064 67.7058C91.3125 67.8428 92.5752 67.6677 93.7412 67.1959C94.9071 66.7241 95.9406 65.97 96.7509 64.9999C97.5612 64.0298 98.1236 62.8734 98.3885 61.6322C98.6535 60.391 98.6129 59.103 98.2704 57.8813C97.928 56.6596 97.2941 55.5417 96.4244 54.6257C96.9179 53.5227 97.1742 52.3262 97.1763 51.1156ZM83.0206 51.1156C83.0056 50.3626 83.1374 49.6139 83.4086 48.9124C83.6797 48.2109 84.0849 47.5703 84.6009 47.0271C85.1169 46.4839 85.7336 46.0488 86.416 45.7466C87.0983 45.4444 87.8328 45.281 88.5775 45.2659C89.3223 45.2507 90.0627 45.384 90.7565 45.6581C91.4503 45.9323 92.0839 46.3419 92.6211 46.8637C93.1583 47.3854 93.5887 48.009 93.8875 48.6989C94.1864 49.3888 94.3479 50.1315 94.363 50.8845V51.1156C94.3583 51.7319 94.2533 52.3432 94.0521 52.9249C92.4768 52.193 90.702 52.0251 89.0197 52.4489C87.3374 52.8726 85.8479 53.8628 84.7964 55.2565C84.2375 54.7246 83.7918 54.083 83.4865 53.3711C83.1812 52.6591 83.0226 51.8916 83.0206 51.1156ZM93.5699 54.011C92.8202 55.3157 91.5888 56.2662 90.1464 56.6535C88.704 57.0409 87.1686 56.8335 85.8773 56.0768C85.8271 56.0491 85.7791 56.019 85.7311 55.989C86.6197 54.8062 87.881 53.9654 89.3064 53.6057C90.7317 53.2461 92.2358 53.389 93.5699 54.011ZM97.3614 59.9658C97.3614 61.7057 96.6778 63.3744 95.461 64.6047C94.2442 65.835 92.594 66.5261 90.8732 66.5261C89.1524 66.5261 87.5021 65.835 86.2853 64.6047C85.0686 63.3744 84.385 61.7057 84.385 59.9658C84.3875 59.4994 84.4396 59.0346 84.5404 58.5794C85.8028 59.3123 87.2326 59.6994 88.6884 59.7024C90.1125 59.6992 91.5128 59.3324 92.7593 58.636C94.0058 57.9396 95.0582 56.9361 95.8187 55.7186C96.82 56.9035 97.3681 58.412 97.3637 59.9705L97.3614 59.9658ZM127.622 42.5472C125.543 42.5507 123.539 43.3356 122 44.7494V38.0482H119.166L119.143 51.1156C119.141 52.8128 119.637 54.4726 120.568 55.885C121.498 57.2974 122.823 58.3989 124.373 59.0502C125.923 59.7015 127.629 59.8733 129.276 59.5439C130.922 59.2145 132.435 58.3988 133.623 57.1998C134.812 56.0008 135.621 54.4724 135.95 52.8081C136.279 51.1437 136.112 49.4182 135.471 47.8496C134.83 46.2811 133.743 44.9401 132.348 43.9963C130.953 43.0524 129.312 42.5482 127.633 42.5472H127.622ZM127.622 56.8579C126.187 56.8522 124.806 56.2983 123.758 55.3071C122.709 54.3159 122.07 52.9607 121.968 51.513L122.005 50.4131C122.14 49.3178 122.586 48.2853 123.287 47.4396C123.989 46.594 124.917 45.9713 125.961 45.6461C127.004 45.321 128.118 45.3073 129.169 45.6068C130.22 45.9062 131.163 46.5061 131.885 47.3342C132.606 48.1624 133.076 49.1837 133.238 50.2754C133.4 51.3671 133.247 52.4828 132.796 53.4885C132.346 54.4942 131.619 55.3471 130.701 55.9448C129.783 56.5425 128.714 56.8596 127.622 56.8579ZM156.278 41.824C154.313 41.6829 152.369 42.3145 150.853 43.5871C149.453 42.817 147.866 42.4615 146.275 42.5612C144.684 42.6609 143.153 43.2119 141.857 44.151C140.562 45.09 139.554 46.3792 138.95 47.8707C138.345 49.3621 138.169 50.9956 138.441 52.5838C138.712 54.1721 139.421 55.6508 140.485 56.8505C141.55 58.0502 142.927 58.9224 144.459 59.3671C145.992 59.8117 147.617 59.8109 149.149 59.3646C150.68 58.9184 152.057 58.0448 153.12 56.844C154.15 57.2198 155.248 57.3681 156.339 57.279C157.43 57.1899 158.49 56.8654 159.447 56.3274C160.404 55.7894 161.236 55.0503 161.887 54.1599C162.537 53.2696 162.992 52.2486 163.22 51.1657C163.447 50.0828 163.443 48.9631 163.207 47.8821C162.971 46.801 162.508 45.7837 161.85 44.8986C161.193 44.0134 160.355 43.281 159.394 42.7507C158.433 42.2203 157.37 41.9043 156.278 41.824ZM146.431 56.844C145.687 56.7901 144.962 56.5887 144.295 56.2513C143.629 55.9139 143.035 55.4471 142.547 54.8775C141.561 53.7272 141.068 52.2281 141.176 50.71C141.283 49.192 141.983 47.7794 143.12 46.7829C144.258 45.7864 145.741 45.2876 147.242 45.3964C147.851 45.4443 148.447 45.595 149.006 45.8424C148.471 46.8195 148.153 47.9031 148.076 49.0174C148.062 49.2046 148.058 49.3918 148.058 49.5743C148.059 50.6706 148.291 51.7541 148.737 52.7532C149.183 53.7523 149.835 54.6441 150.647 55.3697C150.081 55.8932 149.415 56.2943 148.69 56.5486C147.965 56.8029 147.196 56.905 146.431 56.8486V56.844ZM152.496 51.5292C152.418 52.5861 152.05 53.6001 151.433 54.457C150.331 53.473 149.593 52.1392 149.34 50.6749C149.087 49.2105 149.335 47.7027 150.042 46.3993C150.859 46.9642 151.515 47.7357 151.945 48.637C152.376 49.5383 152.565 50.5379 152.494 51.5361L152.496 51.5292ZM162.202 50.018C162.142 50.8771 161.915 51.7158 161.535 52.4863C161.154 53.2567 160.627 53.9438 159.984 54.5084C159.341 55.0729 158.594 55.5039 157.786 55.7765C156.978 56.0492 156.125 56.1583 155.275 56.0976C154.81 56.0645 154.351 55.9801 153.904 55.8457C154.714 54.6186 155.198 53.2013 155.309 51.7303C155.415 50.2962 155.158 48.8585 154.562 47.5526C153.967 46.2468 153.052 45.1159 151.904 44.2665C153.138 43.3434 154.658 42.8975 156.189 43.0094C157.905 43.1366 159.502 43.9465 160.628 45.2615C161.755 46.5764 162.32 48.2894 162.2 50.0249L162.202 50.018ZM108.02 42.5472C105.794 42.5842 103.672 43.5043 102.11 45.1091C100.549 46.7139 99.674 48.8748 99.674 51.126C99.674 53.3771 100.549 55.5381 102.11 57.1429C103.672 58.7477 105.794 59.6678 108.02 59.7047C110.102 59.7026 112.109 58.9167 113.649 57.5003V59.3974H116.488L116.504 51.1295C116.502 48.8547 115.608 46.6735 114.017 45.0646C112.427 43.4556 110.27 42.5503 108.02 42.5472ZM113.649 51.8273C113.467 53.2891 112.735 54.6239 111.606 55.5549C110.476 56.4859 109.036 56.9416 107.583 56.8277C106.13 56.7137 104.776 56.0387 103.802 54.9427C102.828 53.8466 102.309 52.4137 102.352 50.9409C102.395 49.4681 102.996 48.0685 104.032 47.0322C105.068 45.996 106.459 45.4026 107.916 45.3752C109.373 45.3477 110.784 45.8883 111.858 46.8848C112.931 47.8813 113.584 49.2572 113.681 50.7274L113.649 51.8273ZM75.0378 51.5593C74.9274 52.9271 74.3349 54.2094 73.368 55.1726C72.4011 56.1358 71.1243 56.7158 69.77 56.8071C68.4157 56.8983 67.074 56.4948 65.9893 55.6698C64.9046 54.8449 64.1489 53.6535 63.86 52.3126C63.86 52.2825 63.7526 51.5847 63.7526 51.5847V42.7229H60.9164V51.5593C61.0257 53.7508 61.9616 55.8166 63.5314 57.3318C65.1012 58.8469 67.1856 59.6961 69.3558 59.7047C71.526 59.7133 73.6169 58.8806 75.1984 57.3779C76.7799 55.8752 77.7317 53.8169 77.8579 51.6263V42.7206H75.0378V51.5593ZM161.866 40.5785C161.862 40.5348 161.874 40.491 161.901 40.4565C161.928 40.4219 161.967 40.3994 162.01 40.3936H162.467C162.828 40.3936 163.048 40.5554 163.048 40.9251C163.044 41.041 162.998 41.1514 162.918 41.2344C162.838 41.3174 162.73 41.367 162.616 41.3734L163.011 41.8009C163.026 41.8135 163.038 41.8295 163.046 41.8475C163.054 41.8655 163.058 41.8851 163.057 41.9049C163.057 41.9519 163.04 41.9973 163.008 42.0314C162.976 42.0655 162.932 42.0856 162.885 42.0874C162.859 42.0884 162.833 42.0833 162.81 42.0725C162.786 42.0616 162.765 42.0454 162.748 42.025L162.223 41.3919V41.9002C162.223 41.9235 162.218 41.9465 162.209 41.968C162.2 41.9894 162.187 42.0089 162.171 42.0252C162.155 42.0416 162.135 42.0545 162.114 42.0631C162.093 42.0718 162.07 42.0762 162.047 42.0758C162 42.0759 161.956 42.0574 161.923 42.0246C161.89 41.9917 161.871 41.947 161.871 41.9002L161.866 40.5785ZM162.218 41.1377H162.447C162.499 41.1457 162.552 41.1328 162.595 41.1017C162.637 41.0706 162.666 41.0238 162.675 40.9713C162.678 40.9583 162.678 40.945 162.675 40.932C162.677 40.906 162.674 40.8799 162.666 40.8552C162.657 40.8305 162.644 40.8077 162.627 40.7882C162.61 40.7686 162.59 40.7526 162.566 40.7412C162.543 40.7298 162.518 40.7232 162.492 40.7217H162.204L162.218 41.1377Z" fill="black"/>
<path d="M160.801 41.2425C160.801 41.5625 160.895 41.8752 161.07 42.1412C161.246 42.4072 161.496 42.6145 161.788 42.737C162.081 42.8594 162.402 42.8914 162.713 42.829C163.023 42.7666 163.308 42.6125 163.532 42.3863C163.755 42.1601 163.908 41.8719 163.97 41.5581C164.031 41.2443 164 40.9191 163.879 40.6235C163.757 40.328 163.552 40.0753 163.289 39.8976C163.026 39.7199 162.717 39.625 162.401 39.625C161.976 39.625 161.569 39.7954 161.269 40.0988C160.969 40.4021 160.801 40.8135 160.801 41.2425ZM161.15 41.2425C161.151 40.993 161.225 40.7492 161.362 40.542C161.5 40.3348 161.695 40.1734 161.923 40.0783C162.151 39.9833 162.402 39.9587 162.644 40.0079C162.886 40.057 163.108 40.1776 163.282 40.3543C163.456 40.5311 163.575 40.7561 163.623 41.001C163.67 41.2458 163.645 41.4994 163.55 41.7298C163.455 41.9602 163.295 42.1569 163.09 42.2952C162.884 42.4334 162.643 42.507 162.396 42.5065C162.066 42.5047 161.749 42.3707 161.516 42.1339C161.283 41.897 161.153 41.5766 161.153 41.2425H161.15Z" fill="black"/>
</svg>
