<svg width="164" height="92" viewBox="0 0 164 92" fill="none" xmlns="http://www.w3.org/2000/svg">
<path d="M57.0752 35.8344C50.457 35.8344 45.7002 40.7355 45.7002 47.7221C45.7002 54.1873 50.2502 59.6097 57.6957 59.6097C63.2798 59.6097 66.6923 56.3771 66.6923 56.3771L64.6241 52.206C64.6241 52.206 61.7287 54.7087 58.2127 54.7087C54.9036 54.7087 51.9048 52.6231 51.4911 48.7648H66.8991C66.8991 48.7648 67.0025 47.3049 67.0025 46.575C67.0025 40.5269 63.4866 35.8344 57.0752 35.8344ZM51.5945 44.8023C52.1116 41.8825 54.0764 40.1098 56.9718 40.1098C59.4537 40.1098 61.315 41.7782 61.4184 44.8023H51.5945ZM35.3592 54.3958C30.8092 54.3958 27.9138 50.9547 27.9138 46.8878C27.9138 42.821 30.7058 39.4841 35.1524 39.4841C38.8752 39.4841 41.357 42.0911 41.357 42.0911L43.9422 38.0242C43.9422 38.0242 41.0468 34.4788 34.8422 34.4788C26.9831 34.4788 21.916 40.2141 21.916 47.0964C21.916 54.083 26.9831 59.6097 34.8422 59.6097C41.2536 59.6097 44.6661 55.7514 44.6661 55.7514L42.3911 51.4761C42.2877 51.3718 39.2888 54.3958 35.3592 54.3958ZM88.5117 27.4922H83.031V32.4975H88.5117V27.4922ZM76.206 51.0589V27.4922H70.7253V51.8932C70.7253 58.3584 74.5514 59.1926 77.6537 59.1926C78.5844 59.1926 79.4117 59.0883 79.4117 59.0883V54.083C79.4117 54.083 78.998 54.083 78.5844 54.083C77.1367 54.1873 76.206 53.5616 76.206 51.0589ZM131.53 36.043L132.357 37.3986L132.978 38.4413L132.357 39.4841L131.427 40.944C134.529 41.674 136.907 44.4894 136.907 47.9306C136.907 48.5563 136.804 49.1819 136.701 49.7033L137.424 51.0589L138.148 52.4146H139.803H140.837C141.354 51.0589 141.768 49.4948 141.768 47.9306C141.457 41.7782 137.114 36.8772 131.53 36.043ZM135.563 51.7889C134.322 53.6659 132.151 54.9172 129.772 54.9172C127.394 54.9172 125.222 53.6659 123.981 51.7889L121.293 51.5803L119.948 53.9787L119.845 54.1873C121.913 57.5242 125.636 59.714 129.772 59.714C133.908 59.714 137.528 57.5242 139.699 54.1873L136.804 54.2915L135.563 51.7889ZM121.293 49.8076L122.947 49.9119C122.74 49.2862 122.637 48.5563 122.637 47.8263C122.637 44.0723 125.532 41.0483 129.152 40.7355L130.703 38.4413L129.358 36.1472L129.255 36.043C123.05 36.3558 117.983 41.5697 117.983 47.9306C117.983 49.4948 118.294 50.9547 118.811 52.3103L119.535 50.9547L120.155 49.9119L121.293 49.8076ZM108.987 38.0242C108.987 38.3371 108.987 38.6499 108.987 38.6499H108.883C108.883 38.6499 107.125 35.7301 102.265 35.7301C95.8538 35.7301 92.3379 40.8397 92.3379 46.9921C92.3379 53.2488 95.9572 58.4627 102.369 58.4627C105.367 58.4627 107.229 57.4199 108.573 55.4386H108.677C108.677 55.4386 108.573 56.0643 108.573 56.6899V58.0455C108.573 62.1124 105.678 63.5723 102.265 63.5723C98.8527 63.5723 96.0606 62.1124 96.0606 62.1124L94.4061 66.3878C96.5777 67.5348 99.5765 68.369 102.369 68.369C108.16 68.369 114.157 65.4493 114.157 57.6284V36.3558H108.987V38.0242ZM103.61 53.7702C99.9902 53.7702 98.0254 50.8504 98.0254 46.8878C98.0254 43.0296 99.8868 40.6312 103.299 40.6312C106.298 40.6312 108.78 41.9868 108.78 47.2007C108.78 52.206 106.298 53.7702 103.61 53.7702ZM83.031 58.984H88.6151V36.3558H83.031C83.031 36.3558 83.031 58.984 83.031 58.984Z" fill="#1BB1ED"/>
</svg>
