<svg width="164" height="91" viewBox="0 0 164 91" fill="none" xmlns="http://www.w3.org/2000/svg">
<path d="M26.4529 36.0956C24.9366 35.1354 24.6118 32.6929 24.6118 32.6929C22.49 32.0034 20.4236 31.1575 18.4307 30.1635C17.0515 29.2516 16.7267 28.707 14.6424 28.1141C19.1032 24.423 17.4889 18.3555 17.0433 20.4677C16.6941 22.1336 13.5064 26.0003 12.1288 27.6324C12.0391 27.6324 11.8285 27.6888 11.7387 27.6888C15.0406 23.7673 13.637 17.8818 13.2811 19.2432C12.7131 21.4214 7.14901 29.9153 7.14901 29.9153C7.14901 29.9153 3.8879 32.8057 3.54025 33.6548C3.54025 33.6548 4.31064 33.4711 4.72521 33.5033C4.72521 33.5033 1.7073 38.9071 1.6518 41.3093C1.6518 41.3093 2.14636 40.7808 2.43852 40.5891C2.4222 41.3173 3.24972 46.3054 3.57452 48.2275C3.94829 50.4444 3.94013 52.7983 1.65996 53.5668C1.23396 53.7102 0.786743 53.7746 0.337891 53.7585C3.92218 58.4823 11.4417 71.6356 11.4417 71.6356C14.6538 69.3945 16.681 66.3044 17.2245 64.798C17.3061 64.806 18.2544 65.2217 18.2544 65.2217C20.1853 61.4903 19.3904 56.7987 18.7735 55.6065C19.7381 56.1671 20.0874 56.0866 20.0874 56.0866C19.9813 55.1102 18.2789 51.0582 18.2789 51.0582C19.3986 51.2016 19.7071 50.8343 19.7071 50.8343C17.6146 49.4407 16.4378 45.6062 16.4378 45.6062C16.9242 45.8865 17.1674 45.9832 18.1092 46.4955C16.5194 43.357 14.0369 40.3313 14.0369 40.3313C15.3834 40.7309 17.3535 39.3227 18.2299 38.899C18.9073 38.5865 19.6108 38.3287 20.3306 38.1305C21.1744 38.1547 22.2206 38.8829 22.9992 38.8265C23.9557 38.7621 25.9518 36.6563 26.2195 36.6724C26.5117 36.6885 26.7059 36.2568 26.4545 36.0956H26.4529ZM14.9525 31.9083H14.9199C14.7828 31.9405 14.644 31.9969 14.5151 32.0598C14.4253 32.1 14.3453 32.1403 14.2637 32.1725C13.9079 32.3304 13.5146 32.39 13.1277 32.3417C12.2186 32.2289 11.5135 31.5007 11.0679 30.5969C11.378 30.6742 11.6963 30.7193 12.0162 30.7322C12.7866 30.7805 13.7839 30.7725 14.4253 30.6677C14.4824 30.6597 14.5477 30.6597 14.6032 30.6597C15.4471 30.7 15.7311 32.0694 15.7311 32.0694C15.7311 32.0694 15.4715 31.8052 14.9525 31.9099V31.9083ZM158.592 41.9392L154.844 41.066V43.5488H158.592V41.9392ZM126.092 52.5228C126.092 52.0265 126.075 51.482 126.051 50.8569C126.026 50.2736 125.945 49.6952 125.807 49.1281C125.669 48.5578 125.444 48.01 125.143 47.5025C124.815 46.9644 124.379 46.4987 123.862 46.133C123.318 45.7415 122.621 45.437 121.794 45.213C120.966 44.9891 119.961 44.8763 118.776 44.8763C118.014 44.8683 117.243 44.9327 116.489 45.0519C115.881 45.1405 115.282 45.2678 114.689 45.4289C114.123 45.5627 113.569 45.7415 113.034 45.9655L112.912 46.0138L112.215 49.8724L115.192 50.4331L115.597 48.2162C116.669 47.9423 117.774 47.807 118.882 47.8166C119.563 47.8166 120.131 47.8891 120.586 48.0245C121.042 48.1598 121.389 48.337 121.649 48.561C121.898 48.7672 122.096 49.0266 122.225 49.3214C122.36 49.6243 122.453 49.9449 122.501 50.2736C122.558 50.6103 122.582 50.9535 122.574 51.2983C122.566 51.6592 122.566 52.0024 122.566 52.331V52.3794L117.78 52.3391C116.912 52.3391 116.045 52.4358 115.193 52.6275C114.426 52.8015 113.7 53.1157 113.052 53.5555C112.433 53.9808 111.932 54.5496 111.593 55.2134C111.243 55.8852 111.066 56.694 111.082 57.6236C111.087 58.3631 111.255 59.093 111.576 59.7616C111.913 60.4238 112.388 61.0086 112.972 61.4742C113.623 61.9817 114.367 62.362 115.162 62.5956C116.099 62.8662 117.074 62.9983 118.05 62.9871C119.227 62.9871 120.304 62.8115 121.254 62.4586C121.74 62.2524 122.194 61.9769 122.6 61.6418L122.617 62.4264H126.145L126.096 52.5228H126.092ZM122.595 58.7192C122.391 58.8593 122.182 58.9931 121.97 59.1187C121.662 59.3024 121.337 59.4555 120.997 59.5747C120.584 59.7213 120.162 59.8357 119.732 59.9195C118.823 60.0951 117.746 60.1193 116.821 59.8953C116.426 59.8115 116.049 59.6569 115.709 59.4394C115.409 59.2396 115.157 58.977 114.971 58.6708C114.782 58.3454 114.691 57.9732 114.704 57.5978C114.704 57.0774 114.793 56.6618 114.963 56.3573C115.11 56.0689 115.345 55.8336 115.636 55.6854C115.951 55.5162 116.293 55.4067 116.649 55.3648C117.062 55.3084 117.477 55.2842 117.898 55.2842L122.594 55.3245V58.7192H122.595ZM141.137 54.1001L146.045 48.3193H149.102V45.4451H140.804V48.3193H142.257L139.151 52.0507L135.581 48.3193H137.365V45.4451H128.022V48.3193H131.071L136.376 53.86L131.543 59.5521H128.022V62.4264H136.774V59.5521H135.354L138.397 55.9899L141.842 59.5521H140.432V62.4264H149.807V59.5521H146.393L141.137 54.1001ZM158.575 45.4451H151.803V48.3193H155.03V59.5521H151.803V62.4264H161.812V59.5521H158.575V45.4451ZM109.068 49.7532C108.312 47.7119 106.66 46.1185 104.574 45.4225C103.461 45.0535 102.294 44.8699 101.119 44.8779C100.6 44.8779 100.081 44.9263 99.5701 45.0213C99.0837 45.118 98.6136 45.2453 98.1419 45.4064C97.7045 45.5578 97.2801 45.7399 96.8688 45.9509C96.5407 46.1169 96.2224 46.299 95.9123 46.4955L90.5669 44.6862L89.6578 47.5444L93.3645 48.7608V67.5353H90.0952V70.4096H100.169V67.5353H96.8998V62.4361C97.4384 62.5891 97.9852 62.7132 98.5385 62.805C99.3334 62.9403 100.145 63.0048 100.956 62.9967C102.245 62.9967 103.438 62.7567 104.501 62.2927C105.557 61.8351 106.5 61.1584 107.266 60.3078C108.057 59.4249 108.663 58.397 109.05 57.282C109.471 56.1204 109.683 54.8154 109.683 53.4153C109.683 52.0153 109.481 50.8133 109.066 49.7564V49.7532H109.068ZM106.092 53.4202C106.099 54.3353 105.988 55.2472 105.759 56.1349C105.565 56.8873 105.232 57.5978 104.778 58.2326C104.357 58.803 103.804 59.2637 103.164 59.5779C102.523 59.8985 101.769 60.058 100.926 60.058H100.869C99.8361 60.0677 98.8078 59.905 97.8285 59.5779C97.507 59.4812 97.1969 59.3491 96.9047 59.1864V49.1394C97.2279 48.8993 97.5772 48.6931 97.9428 48.5223C98.3753 48.3274 98.8225 48.1695 99.2812 48.0503C99.8671 47.9069 100.469 47.8344 101.073 47.8344H101.081C104.447 47.8344 106.094 49.6598 106.094 53.4218H106.092V53.4202ZM162.713 46.1894C162.713 45.8688 162.453 45.7012 162.104 45.7012H161.391L161.399 47.2544H161.699V46.7178H162.032L162.406 47.2544H162.772L162.351 46.6615C162.571 46.6115 162.724 46.4133 162.716 46.1894H162.713ZM162.071 46.4778H161.69V45.9655H162.071C162.274 45.9655 162.388 46.0541 162.388 46.2216C162.388 46.3731 162.274 46.4778 162.071 46.4778Z" fill="black"/>
<path d="M161.999 44.975C161.142 44.9782 160.448 45.6662 160.45 46.512V46.5201C160.45 47.3659 161.145 48.0507 162.002 48.049C162.004 48.049 162.005 48.049 162.007 48.049C162.864 48.0458 163.557 47.3579 163.556 46.512V46.504C163.552 45.6581 162.856 44.9734 161.999 44.975ZM163.37 46.512C163.327 47.2612 162.676 47.8348 161.917 47.7929C161.22 47.7542 160.664 47.208 160.619 46.5201V46.512C160.662 45.7628 161.313 45.1893 162.072 45.2312C162.769 45.2698 163.326 45.816 163.37 46.504V46.512ZM57.6218 47.3208C56.827 46.5265 55.8672 45.9111 54.8079 45.5196C53.7209 45.1039 52.5049 44.8944 51.1828 44.8944C49.975 44.8799 48.7737 45.0926 47.6459 45.5196C46.6013 45.9207 45.653 46.533 44.8646 47.3208C44.0942 48.0893 43.4936 49.0576 43.0643 50.179C42.6351 51.3003 42.4311 52.5812 42.4311 53.9732C42.4311 55.3652 42.6416 56.6396 43.0643 57.7593C43.4871 58.8791 44.0942 59.8409 44.8646 60.6094C45.653 61.3941 46.6013 62.0047 47.6459 62.4026C48.7754 62.8264 49.975 63.0358 51.1828 63.0197C52.5049 63.0197 53.7209 62.8119 54.8079 62.4026C55.8689 62.016 56.8286 61.4037 57.6218 60.6094C58.4232 59.7958 59.0418 58.8243 59.4385 57.7593C59.8596 56.646 60.0799 55.3733 60.0799 53.9732C60.0799 52.5731 59.8612 51.2826 59.4385 50.1709C59.0386 49.1076 58.42 48.1377 57.6218 47.3208ZM55.1393 58.4972C54.2873 59.53 52.957 60.0584 51.2139 60.0584C49.4707 60.0584 48.2041 59.538 47.3537 58.4972C46.4936 57.4323 46.0561 55.9114 46.0561 53.9732C46.0561 52.035 46.4936 50.4899 47.3537 49.4249C48.2139 48.36 49.5115 47.8396 51.2139 47.8396C52.9162 47.8396 54.2709 48.368 55.1311 49.433C56.0076 50.498 56.4532 52.0269 56.4532 53.9732C56.4532 55.9194 56.0076 57.4484 55.1393 58.4972ZM39.5927 58.4408C39.1177 58.755 38.6117 59.0225 38.0845 59.2416C37.5573 59.4752 37.0122 59.6653 36.454 59.8103C35.8125 59.9746 35.1531 60.0552 34.4905 60.0504C32.7783 60.0504 31.4807 59.5219 30.6303 58.4731C29.762 57.4001 29.3246 55.8711 29.3246 53.9248C29.3246 51.9786 29.762 50.4496 30.6303 49.3927C31.4823 48.36 32.7799 47.8315 34.4905 47.8315C35.3751 47.8315 36.0639 47.8879 36.5503 48.0072C36.9877 48.128 37.2391 48.1989 37.386 48.2472L37.905 51.0329L40.8903 50.3836L40.0056 45.8756L39.8914 45.8192C39.4539 45.6291 39.0002 45.4728 38.5366 45.3552C37.9833 45.2167 37.4235 45.1103 36.8571 45.0346C36.0623 44.9218 35.2674 44.8751 34.4643 44.8832C33.2598 44.8751 32.0634 45.0846 30.9355 45.5002C29.8893 45.895 28.941 46.5056 28.1543 47.2934C27.3578 48.1087 26.7441 49.0786 26.354 50.1435C25.9329 51.2488 25.7207 52.5296 25.7207 53.9216C25.7207 55.3136 25.9313 56.5961 26.354 57.7078C26.7425 58.7776 27.3562 59.7539 28.1543 60.574C28.941 61.3634 29.8893 61.9773 30.9355 62.3752C32.0601 62.8038 33.2582 63.0197 34.4643 63.0084C35.349 63.0165 36.2238 62.8876 37.0758 62.6475C37.8071 62.4445 38.5203 62.1851 39.2091 61.871C39.7118 61.6486 40.1966 61.3892 40.6601 61.0944C41.2689 60.6948 41.2934 60.6707 41.2934 60.5257V60.4532L39.7934 58.2991L39.591 58.4344V58.4408H39.5927ZM71.5493 59.9392C71.5248 59.9392 71.4758 59.9392 70.9242 60.0359C70.5112 60.0923 70.0885 60.1245 69.6674 60.1245C68.9541 60.0761 68.4106 59.8764 68.045 59.5235C67.6712 59.1562 67.3986 58.7019 67.2501 58.2024C67.0804 57.6385 66.9841 57.0537 66.9661 56.4656C66.9498 55.8405 66.9416 55.2734 66.9416 54.761V48.3165H71.8088V45.4422H66.9416V41.3516L63.4536 42.1603V45.4503H60.2252V48.3245H63.4536V56.4511C63.4536 57.5322 63.5907 58.4844 63.8666 59.2931C64.113 60.0552 64.5227 60.7577 65.0662 61.3506C65.6 61.9096 66.2577 62.3366 66.989 62.5992C67.7936 62.8779 68.6407 63.0165 69.4944 63.0068C69.86 63.0068 70.2076 62.9826 70.5651 62.9504C70.8572 62.9182 71.1494 62.8618 71.4334 62.7909C71.7044 62.7329 71.9688 62.6556 72.2283 62.5589L72.4388 62.4783L71.7419 59.9408H71.5477L71.5493 59.9392ZM89.4348 50.1693C89.0366 49.1043 88.4212 48.1312 87.6263 47.3111C86.8249 46.5185 85.8636 45.9014 84.8043 45.5018C83.7091 45.0942 82.4931 44.8848 81.1792 44.8848C79.8653 44.8848 78.713 45.0926 77.6504 45.5099C76.6058 45.9111 75.6575 46.5233 74.8692 47.3111C74.0661 48.128 73.4492 49.1059 73.0607 50.1773C72.6396 51.2987 72.4356 52.5795 72.4356 53.9716C72.4356 55.3636 72.6461 56.638 73.0607 57.7577C73.4508 58.8243 74.0678 59.7958 74.8692 60.6078C75.6575 61.3924 76.6058 62.0031 77.6504 62.401C78.7783 62.8167 79.9747 63.0261 81.1792 63.0181C82.4148 63.0261 83.6422 62.8183 84.8043 62.401C85.8652 62.0095 86.8266 61.3989 87.6263 60.6078C88.4229 59.791 89.0382 58.8211 89.4348 57.7577C89.8641 56.6364 90.0844 55.3636 90.0844 53.9716C90.0844 52.5795 89.8739 51.289 89.4348 50.1693ZM85.1438 58.4876C84.2755 59.5284 82.9942 60.0488 81.2184 60.0488C79.4426 60.0488 78.2168 59.5364 77.3583 58.4876C76.4899 57.4307 76.0525 55.9017 76.0525 53.9635C76.0525 52.0253 76.4899 50.4802 77.3583 49.4153C78.2266 48.3503 79.4915 47.8299 81.2184 47.8299C82.9452 47.8299 84.2673 48.3664 85.1356 49.4153C86.0203 50.4883 86.4577 52.0173 86.4577 53.9635C86.4577 55.9098 86.0121 57.4468 85.1438 58.4876Z" fill="black"/>
</svg>
