<svg width="101" height="101" viewBox="0 0 101 101" fill="none" xmlns="http://www.w3.org/2000/svg">
<g clip-path="url(#clip0_114_1352)">
<circle cx="26.5" cy="71.5" r="14.5" fill="white"/>
<circle cx="75.5" cy="71.5" r="14.5" fill="white"/>
<circle cx="51.5" cy="30.5" r="14.5" fill="white"/>
<path d="M51.6192 44.3601C58.4357 44.3601 64.0512 38.7445 64.0512 31.9281C64.0512 25.1117 58.4357 19.4961 51.6192 19.4961C44.8028 19.4961 39.1758 25.1117 39.1758 31.9281C39.1758 38.7445 44.7913 44.3601 51.6192 44.3601Z" fill="#CFDCDF"/>
<path d="M76.4483 84.8874C83.2648 84.8874 88.8803 79.2719 88.8803 72.4554C88.8803 65.639 83.2648 60.0234 76.4483 60.0234C69.6319 60.0234 64.0049 65.639 64.0049 72.4554C64.0049 79.2719 69.6204 84.8874 76.4483 84.8874Z" fill="#CFDCDF"/>
<path d="M26.7435 84.8874C33.56 84.8874 39.187 79.2719 39.187 72.4554C39.187 65.639 33.5714 60.0234 26.7435 60.0234C19.9156 60.0234 14.3115 65.639 14.3115 72.4554C14.3115 79.2719 19.9271 84.8874 26.7435 84.8874Z" fill="#CFDCDF"/>
<path d="M51.0172 44.5646C53.4189 44.5646 55.4318 44.1643 57.4333 42.9634C59.4348 41.7626 61.0474 40.5617 62.6486 38.5488C61.0474 34.5344 56.2324 31.332 51.0172 31.332C45.8019 31.332 40.9869 34.1455 39.3857 38.5488C40.5866 40.5502 42.5995 41.7626 44.601 42.9634C46.6025 43.764 48.6154 44.5646 51.0172 44.5646Z" fill="#182D55"/>
<path d="M51.0181 30.1182C53.8316 30.1182 55.8331 28.1168 55.8331 25.3033C55.8331 22.4898 53.8316 20.4883 51.0181 20.4883C48.2046 20.4883 46.2031 22.4898 46.2031 25.3033C46.2031 28.1168 48.2046 30.1182 51.0181 30.1182Z" fill="#182D55"/>
<path d="M75.4478 85.0842C77.8496 85.0842 79.8625 84.6839 81.864 83.483C83.8654 82.2821 85.4781 81.0812 87.0792 79.0683C85.4781 75.0539 80.6631 71.8516 75.4478 71.8516C70.2326 71.8516 65.4176 74.6651 63.8164 79.0683C65.0173 81.0698 67.0302 82.2821 69.0317 83.483C71.0331 84.6839 73.0461 85.0842 75.4478 85.0842Z" fill="#182D55"/>
<path d="M75.4468 71.0401C78.2603 71.0401 80.2618 69.0386 80.2618 66.2251C80.2618 63.4116 78.2603 61.4102 75.4468 61.4102C72.6333 61.4102 70.6318 63.4116 70.6318 66.2251C70.6318 68.6269 72.6333 71.0401 75.4468 71.0401Z" fill="#182D55"/>
<path d="M25.7418 85.0842C28.1435 85.0842 30.1564 84.6839 32.1579 83.483C34.1594 82.2821 35.772 81.0812 37.3732 79.0683C35.772 75.0539 30.957 71.8516 25.7418 71.8516C20.5265 71.8516 15.7115 74.6651 14.1104 79.0683C15.3112 81.0698 17.3241 82.2821 19.3256 83.483C21.3271 84.6839 23.7403 85.0842 25.7418 85.0842Z" fill="#182D55"/>
<path d="M25.7427 71.0401C28.5562 71.0401 30.5577 69.0386 30.5577 66.2251C30.5577 63.4116 28.5562 61.4102 25.7427 61.4102C22.9292 61.4102 20.9277 63.4116 20.9277 66.2251C20.9277 68.6269 23.3295 71.0401 25.7427 71.0401Z" fill="#182D55"/>
<path d="M56.7712 43.3477C54.7926 44.1368 53.2029 44.5371 51.2243 44.5371C49.2457 44.5371 47.2671 44.1368 45.2885 43.3477L35.3955 59.977C37.3741 61.9556 38.9638 64.3345 39.753 66.702H61.9293C62.7185 63.9342 64.3082 61.5553 66.2868 59.977L56.7827 43.3477H56.7712Z" stroke="#182D55" stroke-width="1.71555" stroke-linecap="round" stroke-linejoin="round"/>
<path d="M61.4014 71.0418C61.4014 68.2283 62.202 65.4263 63.8031 63.0131C65.4043 60.6113 67.4172 58.9987 70.2193 57.7978C72.6211 56.5969 75.8348 56.5969 78.2481 56.9972C80.6613 57.3975 83.4633 58.9987 85.4648 61.0116C87.4663 63.0131 88.6786 65.4263 89.4792 68.2283C89.8795 71.0418 89.8795 73.8439 88.6786 76.2571C87.4777 78.6589 85.8651 81.0721 83.4633 82.6733C81.0616 84.2744 78.2481 85.075 75.4346 85.075" stroke="#182D55" stroke-width="1.71555" stroke-linecap="round" stroke-linejoin="round"/>
<path d="M40.187 71.041C40.187 73.8545 39.3865 76.6566 37.7853 79.0698C36.1841 81.4715 34.1712 83.0841 31.3691 84.285C28.9674 85.4859 25.7536 85.4859 23.3404 85.0856C20.5269 84.6853 18.1251 83.0841 16.1122 81.0712C14.1107 79.0698 12.8984 76.6566 12.0978 73.8545C11.6975 71.041 11.6975 68.2389 12.8984 65.8257C14.0993 63.424 15.7119 61.0108 18.1137 59.4096C20.5154 57.8084 23.3289 57.0078 26.1424 57.0078" stroke="#182D55" stroke-width="1.71555" stroke-linecap="round" stroke-linejoin="round"/>
<path d="M75.448 85.0831C72.6345 85.0831 69.4322 84.2825 67.019 82.2696C64.6172 80.6684 63.0046 78.2552 61.8037 75.4531" stroke="#182D55" stroke-width="1.71555" stroke-linecap="round" stroke-linejoin="round"/>
<path d="M31.3574 57.7969C34.1709 58.9978 36.1724 60.6104 37.7736 63.0121C39.3748 65.4139 40.1753 68.2274 40.1753 71.0409" stroke="#182D55" stroke-width="1.71555" stroke-linecap="round" stroke-linejoin="round"/>
<path d="M61.082 20.1094C63.072 22.0994 64.4902 24.6499 65.0506 27.4862C65.6225 30.3226 65.3366 32.8731 64.2043 35.7094C63.358 38.2599 61.082 40.5358 59.1034 41.954C56.8389 43.6581 53.9911 44.2185 51.1547 44.2185C48.3183 44.2185 45.7679 43.3722 43.206 41.954C40.9415 40.2499 38.9514 38.2599 38.1051 35.7094C37.2588 33.159 36.6869 30.3226 37.2588 27.4862C37.8306 24.6499 39.2488 22.0994 41.2274 20.1094" stroke="#182D55" stroke-width="1.71555" stroke-linecap="round" stroke-linejoin="round"/>
<path d="M45.4814 16.9882C48.3178 15.8559 50.8683 15.57 53.7046 16.1418C56.541 16.7137 59.0915 18.1319 61.0815 20.1105" stroke="#182D55" stroke-width="1.71555" stroke-linecap="round" stroke-linejoin="round"/>
</g>
<defs>
<clipPath id="clip0_114_1352">
<rect width="79.59" height="71.1838" fill="white" transform="translate(11 15)"/>
</clipPath>
</defs>
</svg>
