<svg width="101" height="101" viewBox="0 0 101 101" fill="none" xmlns="http://www.w3.org/2000/svg">
<path d="M84.0864 50.086C84.0864 48.8635 84.0864 47.3076 83.6418 46.1962C83.6418 45.4182 83.6418 44.9737 83.6418 44.1957C83.6418 43.4177 84.0864 42.9731 84.4198 42.6397L87.9762 38.7499C88.7542 37.9719 89.1987 37.194 89.1987 36.416C89.1987 35.638 89.1987 34.4155 88.7542 33.6375L83.6418 24.6353C83.1973 23.8573 82.4193 23.0793 81.6413 22.6348C80.8633 22.1902 79.6408 22.1902 78.8628 22.1902L73.7505 23.4127C72.9725 23.4127 72.5279 23.4127 71.75 23.4127C70.972 23.4127 70.5274 22.9682 70.194 22.6348C68.1935 21.0788 65.8596 19.8563 63.5257 18.7449C63.0812 18.3004 62.3032 17.967 61.9698 17.5224C61.5252 17.0779 61.1918 16.2999 61.1918 15.9664L59.6359 10.8541C59.1913 10.0761 58.8579 9.29814 58.0799 8.52017C57.3019 8.07562 56.524 7.74219 55.3014 7.74219H45.0767C44.2987 7.74219 43.0762 8.18676 42.2982 8.52017C41.5203 8.96473 41.0757 9.7427 40.7423 10.8541L39.1863 15.9664C39.1863 16.7444 38.7418 17.189 38.4084 17.5224C37.9638 17.967 37.6304 18.3004 36.8524 18.7449C34.5185 19.9674 32.1846 21.0788 30.1841 22.6348C29.7395 23.0793 28.9616 23.4127 28.6282 23.4127C27.8502 23.4127 27.4056 23.4127 26.6277 23.4127L21.5153 22.1902C20.7373 21.7457 19.5148 22.1902 18.7368 22.6348C17.9589 23.0793 17.1809 23.8573 16.7363 24.6353L11.6239 33.6375C11.1794 34.4155 10.846 35.1935 11.1794 36.416C11.1794 37.194 11.6239 38.4165 12.4019 38.7499L15.9584 42.6397C16.4029 43.0843 16.7363 43.8623 16.7363 44.1957C16.7363 44.9737 17.1809 45.4182 16.7363 46.1962C16.7363 47.4187 16.2918 48.9746 16.2918 50.086C16.2918 51.3086 16.2918 52.8645 16.7363 53.9759C16.7363 54.7538 16.7363 55.1984 16.7363 55.9764C16.7363 56.7543 16.2918 57.1989 15.9584 57.5323L12.4019 61.4222C11.6239 62.2002 11.1794 62.9781 11.1794 63.7561C11.1794 64.534 11.1794 65.7566 11.6239 66.5345L16.7363 75.5368C17.1809 76.3147 17.9589 77.0927 18.7368 77.5373C19.5148 77.9818 20.7373 77.9818 21.5153 77.9818L26.1831 76.7593C26.9611 76.7593 27.4056 76.7593 28.1836 76.7593C28.9616 76.7593 29.4061 77.2039 29.7396 77.5373C31.74 79.0932 34.074 80.3158 36.7413 81.4271C37.1858 81.8717 37.9638 82.2051 38.2972 82.6496C38.6306 83.0942 39.0752 83.8722 39.0752 84.2056L40.6311 89.318C41.0757 90.0959 41.4091 90.8739 42.1871 91.6519C42.9651 92.0965 43.743 92.4298 44.9656 92.4298H55.5237C56.3017 92.4298 57.5242 91.9853 58.3022 91.6519C59.0802 91.3185 59.5247 90.4293 59.8581 89.318L61.4141 84.2056C61.4141 83.4276 61.8586 82.9831 62.192 82.6496C62.5255 82.3162 62.97 81.8717 63.748 81.4271C66.0819 80.2046 68.4158 79.0932 70.7497 77.5373C71.1943 77.0927 71.9722 76.7593 72.3057 76.7593C73.0836 76.7593 73.5282 76.7593 74.3062 76.7593L79.4185 77.9818C80.1965 78.4264 81.419 77.9818 82.197 77.5373C82.975 77.0927 83.7529 76.3147 84.1975 75.5368L89.3099 66.5345C89.7544 65.7566 90.0878 64.9786 89.7544 63.7561C89.7544 62.9781 89.3099 61.7556 88.5319 61.4222L84.9755 57.5323C84.5309 57.0878 84.1975 56.3098 84.1975 55.9764C84.1975 55.1984 83.7529 54.7538 84.1975 53.9759C84.0864 52.8645 84.0864 51.642 84.0864 50.086Z" fill="white"/>
<path d="M84.0863 75.8701L89.1987 66.8679C89.6433 66.0899 89.9767 65.3119 89.6433 64.0894C89.6433 63.3114 89.1987 62.0889 88.4208 61.7555L84.8643 57.8656C84.4198 57.4211 84.0863 56.6431 84.0863 56.3097C84.0863 55.5317 83.6418 55.0871 84.0863 54.3092C84.0863 53.0866 84.5309 51.5307 84.5309 50.4193C84.5309 49.3079 84.5309 47.6408 84.0863 46.5295C84.0863 45.7515 84.0863 45.3069 84.0863 44.529C84.0863 43.751 84.5309 43.3065 84.8643 42.973L88.4208 39.0832C89.1987 38.3052 89.6433 37.5272 89.6433 36.7493C89.6433 35.9713 89.6433 34.7488 89.1987 33.9708L84.0863 24.9686C83.6418 24.9686 83.3084 24.9686 82.8638 24.9686L77.7514 26.1911C76.9735 26.1911 76.5289 26.1911 75.7509 26.1911C74.973 26.1911 74.5284 25.7465 74.195 25.4131C73.417 24.9686 72.6391 24.1906 71.8611 23.8572C71.4165 23.8572 70.6386 23.4126 70.3051 23.0792L69.5272 22.3012C68.7492 21.8567 67.9712 21.5233 67.5267 21.0787C66.7487 20.6342 66.3042 20.3007 65.9707 19.8562C65.1928 19.4116 64.4148 19.0782 63.9702 18.6337C63.5257 18.1891 62.7477 17.8557 62.4143 17.4111C61.9697 16.9666 61.6363 16.1886 61.6363 15.8552L60.0804 10.7428C60.0804 10.2983 59.6358 10.2983 59.6358 9.96484H49.0777C48.2997 9.96484 47.0772 10.4094 46.2992 10.7428C45.5212 11.1874 45.0767 11.9654 44.7433 13.0767L43.1873 18.1891C43.1873 18.9671 42.7428 19.4117 42.4093 19.7451C41.9648 20.1896 41.6314 20.523 40.8534 20.9676C38.5195 22.1901 36.1856 23.3015 34.1851 24.8574C33.7405 25.302 32.9626 25.6354 32.6291 25.6354C31.8512 25.6354 31.4066 25.6354 30.6286 25.6354L25.5163 24.4129C24.7383 23.9683 23.5158 24.4129 22.7378 24.8574C21.9598 25.302 21.1819 26.08 20.7373 26.8579L15.6249 35.8602C15.1804 36.6381 14.847 37.4161 15.1804 38.6386C15.1804 39.4166 15.6249 40.6391 16.4029 40.9725L19.9593 44.8624C20.4039 45.3069 20.7373 46.0849 20.7373 46.4183C20.7373 47.1963 21.1819 47.6409 20.7373 48.4188C20.7373 49.6414 20.2928 51.1973 20.2928 52.3087C20.2928 53.5312 20.2927 55.0871 20.7373 56.1985C20.7373 56.9765 20.7373 57.421 20.7373 58.199C20.7373 58.977 20.2928 59.4216 19.9593 59.755L16.4029 63.6448C15.6249 64.4228 15.1804 65.2008 15.1804 65.9787C15.1804 66.7567 15.1804 67.9792 15.6249 68.7572L20.7373 77.7594C21.1819 77.7594 21.5153 77.7594 21.9598 77.7594L25.8497 76.5369C26.6277 76.5369 27.0722 76.5369 27.8502 76.5369C28.6281 76.5369 29.0727 76.9815 29.4061 77.3149C30.1841 77.7594 30.9621 78.5374 31.74 78.8708C32.1846 78.8708 32.9626 79.3154 33.296 79.6488L34.5185 80.4268C35.2965 80.8713 36.0744 81.2048 36.519 81.6493C37.297 81.9827 37.7415 82.4273 38.0749 82.8718C38.8529 83.3164 39.6309 83.6498 40.0754 84.0943C40.52 84.5389 41.298 84.8723 41.6314 85.3169C42.0759 85.7614 42.4093 86.5394 42.4093 86.8728L43.9653 91.9852C43.9653 92.4298 44.4098 92.4298 44.4098 92.7632H54.968C55.746 92.7632 56.9685 92.3186 57.7465 91.9852C58.5245 91.5406 58.969 90.7626 59.3024 89.6512L60.8584 84.5389C60.8584 83.7609 61.3029 83.3163 61.6363 82.9829C61.9698 82.6495 62.4143 82.205 63.1923 81.7604C65.5262 80.5379 67.8601 79.4265 70.194 77.8706C70.6386 77.426 71.4165 77.0926 71.75 77.0926C72.5279 77.0926 72.9725 77.0926 73.7505 77.0926L78.8628 78.3151C79.6408 78.7597 80.8633 78.3151 81.6413 77.8706C82.8638 76.9815 83.6418 76.6481 84.0863 75.8701Z" fill="#CFDCDF"/>
<path d="M67.3037 50.0859C67.3037 53.6423 66.0811 56.7542 64.5252 59.4215C62.5247 62.2 59.8574 64.5339 56.7455 65.6453C53.6336 66.8678 50.0772 67.2012 46.9653 66.4233C43.8534 65.6453 40.7415 64.0893 38.4076 61.7554C36.0737 59.4215 34.5178 56.3096 33.7398 53.1977C32.9618 50.0859 33.2952 46.5294 34.5178 43.4175C35.7403 40.3057 38.0742 37.5272 40.7415 35.6378C43.52 33.6373 46.9653 32.8594 50.0772 32.8594C54.745 32.8594 59.0794 34.8599 62.1913 37.9718C65.4143 41.5282 67.3037 45.8626 67.3037 50.0859Z" fill="white"/>
<path d="M67.3042 50.0859C67.3042 52.4198 66.8597 54.4203 66.0817 56.7543C65.3037 58.7548 64.0812 60.6441 62.5252 62.2C60.9693 63.756 58.9688 64.9785 57.0795 65.7565C55.079 66.5345 52.745 66.979 50.4111 66.979" stroke="#182D55" stroke-width="1.66708" stroke-linecap="round" stroke-linejoin="round"/>
<path d="M33.4062 50.0859C33.4062 45.418 35.4067 41.0836 38.5186 37.9718C41.6305 34.8599 45.9649 32.8594 50.6327 32.8594" stroke="#182D55" stroke-width="1.66708" stroke-linecap="round" stroke-linejoin="round"/>
<path d="M70.4152 22.8613C68.4147 21.3054 66.0808 20.0829 63.7469 18.9715C63.3024 18.5269 62.5244 18.1935 62.191 17.7489C61.7464 17.3044 61.413 16.5264 61.413 16.193L59.8571 11.0806C59.4125 10.3026 59.0791 9.52467 58.3011 8.7467C57.5232 8.30215 56.7452 7.96875 55.5227 7.96875H45.0756C44.2976 7.96875 43.0751 8.41328 42.2972 8.7467C41.5192 9.19126 41.0746 9.96923 40.7412 11.0806" stroke="#182D55" stroke-width="1.66708" stroke-linecap="round" stroke-linejoin="round"/>
<path d="M84.0866 53.9771C84.0866 52.7545 84.5311 51.1986 84.5311 50.0872C84.5311 48.8647 84.5311 47.3088 84.0866 46.1974C84.0866 45.4194 84.0866 44.9749 84.0866 44.1969C84.0866 43.4189 84.5311 42.9743 84.8646 42.6409L88.421 38.7511C89.199 37.9731 89.6435 37.1951 89.6435 36.4172C89.6435 35.6392 89.6435 34.4167 89.199 33.6387L84.0866 24.6365C83.642 23.8585 82.8641 23.0805 82.0861 22.636C81.3081 22.1914 80.0856 22.1914 79.3076 22.1914" stroke="#182D55" stroke-width="1.66708" stroke-linecap="round" stroke-linejoin="round"/>
<path d="M63.8584 81.3213C66.1923 80.0988 68.5262 78.9875 70.8601 77.4315C71.3047 76.987 72.0827 76.6535 72.4161 76.6535C73.194 76.6535 73.6386 76.6535 74.4166 76.6535L79.5289 77.8761C80.3069 78.3206 81.5294 77.8761 82.3074 77.4315C83.0854 76.987 83.8634 76.209 84.3079 75.431L89.4203 66.4288C89.8648 65.6508 90.1983 64.8729 89.8648 63.6503C89.8648 62.8724 89.4203 61.6498 88.6423 61.3164" stroke="#182D55" stroke-width="1.66708" stroke-linecap="round" stroke-linejoin="round"/>
<path d="M29.8506 77.4297C31.8511 78.9856 34.185 80.2081 36.8523 81.3195C37.2969 81.7641 38.0748 82.0975 38.4083 82.5421C38.8528 82.9866 39.1862 83.7646 39.1862 84.098L40.7422 89.2104C41.1867 89.9884 41.5201 90.7663 42.2981 91.5443C43.0761 91.8777 43.8541 92.3223 45.0766 92.3223H55.6348C56.4127 92.3223 57.6353 91.8777 58.4132 91.5443C59.1912 91.0997 59.6358 90.3218 59.9692 89.2104" stroke="#182D55" stroke-width="1.66708" stroke-linecap="round" stroke-linejoin="round"/>
<path d="M16.6243 46.1992C16.6243 47.4217 16.1798 48.9777 16.1798 50.0891C16.1798 51.3116 16.1798 52.8675 16.6243 53.9789C16.6243 54.7569 16.6243 55.2014 16.6243 55.9794C16.6243 56.7574 16.1798 57.202 15.8463 57.5354L12.2899 61.4252C11.5119 62.2032 11.0674 62.9811 11.0674 63.7591C11.0674 64.5371 11.0674 65.7596 11.5119 66.5376L16.6243 75.5398C17.0689 76.3178 17.8468 77.0958 18.6248 77.5403C19.4028 77.9849 20.6253 77.9849 21.4033 77.9849" stroke="#182D55" stroke-width="1.66708" stroke-linecap="round" stroke-linejoin="round"/>
<path d="M36.8524 18.8555C34.5185 20.078 32.1846 21.1894 30.1841 22.7453C29.7395 23.1899 28.9616 23.5233 28.6282 23.5233C27.8502 23.5233 27.4056 23.5233 26.6277 23.5233L21.5153 22.3008C20.7373 21.8562 19.5148 22.3008 18.7368 22.7453C17.9589 23.1899 17.1809 23.9679 16.7363 24.7458L11.6239 33.748C11.1794 34.526 10.846 35.304 11.1794 36.5265C11.1794 37.3045 11.6239 38.527 12.4019 38.8604" stroke="#182D55" stroke-width="1.66708" stroke-linecap="round" stroke-linejoin="round"/>
<path d="M47.8545 28.3047L52.9669 33.4171L47.8545 38.5295" stroke="#182D55" stroke-width="1.66708" stroke-linecap="round" stroke-linejoin="round"/>
<path d="M52.8555 71.9826L47.7432 66.8702L52.8555 61.7578" stroke="#182D55" stroke-width="1.66708" stroke-linecap="round" stroke-linejoin="round"/>
<path d="M44.2983 50.0883H39.9639V45.7539H44.2983" stroke="#182D55" stroke-width="1.66708" stroke-linecap="round" stroke-linejoin="round"/>
<path d="M44.2983 54.7563H39.9639V50.4219H44.2983" stroke="#182D55" stroke-width="1.66708" stroke-linecap="round" stroke-linejoin="round"/>
<path d="M52.5229 45.8633H48.1885V50.1977H52.5229V45.8633Z" stroke="#182D55" stroke-width="1.66708" stroke-linecap="round" stroke-linejoin="round"/>
<path d="M48.1885 54.7563V50.4219H50.9669L52.9674 54.7563" stroke="#182D55" stroke-width="1.66708" stroke-linecap="round" stroke-linejoin="round"/>
<path d="M60.6352 45.8633H56.3008V50.1977H60.6352V45.8633Z" stroke="#182D55" stroke-width="1.66708" stroke-linecap="round" stroke-linejoin="round"/>
<path d="M56.4111 54.7563V50.4219H60.6344" stroke="#182D55" stroke-width="1.66708" stroke-linecap="round" stroke-linejoin="round"/>
</svg>
