<svg class="stop-illustration" id="Layer_2" data-name="Layer 2" xmlns="http://www.w3.org/2000/svg" viewBox="0 0 220.85 180.58" loading="lazy">  <defs>    <style>      .cls-1 {        fill: #fff;      }      .cls-2 {        fill: #cfdcdf;      }      .cls-3 {        fill: #172d55;      }      .cls-4 {        fill: #1baae2;      }      .cls-5, .cls-6, .cls-7, .cls-8 {        fill: none;        stroke-linecap: round;      }      .cls-5, .cls-7, .cls-8 {        stroke: #172d55;      }      .cls-5, .cls-8 {        stroke-miterlimit: 10;      }      .cls-6 {        stroke: #1baae2;      }      .cls-6, .cls-7 {        stroke-linejoin: round;      }      .cls-6, .cls-7, .cls-8 {        stroke-width: 2px;      }    </style>  </defs>  <g id="Layer_1-2" data-name="Layer 1">    <g>      <path class="cls-1" d="m49.99,34.21l5.56,11.41,2.53-1.65,1.01,14.3s-5.91-3.78-9.57.4c-2.52,2.88-1.07,6.89-1.02,10.12s.88,7.17.88,7.17c0,0-5.18,1.33-9.2,3.4-5.39,2.76-12.75,7.28-14.42,14.47-1.68,7.18-2.95,16.93,3.49,28.99,6.44,12.06,14.96,27.72,21.37,33.27,6.41,5.55,18.78,19.13,28.05,20.08,0,0,19.25.7,36.91-7.71,17.65-8.41,20.91-10.41,20.91-10.41,0,0,11.75,4.4,18.02,1.46s15.5-4.33,17.6-20.31c2.1-15.98-2.76-38.39-2.76-38.39l3.79-1.89-16.3-29.54s-4.23.96-3.36-3.09c.87-4.05,2.65-5.35,1.57-8.17-.94-2.45-1.38-3.23-6.32-2.47-.48.07-1.45-2.31-3.47-2.62-2.32-.37-5.11.19-6.62,2.91l-5.1-6.23-4.15-2.95-1.12,2.03,1.8,6.13,2.51,6.56-3.08,2.22-1.22,3.42,1.8,6.2s-1.61,1.07-2.32,3.54c-.71,2.47.03,9.17.03,9.17l2.43,5.34-2.24,2.92-2.33,2.31s-1.3-3.81-3.99-7.33c-2.68-3.51-9.35-11.14-13.76-13.19-4.41-2.05-10.76-4.64-14.17-4.14-3.41.5-5.17-.05-5.17-.05,0,0-1.06-5.82-3.81-7.35-2.75-1.53-.83-1.12-.83-1.12,0,0,3.88-.24,5.59-1.84,1.7-1.61,3.81-1.23,4.87-7.02,1.06-5.79,2.82-11.56,2.47-18.44-.35-6.88-.68-9.79-.68-9.79l-5.42-9.12-23.44-6.25"></path>      <path class="cls-1" d="m147.26,110.8l-.49-4.72c-.1-1.02-1.11-1.7-2.12-1.44l-9.76,2.42c-2.82.7-5.8-.34-7.52-2.62-.62-.83-1.25-1.78-1.79-2.84-1.41-2.76-.74-6.11,1.59-8.2l57.75-51.77c4.52-4.05,11.25-4.65,16.43-1.45,10.03,6.19,23.33,19.54,16.72,44.99-1.34,5.18-5.69,9.09-11.1,9.91l-47.43,7.19c-2.59.39-4.58,2.46-4.81,5l-.23,2.57"></path>      <path class="cls-2" d="m44.39,147.6s10.57,23.69,22.64,30.38c12.08,6.69,37.99-.54,49.72-10.48,0,0-23.26,10.64-38.85,7.76-15.6-2.88-33.51-27.66-33.51-27.66h0Z"></path>      <path class="cls-2" d="m147.94,111.12l-1.16-1.02c-.1-1.02-1.11-1.7-2.12-1.44l-9.76,2.42c-2.82.7-5.8-.34-7.52-2.62-.62-.83-1.25-1.78-1.79-2.84-1.42-2.76-.74-6.11,1.59-8.2l57.75-51.77c4.52-4.05,11.25-4.65,16.43-1.45,10.03,6.19,23.33,19.54,16.72,44.99-1.34,5.18-5.69,9.09-11.1,9.91l-47.43,7.19c-2.59.39-5.99,2.63-6.22,5.18l-3.94.48"></path>      <path class="cls-2" d="m62.76,29.34s8.55-3.07,8.9-7.95c0,0,15.6,10.99,21.31,7.16,5.72-3.84-4.47-12.22-4.47-12.22l-10.55-4.35h-14.43"></path>      <path class="cls-4" d="m52.65,16.52s-1.36-17.63-13.62-15.52C26.76,3.12,1.86,33.31,1.86,33.31l16.76,9.19,4.81-5.49-1.86,6.95,11.01,4.82s12.76-24.99,14.46-24.54"></path>      <path class="cls-4" d="m96.31,33.31s5.62-1.46,7.94-6.43c2.3-4.93-13.34-29.39-41.43-18.61-.48.18-.85.59-1.36.69-2.25.45-10.06,2.71-15.41,16.54-3.5,9.04,6.25,19.42,10.59,23.47.83.77,1.66,2.14,2.4-.79l.71-4.22s-8.94-3.29-4.53-10.38c2.74-4.4,6.96,2.18,6.96,2.18l1.05-5.01s6.53-7.2,7.61-14.43c0,0,11.32,9.92,24.49,8.74,0,0,1.6,2.8,1,13.32"></path>      <g>        <path class="cls-7" d="m52.05,16.75S50.81-.94,38.55,1.18C26.29,3.29,1,33.74,1,33.74l16.76,9.19,4.81-5.49-1.86,6.95,11.56,5.06s13.42-25.58,15.12-25.12"></path>        <path class="cls-7" d="m47.61,24.32s-1.22-.66-2.42,1.6c-3.5,9.04,6.25,19.42,10.59,23.47.83.77,1.52.34,1.71-.77l.71-4.22s-8.24-3.31-3.84-10.4c2.74-4.4,6.96,2.18,6.96,2.18l1.05-5.01s6.53-7.2,7.61-14.43c0,0,11.32,9.92,24.49,8.74,0,0,1.6,2.8,1,13.32"></path>        <path class="cls-7" d="m95.46,33.74s5.62-1.63,7.94-6.59c.69-1.48,0-3.53-.54-4.95-1-2.61-2.6-5.01-4.46-7.09-2.36-2.65-5.23-4.85-8.41-6.43-3.85-1.91-8.11-2.88-12.4-2.97-2.58-.05-5.17.2-7.71.69-3.4.66-6.78,1.54-9.79,3.3s-5.48,3.8-7.65,6.38c-.13.15-.26.31-.38.46"></path>      </g>      <path class="cls-7" d="m59.75,43.97s-8.94-3.29-4.53-10.38c2.74-4.4,6.95,2.18,6.95,2.18"></path>      <path class="cls-8" d="m95.35,25.44s2.16,12.56,0,24.99c-1.77,10.19-6.68,13.15-13.34,12.91-4.65-.17-9.1-1.83-12.89-4.45-1.2-.83-2.43-1.78-3.55-2.84"></path>      <path class="cls-3" d="m73.25,37.12c.85,0,1.54-.67,1.54-1.5s-.69-1.5-1.54-1.5-1.54.67-1.54,1.5.69,1.5,1.54,1.5Z"></path>      <path class="cls-3" d="m89.94,38.42c.79,0,1.43-.63,1.43-1.4s-.64-1.4-1.43-1.4-1.43.63-1.43,1.4.64,1.4,1.43,1.4Z"></path>      <path class="cls-5" d="m76.98,32.06c-1.31-.81-2.87-1.15-5.19-.07"></path>      <path class="cls-6" d="m76.67,46.7c1.16,1.4,2.79,2.37,5.83,2.03"></path>      <path class="cls-5" d="m59.04,39.46c.26-1.09.14-2.23-1.19-3.55"></path>      <path class="cls-5" d="m92.98,33.31c-1.31-.81-2.87-1.15-5.19-.07"></path>      <path class="cls-5" d="m84.42,37.15l.68,5.18c.14,1.28-.88,2.4-2.21,2.4h-1.42"></path>      <path class="cls-8" d="m62.17,4.08s-1.34,2.17.04,4.14"></path>      <path class="cls-8" d="m56.24,7.51s.2,1.26,2.24,2.56"></path>      <path class="cls-7" d="m100.73,24.28s-16.03,4.63-29.9-7.95c0,0-2.89,11.68-8.66,15.18"></path>      <path class="cls-3" d="m80.51,63.68l-14.02-6.42c.18.05-.16,12.29,14.02,15.16,0,0-.02-6.51,0-8.74Z"></path>      <path class="cls-8" d="m80.51,72.41v-9.06"></path>      <path class="cls-8" d="m54.79,63.42s8.09,9.33,19.72,10.01c15.59.91,9.92-8.02,9.92-8.02"></path>      <path class="cls-8" d="m54.79,57.26s-7.77-.47-6.84,6.09c.93,6.57-1.4,8.61.7,11.33,2.09,2.72,17.6,14.53,30.09,11.35,12.49-3.18,10.74-13.62,10.74-13.62,0,0,18.7-7.04,35.37,22.25"></path>      <path class="cls-8" d="m68.65,86.57s8.71,11.96,10.71,27.89c.16,1.26,1.34,2.14,2.63,1.97,4.05-.54,12.13-2.14,15.59-6.51.44-.55.58-1.27.4-1.94-1.02-3.84-4.99-17.78-9.88-22.85"></path>      <path class="cls-8" d="m82.04,120.3v1.61"></path>      <path class="cls-8" d="m86.3,119.5v1.61"></path>      <path class="cls-8" d="m90.56,117.89v1.61"></path>      <path class="cls-8" d="m94.81,116.29v1.6"></path>      <path class="cls-8" d="m99.08,113.42v1.61"></path>      <path class="cls-8" d="m139.03,120.3c-1.77-1.96-3.63-3.12-5.43-3.21-4.82-.21-34.18,13.15-44.72,18.03-2.22,1.03-4.86.43-6.4-1.43l-23.38-28.35"></path>      <path class="cls-8" d="m42.98,77.18s-24.51,7.26-18.93,32.08c5.59,24.82,37.56,65.68,58.45,65.99,23.41.34,67.24-19.37,65.38-32.69-.21-1.46-.47-2.91-.77-4.32"></path>      <path class="cls-8" d="m134.06,126.22s1.41,10.24,7.57,15.83"></path>      <path class="cls-8" d="m134.53,126.22c.16-.27,7.76-4.54,8.07-8.33.31-3.79,2.49-8.63,6.52-6.06"></path>      <path class="cls-8" d="m160.55,122.57c-1.98,1.3-3.49,3.17-4.31,5.36-.88,2.34-2.36,5.28-4.49,6.2-3.72,1.62-10.13,6.85-10.13,6.85"></path>      <path class="cls-8" d="m160.56,117.06c-1.38.25-2.64.92-3.61,1.91"></path>      <path class="cls-8" d="m158.76,112.98c-1.38.25-2.64.92-3.61,1.91"></path>      <path class="cls-8" d="m156.95,108.9c-1.38.24-2.64.92-3.61,1.91"></path>      <path class="cls-8" d="m147.26,110.8l-.49-4.72c-.1-1.02-1.11-1.7-2.12-1.44l-9.76,2.42c-2.82.7-5.8-.34-7.52-2.62-.62-.83-1.25-1.78-1.79-2.84-1.41-2.76-.74-6.11,1.59-8.2l57.75-51.77c4.52-4.05,11.25-4.65,16.43-1.45,10.03,6.19,23.33,19.54,16.72,44.99-1.34,5.18-5.69,9.09-11.1,9.91l-47.43,7.19c-2.59.39-4.58,2.46-4.81,5l-.23,2.57"></path>      <path class="cls-8" d="m206.89,81.8c-7.56-4.67-17.59-14.73-12.61-33.92"></path>      <path class="cls-8" d="m114.64,102.31s4.37,9.82,4.22,19.3"></path>      <path class="cls-8" d="m135.8,157.81s25.73,9.27,33.88-10.48c8.15-19.75-.35-46.54-.35-46.54"></path>      <path class="cls-8" d="m129.41,90.47s-6.86-10.74-.76-16.97"></path>      <path class="cls-8" d="m134.06,112.6s-.46-3.07-1.03-4.65"></path>      <path class="cls-8" d="m146.63,75.96c-11.76,6.51-14.42,2.53-14.42,2.53,0,0-2.83-4.62-4.44-10.61-1.61-5.98,3.98-7.05,6.93-6.89,2.95.15.47,3.85.47,3.85,0,0,4.03.71,4.03,3.04"></path>      <path class="cls-8" d="m131.78,60.57c.31-.2-6.58-14.19-3.18-14.72,3.39-.53,8.54,10.21,8.54,10.21,0,0,2.26-4.11,5.14-2.21,2.88,1.91,1.85,8.73,0,8.33"></path>      <path class="cls-8" d="m147.82,55.95s2.37,2.24,0,6.24"></path>      <path class="cls-8" d="m153.45,56.55s2.37,2.24,0,6.24"></path>    </g>  </g></svg>