<svg width="164" height="92" viewBox="0 0 164 92" fill="none" xmlns="http://www.w3.org/2000/svg">
<path d="M54.1527 44.0152H39.9995C39.1908 44.0152 38.5746 44.8496 38.8634 45.6257L42.2717 54.5127C42.4258 54.9008 42.1177 55.3277 41.694 55.3083L37.3422 55.0366C37.1496 55.0172 36.957 55.1142 36.8415 55.2889L33.4524 60.1204C33.2791 60.3921 32.9133 60.4891 32.6244 60.2951L27.6179 56.8606C27.4253 56.7247 27.1557 56.7247 26.9631 56.8606L20.031 61.5951C19.5881 61.9056 18.9911 61.4787 19.1452 60.9548L21.0708 53.9888C21.1478 53.6977 21.013 53.4067 20.7242 53.2903L17.0463 51.7767C16.6804 51.6215 16.5649 51.1752 16.8152 50.8648L20.0695 46.8288C20.2235 46.6347 20.2428 46.3437 20.0887 46.1302L17.3544 42.1524C17.104 41.7837 17.3351 41.2792 17.7973 41.2404L22.0336 40.9106C22.3417 40.8912 22.592 40.6195 22.5728 40.2896L22.2454 34.3132C22.2262 33.8864 22.6498 33.5759 23.0542 33.7311L28.3111 35.9238C28.5421 36.0208 28.8117 35.9626 28.9658 35.7685L32.5859 31.6937C32.8748 31.3639 33.3947 31.4609 33.568 31.8489L35.7439 37.4955C36.0328 38.194 36.8993 38.4463 37.5155 37.9806L46.0267 31.5967C46.9895 30.8788 46.3733 29.3264 45.1794 29.5011L39.5759 30.2578C39.3063 30.2966 39.056 30.1414 38.9597 29.8892L36.0135 22.2634C35.6861 21.4679 34.6656 21.2738 34.0879 21.9142L27.6756 28.919C27.5023 29.0936 27.252 29.1518 27.0209 29.0548L18.5868 25.4651C17.8358 25.1546 17.0078 25.6785 16.9692 26.5129L16.6611 35.2834C16.6419 35.5939 16.4108 35.8267 16.122 35.8462L8.41955 36.3507C7.51451 36.4089 7.03311 37.4373 7.53377 38.1746L12.6559 45.7809C12.8099 45.9944 12.7907 46.2854 12.6174 46.4989L7.41823 52.5141C6.89832 53.1156 7.11014 54.047 7.84187 54.3575L13.8113 56.9576C14.0808 57.074 14.2156 57.3651 14.1386 57.6367L10.3259 72.6553C10.0563 73.7226 11.2502 74.5375 12.136 73.8972L26.4625 63.5355C26.655 63.3997 26.9246 63.3803 27.1365 63.5355L33.6643 68.1536C34.2034 68.5417 34.9352 68.3865 35.301 67.8432L39.3833 61.5369C39.4989 61.3429 39.7299 61.2459 39.9417 61.2847L49.7046 62.4683C50.4941 62.5847 51.2836 61.925 50.9947 61.1876L46.9317 50.5931C46.8162 50.3021 46.9317 49.9916 47.2783 49.817L54.6919 46.2854C55.7895 45.7227 55.4044 44.0152 54.1527 44.0152Z" fill="#8039E9"/>
<path d="M155.691 44.034H144.696C144.484 44.034 144.291 44.2087 144.291 44.4415V49.3507C144.291 49.5641 144.465 49.7582 144.696 49.7582H149.394C149.625 49.7582 149.799 49.9328 149.799 50.1657C149.76 52.6882 149.24 57.2287 144.696 57.2287C140.979 57.2287 139.497 52.7076 139.497 47.4103C139.497 41.1234 141.037 37.2427 144.484 37.2427C146.987 37.2427 147.815 39.3771 148.046 40.1727C148.104 40.3473 148.258 40.4637 148.431 40.4637H154.15C154.382 40.4637 154.574 40.2697 154.555 40.0368C154.324 36.8934 151.647 31.3827 144.599 31.3827C139.67 31.3827 135.048 34.4097 133.566 41.8802V32.2365C133.566 32.12 133.469 32.0424 133.373 32.0424H127.327C127.211 32.0424 127.134 32.1394 127.134 32.2365V49.4283C127.134 49.6418 126.845 49.7 126.749 49.5059L118.816 32.1394C118.777 32.0618 118.719 32.023 118.642 32.023H113.289C113.174 32.023 113.097 32.12 113.097 32.2171V41.8608C111.113 35.7486 105.721 31.3633 98.7122 31.3633C90.8943 31.3633 85.0982 36.8158 83.7695 44.0534H72.8128C72.6973 44.0534 72.6203 44.1505 72.6203 44.2475V49.5641C72.6203 49.6806 72.7166 49.7582 72.8128 49.7582H77.9157C78.0312 49.7582 78.1082 49.8552 78.1082 49.9522C78.089 52.4165 77.6654 57.2093 72.9861 57.2093C69.2697 57.2093 67.787 52.6882 67.787 47.3909C67.787 41.104 69.3275 37.2233 72.7743 37.2233C75.4317 37.2233 76.2019 39.6487 76.3752 40.2891C76.3945 40.3861 76.4715 40.4443 76.5678 40.4443H82.6527C82.7682 40.4443 82.8645 40.3473 82.8452 40.2309C82.7297 37.1262 80.0916 31.3633 72.8706 31.3633C66.882 31.3633 61.3555 35.8262 61.3555 47.3327C61.3555 55.2495 64.4364 63.0693 72.9669 63.0693C79.2829 63.0693 83.3266 58.1407 84.2124 52.2225C86.1188 58.5287 91.5682 63.0693 98.7122 63.0693C105.606 63.0693 111.094 58.6646 113.097 52.5135V62.2543C113.097 62.3707 113.193 62.4483 113.289 62.4483H119.336C119.451 62.4483 119.528 62.3513 119.528 62.2543V45.3341C119.528 45.1206 119.817 45.0624 119.913 45.2565L127.847 62.3513C127.885 62.4289 127.943 62.4677 128.02 62.4677H133.373C133.489 62.4677 133.566 62.3707 133.566 62.2737V52.6105C134.74 58.4123 138.072 63.1081 144.676 63.1081C151.878 63.1081 156.115 56.7242 156.115 49.7388V44.4997C156.095 44.2087 155.903 44.034 155.691 44.034ZM98.6737 56.7242C93.5901 56.7242 90.0663 52.7852 90.0663 47.2163C90.0663 41.6473 93.5901 37.7084 98.6737 37.7084C103.738 37.7084 107.281 41.6473 107.281 47.2163C107.281 52.7852 103.738 56.7242 98.6737 56.7242Z" fill="#3E0075"/>
</svg>
