<svg width="101" height="101" viewBox="0 0 101 101" fill="none" xmlns="http://www.w3.org/2000/svg">
<path d="M13.3367 61.9565C12.0116 61.9565 11.1684 61.4746 10.3251 60.6314C9.48187 59.7881 9 58.9449 9 57.6198V15.3367C9 14.0116 9.48187 13.1684 10.3251 12.3251C11.1684 11.4819 12.0116 11 13.3367 11H87.6633C88.9884 11 89.8317 11.4819 90.6749 12.3251C91.5182 13.1684 92 14.0116 92 15.3367V57.9811C92 59.3062 91.5182 60.1495 90.6749 60.9927C89.8317 61.836 88.9884 62.3179 87.6633 62.3179H62.3658" fill="white"/>
<path d="M13.3367 61.9565C12.0116 61.9565 11.1684 61.4746 10.3251 60.6314C9.48187 59.7881 9 58.9449 9 57.6198V15.3367C9 14.0116 9.48187 13.1684 10.3251 12.3251C11.1684 11.4819 12.0116 11 13.3367 11H87.6633C88.9884 11 89.8317 11.4819 90.6749 12.3251C91.5182 13.1684 92 14.0116 92 15.3367V57.9811C92 59.3062 91.5182 60.1495 90.6749 60.9927C89.8317 61.836 88.9884 62.3179 87.6633 62.3179H62.3658" stroke="#182D55" stroke-width="1.80697" stroke-linecap="round" stroke-linejoin="round"/>
<path d="M36.5875 91.9515C48.0316 91.9515 57.3074 82.6757 57.3074 71.2316C57.3074 59.7875 48.0316 50.5117 36.5875 50.5117C25.1434 50.5117 15.8676 59.7875 15.8676 71.2316C15.5062 82.6757 24.782 91.9515 36.5875 91.9515Z" fill="white"/>
<path d="M91.5159 58.582V29.791C91.5159 28.9477 91.034 28.1045 90.6727 27.2612C89.8294 26.418 88.9861 26.418 88.1429 26.418H27.3084C26.4651 26.418 25.14 26.418 24.2967 26.8999C23.4535 27.3817 22.6102 27.7431 21.767 28.5864C20.9237 29.4296 20.4419 30.2729 20.0805 31.1161C19.5986 31.9594 19.5986 33.2845 19.5986 34.1277V58.582C19.5986 59.4252 20.0805 60.2685 20.4419 61.1118C21.2851 61.955 22.1284 61.955 22.9716 61.955H87.661C88.5043 61.955 89.3475 61.4731 90.1908 61.1118C91.1545 60.6299 91.5159 59.4252 91.5159 58.582Z" fill="#CFDCDF"/>
<path d="M39.1145 91.9517C48.8721 91.9517 56.8228 83.8806 56.8228 74.2434C56.8228 64.6063 48.7517 56.5352 39.1145 56.5352C29.3569 56.5352 21.4062 64.6063 21.4062 74.2434C21.4062 83.8806 29.4773 91.9517 39.1145 91.9517Z" fill="#CFDCDF"/>
<path d="M61.5208 47.5026C65.3757 47.5026 68.7487 44.491 68.7487 40.2747C68.7487 36.4199 65.7371 33.0469 61.5208 33.0469C57.3046 33.0469 54.293 36.0585 54.293 40.2747C54.293 44.491 57.7864 47.5026 61.5208 47.5026Z" stroke="#182D55" stroke-width="1.80697" stroke-linecap="round" stroke-linejoin="round"/>
<path d="M36.5875 91.9515C48.0316 91.9515 57.3074 82.6757 57.3074 71.2316C57.3074 59.7875 48.0316 50.5117 36.5875 50.5117C25.1434 50.5117 15.8676 59.7875 15.8676 71.2316C15.5062 82.6757 24.782 91.9515 36.5875 91.9515Z" stroke="#182D55" stroke-width="1.80697" stroke-linecap="round" stroke-linejoin="round"/>
<path d="M70.9193 47.5026C74.7741 47.5026 78.1471 44.491 78.1471 40.2747C78.1471 36.4199 75.1355 33.0469 70.9193 33.0469C66.703 33.0469 63.6914 36.0585 63.6914 40.2747C63.6914 44.491 67.0644 47.5026 70.9193 47.5026Z" stroke="#182D55" stroke-width="1.80697" stroke-linecap="round" stroke-linejoin="round"/>
<path d="M34.0589 22.2031H21.4102C20.5669 22.2031 19.7236 23.0464 19.7236 23.8897V31.1175C19.7236 31.9608 20.5669 32.804 21.4102 32.804H34.0589C34.9022 32.804 35.7454 31.9608 35.7454 31.1175V23.8897C35.7454 23.0464 34.9022 22.2031 34.0589 22.2031Z" stroke="#182D55" stroke-width="1.80697" stroke-linecap="round" stroke-linejoin="round"/>
<path d="M29.4795 72.0767L33.3344 75.9315L43.4534 65.8125" stroke="#182D55" stroke-width="1.80697" stroke-linecap="round" stroke-linejoin="round"/>
<path d="M25.263 26.0586C24.7812 26.0586 24.7812 26.0586 24.4198 26.0586C23.9379 26.0586 23.9379 26.5404 23.9379 26.5404L23.4561 27.0223C23.4561 27.5042 23.4561 27.5042 23.4561 27.8656V32.9251H34.0569C34.5388 32.9251 34.9002 32.9251 35.382 32.4432C35.8639 32.0818 35.8639 31.6 35.8639 31.1181V26.0586H25.263Z" fill="#182D55"/>
<path d="M63.6914 40.7562C63.6914 41.5995 64.1733 42.9246 64.1733 43.7678C64.6552 44.6111 65.0165 45.4543 65.8598 46.2976C66.703 45.4543 67.1849 44.9725 67.5463 43.7678C67.9077 42.9246 67.9077 42.0813 67.9077 40.7562C67.9077 39.4311 67.9077 38.5879 67.5463 37.7446C67.0644 36.9014 66.703 36.0581 65.8598 35.2148C65.0165 36.0581 64.5347 36.54 64.1733 37.7446C64.0528 38.7083 63.6914 39.5516 63.6914 40.7562Z" fill="#182D55"/>
</svg>
