<svg width="101" height="101" viewBox="0 0 101 101" fill="none" xmlns="http://www.w3.org/2000/svg">
<g clip-path="url(#clip0_113_1252)">
<path d="M35.0722 32.4023L51.1444 41.6806V60.2499L35.0722 69.5281L19 60.2499V41.6806L35.0722 32.4023Z" fill="white" stroke="#182D55" stroke-width="1.5" stroke-linecap="round" stroke-linejoin="round"/>
<path d="M35.0225 28.5857V15.1373C35.0225 12.2727 37.342 9.95312 40.2066 9.95312H77.8521C80.7167 9.95312 83.0363 12.2727 83.0363 15.1373V86.3088C83.0363 89.1734 80.7167 91.493 77.8521 91.493H40.2066C37.342 91.493 35.0225 89.1734 35.0225 86.3088V74.825" fill="white"/>
<path d="M78.3339 14.4766H41.5504C40.3842 14.4766 39.4336 15.4272 39.4336 16.5933V34.5795L51 42V60L39.4336 66.9394V90.4773C39.4336 91.6054 40.3462 92.518 41.4743 92.518H77.2185C80.438 92.518 83.0364 89.9069 83.0364 86.7001V19.1918C83.0364 16.5933 80.9323 14.4766 78.3212 14.4766H78.3339Z" fill="#CFDCDF"/>
<path d="M51.0936 41.6806L35.0214 32.4023L18.9492 41.6806L30.6358 48.4365" stroke="#182D55" stroke-width="1.5" stroke-linecap="round" stroke-linejoin="round"/>
<path d="M35.0225 69.5272L51.0947 60.2489V41.6797" stroke="#182D55" stroke-width="1.5" stroke-linecap="round" stroke-linejoin="round"/>
<path d="M35.0225 50.9706L51.0947 41.6797" stroke="#182D55" stroke-width="1.5" stroke-linecap="round" stroke-linejoin="round"/>
<path d="M35.0225 50.9688V69.5253" stroke="#182D55" stroke-width="1.5" stroke-linecap="round" stroke-linejoin="round"/>
<path d="M35.0225 28.5857V15.1373C35.0225 12.2727 37.342 9.95312 40.2066 9.95312H77.8521C80.7167 9.95312 83.0363 12.2727 83.0363 15.1373V86.3088C83.0363 89.1734 80.7167 91.493 77.8521 91.493H40.2066C37.342 91.493 35.0225 89.1734 35.0225 86.3088V74.825" stroke="#182D55" stroke-width="1.5" stroke-linecap="round" stroke-linejoin="round"/>
<path d="M59.4335 52.6151C58.3815 52.6151 57.5322 51.7658 57.5322 50.7138C57.5322 49.6617 58.3815 48.8125 59.4335 48.8125C60.4856 48.8125 61.3348 49.6617 61.3348 50.7138C61.3348 51.7658 60.4856 52.6151 59.4335 52.6151Z" fill="#182D55"/>
<path d="M67.1161 52.6151C66.0641 52.6151 65.2148 51.7658 65.2148 50.7138C65.2148 49.6617 66.0641 48.8125 67.1161 48.8125C68.1682 48.8125 69.0174 49.6617 69.0174 50.7138C69.0174 51.7658 68.1682 52.6151 67.1161 52.6151Z" fill="#182D55"/>
<path d="M74.7851 52.6151C73.733 52.6151 72.8838 51.7658 72.8838 50.7138C72.8838 49.6617 73.733 48.8125 74.7851 48.8125C75.8371 48.8125 76.6864 49.6617 76.6864 50.7138C76.6864 51.7658 75.8371 52.6151 74.7851 52.6151Z" fill="#182D55"/>
</g>
<defs>
<clipPath id="clip0_113_1252">
<rect width="66" height="83.5172" fill="white" transform="translate(18 9)"/>
</clipPath>
</defs>
</svg>
