<svg width="165" height="92" viewBox="0 0 165 92" fill="none" xmlns="http://www.w3.org/2000/svg">
<mask id="mask0_60_2466" style="mask-type:luminance" maskUnits="userSpaceOnUse" x="29" y="9" width="107" height="73">
<path d="M135.092 9.60156H29.9062V81.5168H135.092V9.60156Z" fill="white"/>
</mask>
<g mask="url(#mask0_60_2466)">
<mask id="mask1_60_2466" style="mask-type:luminance" maskUnits="userSpaceOnUse" x="29" y="9" width="107" height="73">
<path d="M135.094 9.59766H29.9082V81.5129H135.094V9.59766Z" fill="white"/>
</mask>
<g mask="url(#mask1_60_2466)">
<path d="M67.9746 36.6455C67.9356 36.6593 67.8955 36.6593 67.8555 36.672C67.9092 36.6583 67.9492 36.6583 67.9893 36.6583L67.9756 36.6445L67.9746 36.6455Z" fill="#120F10"/>
<path d="M113.146 26.1355C113.134 25.7426 113.294 25.4783 113.618 25.3879C114.468 25.1512 116.406 24.6698 116.89 24.5431C117.452 24.3957 117.749 24.547 117.975 25.1522C118.561 26.727 124.462 42.918 124.462 42.918C124.462 42.918 124.427 26.2809 124.42 23.1235C124.42 22.7757 124.624 22.59 124.947 22.5006C125.745 22.2796 126.968 21.9967 127.489 21.8542C127.973 21.7186 128.308 21.7835 128.308 22.4908C128.31 31.9652 128.31 40.685 128.31 50.1594C128.31 50.7989 128.312 50.7989 127.743 50.9531C127.175 51.1074 125.293 51.574 124.614 51.7587C124.012 51.9218 123.853 51.7803 123.69 51.4031C122.021 47.4961 117.028 33.5969 117.028 33.5969C117.028 33.5969 117.03 50.1319 117.042 52.8502C117.045 53.5831 116.972 53.6695 116.331 53.8542C116.173 53.8994 114.641 54.3002 113.926 54.5006C113.441 54.6362 113.129 54.5055 113.129 53.9583C113.129 53.4111 113.145 26.1375 113.145 26.1375" fill="#120F10"/>
<path d="M134.43 10.0875C134.356 10.1818 134.286 10.282 134.205 10.3714C132.496 12.2792 130.79 14.188 129.071 16.086C128.937 16.2344 128.729 16.3493 128.536 16.3975C122.692 17.874 116.846 19.3398 111.001 20.8095C103.854 22.6063 96.7072 24.408 89.5602 26.2058C78.7982 28.9124 68.0351 31.6169 57.2731 34.3225C56.3998 34.5425 55.5286 34.7636 54.6553 34.9817C54.5762 35.0013 54.4942 35.0062 54.4004 34.9581C81.0564 26.6381 107.714 18.3171 134.371 9.99609C134.391 10.0265 134.411 10.057 134.43 10.0875Z" fill="#120F10"/>
<path d="M68.4701 71.3696C67.4572 72.4974 66.4452 73.6262 65.4304 74.753C64.5884 75.6873 63.7503 76.6284 62.8898 77.545C62.7394 77.7051 62.4893 77.8299 62.2725 77.8535C58.6653 78.2465 55.0561 78.6227 51.4469 78.999C47.3972 79.4204 43.3466 79.833 39.2969 80.2565C36.6538 80.5335 34.0135 80.8272 31.3694 81.0974C30.9309 81.1426 30.4854 81.1043 30.0293 81.0542C42.8289 77.7995 55.6275 74.5467 68.4271 71.293C68.4418 71.3185 68.4554 71.3441 68.4701 71.3686" fill="#120F10"/>
<path d="M75.8513 71.8782L75.864 71.6768C75.864 71.386 75.7849 71.1964 75.612 71.0824C75.4401 70.9685 75.1871 70.9567 74.855 71.0323C74.5083 71.108 74.2563 71.2465 74.0697 71.4361C73.8841 71.6129 73.804 71.8026 73.804 72.0295C73.804 72.2073 73.8831 72.3331 74.0697 72.4087C74.2826 72.5099 74.6274 72.5728 75.067 72.6111C75.9715 72.6739 76.6357 72.8636 77.0488 73.1799C77.4874 73.508 77.6994 74.0012 77.6994 74.6329C77.6994 75.3147 77.4337 75.9218 76.9297 76.4385C76.4237 76.9445 75.7331 77.2981 74.8951 77.4878C74.563 77.5771 74.2436 77.6145 73.9378 77.6145C73.6985 77.6145 73.4729 77.5889 73.2599 77.5388C72.7677 77.4259 72.3691 77.1979 72.1035 76.8698C71.8378 76.5289 71.7049 76.0996 71.7176 75.5809V75.4551L73.5657 75.0258V75.2272C73.5657 75.5563 73.6448 75.7833 73.8177 75.91C74.0169 76.0613 74.349 76.0741 74.815 75.9739C75.1471 75.8845 75.4001 75.7577 75.5856 75.5819C75.7585 75.4178 75.8376 75.2272 75.8376 75.0003C75.8376 74.7734 75.7712 74.6211 75.6247 74.5327C75.5055 74.4698 75.2262 74.3814 74.602 74.3185C74.057 74.2674 73.6311 74.1928 73.3127 74.0906C72.4082 73.8126 71.9442 73.232 71.9569 72.3723C71.9569 71.943 72.0761 71.5265 72.3154 71.1345C72.5547 70.7425 72.8878 70.4016 73.3391 70.1108C73.764 69.8328 74.2699 69.6177 74.8013 69.4919C75.359 69.3662 75.8513 69.3524 76.2899 69.4546C76.7421 69.5558 77.0879 69.7837 77.3399 70.1118C77.5929 70.44 77.7121 70.8447 77.7121 71.3251V71.4518L75.8513 71.8811V71.8782Z" fill="#120F10"/>
<path d="M85.469 67.0898L85.4554 72.2327C85.4554 73.0914 85.1897 73.837 84.6583 74.4559C84.126 75.0758 83.3954 75.5052 82.4909 75.7075C82.1715 75.7832 81.853 75.8215 81.5737 75.8215C81.0824 75.8215 80.6565 75.7075 80.3107 75.4668C79.7657 75.1004 79.4863 74.4687 79.4727 73.6101L79.4863 68.4937L81.3471 68.0634L81.3207 73.2181C81.3207 73.6474 81.4145 73.9382 81.6001 74.0777C81.7866 74.2162 82.065 74.2418 82.4245 74.1661C83.1951 73.9765 83.581 73.4843 83.5936 72.6375L83.62 67.5329L85.4681 67.0908L85.469 67.0898Z" fill="#120F10"/>
<path d="M92.1494 70.1409C92.5616 69.8383 92.8673 69.4974 93.0803 69.1172C93.3059 68.7007 93.426 68.2203 93.426 67.6898C93.4397 66.9058 93.174 66.3635 92.6554 66.0482C92.1367 65.7446 91.4198 65.6935 90.5153 65.9087L87.6436 66.5787L87.6172 74.3996L89.4643 73.9703L89.4779 71.2284L90.4352 71.0005L91.8046 73.4133L93.6917 72.984V72.7443L92.1504 70.1409H92.1494ZM91.577 68.1702C91.577 68.4737 91.4842 68.739 91.2977 68.9541C91.1121 69.182 90.8454 69.3333 90.5006 69.409L89.477 69.6497L89.4906 67.7163L90.5807 67.4638C90.9402 67.3892 91.1931 67.4009 91.3387 67.5277C91.4979 67.6534 91.578 67.8686 91.578 68.1712" fill="#120F10"/>
<path d="M97.3686 65.8606L97.3549 67.4776L100.28 66.7958L100.267 68.3628L97.3549 69.0446L97.3422 72.1156L95.4941 72.5449L95.5205 64.7239L100.652 63.5234L100.64 65.1032L97.3686 65.8606Z" fill="#120F10"/>
<path d="M105.468 62.3984L103.819 62.7776L100.934 71.2804L102.928 70.8138L103.447 69.1456L105.866 68.5768L106.371 70.0052L108.312 69.5504L105.468 62.3994V62.3984ZM105.348 67.1238L103.965 67.4529L104.656 65.1659L105.348 67.1238Z" fill="#120F10"/>
<path d="M113.478 65.5281L115.339 65.0988L115.327 65.3139C115.26 66.1598 114.954 66.9054 114.396 67.5116C113.851 68.1177 113.12 68.5352 112.216 68.7494C111.923 68.8133 111.644 68.8506 111.391 68.8506C110.766 68.8506 110.248 68.6482 109.835 68.2572C109.264 67.714 108.984 66.8426 108.984 65.6666V65.2118C108.984 64.4789 109.117 63.7843 109.384 63.1654C109.636 62.5337 110.021 62.0032 110.5 61.5857C110.979 61.1691 111.55 60.8784 112.189 60.7271C113.079 60.5247 113.824 60.6003 114.369 60.9668C114.927 61.3332 115.26 61.9649 115.339 62.8235L115.353 62.962L113.505 63.3923L113.492 63.2027C113.466 62.7852 113.346 62.4944 113.16 62.3559C112.974 62.2302 112.68 62.2046 112.269 62.3048C111.804 62.4188 111.459 62.6585 111.232 63.0505C110.993 63.4542 110.872 64.0358 110.86 64.7815V65.3503C110.846 66.1205 110.966 66.6638 111.179 66.9418C111.378 67.207 111.698 67.2827 112.149 67.1815C112.575 67.0803 112.893 66.9035 113.106 66.6628C113.319 66.4103 113.438 66.0694 113.466 65.6391L113.478 65.5261V65.5281Z" fill="#120F10"/>
<path d="M119.029 60.812V62.2777L121.94 61.5959L121.927 63.1246L119.015 63.8064V65.4873L122.432 64.6905V66.2575L117.154 67.4963L117.181 59.6753L122.445 58.4375V60.0162L119.029 60.812Z" fill="#120F10"/>
<path d="M128.019 59.6624V59.46C128.019 59.1692 127.939 58.9796 127.78 58.8667C127.608 58.7527 127.355 58.7409 127.009 58.8166C126.677 58.8912 126.412 59.0307 126.225 59.2076C126.053 59.3844 125.959 59.5868 125.959 59.8009C125.959 59.9905 126.052 60.1035 126.225 60.1929C126.451 60.2941 126.783 60.357 127.236 60.3953C128.14 60.4582 128.791 60.6478 129.217 60.9641C129.642 61.2922 129.868 61.7844 129.855 62.4171C129.855 63.0989 129.603 63.705 129.084 64.211C128.579 64.7169 127.901 65.0706 127.05 65.273C126.718 65.3486 126.399 65.3869 126.093 65.3869C125.867 65.3869 125.641 65.3614 125.428 65.324C124.923 65.2101 124.537 64.9831 124.272 64.6422C124.006 64.3013 123.873 63.872 123.873 63.3533V63.2403L125.734 62.7973V62.9987C125.734 63.3278 125.814 63.5675 125.986 63.6814C126.172 63.8327 126.518 63.8583 126.983 63.7443C127.302 63.6687 127.568 63.5419 127.741 63.3651C127.914 63.201 128.007 63.0114 128.007 62.7835C128.007 62.5438 127.94 62.3915 127.795 62.3159C127.662 62.253 127.383 62.1518 126.757 62.1008C126.226 62.0497 125.8 61.975 125.482 61.8738C124.565 61.583 124.113 61.0014 124.113 60.1556C124.113 59.7263 124.232 59.3088 124.473 58.9178C124.711 58.5258 125.057 58.1859 125.496 57.8941C125.934 57.6043 126.426 57.4019 126.971 57.2752C127.516 57.1357 128.021 57.1229 128.46 57.2378C128.899 57.338 129.257 57.5542 129.51 57.8941C129.749 58.2104 129.869 58.627 129.869 59.1074V59.2341L128.021 59.6634L128.019 59.6624Z" fill="#120F10"/>
<path d="M48.7012 31.7588V70.7496C48.7012 70.8449 48.6758 70.95 48.6309 71.0335C48.5576 71.1671 48.4365 71.2644 48.2763 71.3086C48.1151 71.3518 35.7355 74.5201 35.5548 74.5663C35.3741 74.6125 35.212 74.5702 35.085 74.4671C34.959 74.3649 34.876 74.2018 34.876 74.021C34.876 73.8403 34.8223 35.1049 34.8223 34.9978C34.8223 34.8907 34.8643 34.7483 34.9365 34.651C35.0098 34.5538 35.0655 34.4919 35.2345 34.4477C35.4034 34.4025 37.817 33.7836 37.9645 33.7443C38.113 33.7059 38.2869 33.7354 38.4138 33.8238C38.5584 33.926 38.6571 34.096 38.6571 34.3023V69.218C38.6571 69.3605 38.7196 69.4862 38.8153 69.5707C38.9198 69.6621 39.0624 69.7053 39.2099 69.6719L44.5607 68.327C44.6427 68.3093 44.716 68.2681 44.7726 68.213C44.8625 68.1276 44.9172 68.0058 44.9172 67.8731L44.8644 32.4563C44.8644 32.3306 44.9055 32.2117 44.9758 32.1174C45.0481 32.0201 45.1125 31.9622 45.2708 31.914C45.429 31.8669 47.8553 31.2558 48.0077 31.2165C48.1601 31.1772 48.331 31.2057 48.457 31.2932C48.6025 31.3934 48.7002 31.5614 48.7002 31.7598" fill="#120F10"/>
<path d="M107.42 27.6664C107.42 27.2194 107.133 27.0249 106.741 27.1222C106.348 27.2194 94.2335 30.3169 94.0196 30.3779C93.8047 30.4388 93.5938 30.6392 93.5938 30.9359V58.9905C93.5938 59.1948 93.7002 59.3579 93.8467 59.467C93.9659 59.5485 94.1398 59.576 94.2863 59.5348C94.4465 59.4945 96.8708 58.8952 97.03 58.8412C97.1902 58.7999 97.2566 58.7321 97.3231 58.6368C97.3631 58.5691 97.4032 58.5013 97.4168 58.4187C97.4305 58.3785 97.4305 58.3372 97.4305 58.2969L97.4041 55.164V50.2746C97.4178 50.193 97.4579 50.1115 97.5243 50.0565C97.5907 50.0025 97.6571 49.9622 97.7372 49.9347L98.3907 49.7716L99.0305 49.6075L103.093 48.6006C103.239 48.5593 103.386 48.6006 103.48 48.6949C103.586 48.7764 103.64 48.8992 103.64 49.0495V56.4235C103.64 57.065 103.777 57.1239 104.332 56.9825C104.492 56.9412 106.903 56.3144 107.062 56.2741C107.235 56.2329 107.463 56.0708 107.463 55.838C107.463 55.6051 107.422 27.7637 107.422 27.6674M103.639 44.3231C103.625 44.3772 103.585 44.4184 103.559 44.4587C103.491 44.5137 103.44 44.554 103.359 44.5678C103.279 44.5815 103.187 44.609 103.093 44.6356C102.786 44.7181 102.453 44.7996 102.121 44.8812C101.708 44.9902 101.282 45.0992 100.842 45.2083L97.9921 45.9156C97.8456 45.9431 97.6991 45.9019 97.5926 45.8066C97.4989 45.725 97.4325 45.6022 97.4325 45.4519V33.6601C97.4325 33.4901 97.579 33.3988 97.7392 33.3585C97.8994 33.3192 102.864 32.0666 103.094 32.0096C103.444 31.9232 103.64 32.1599 103.64 32.4733V44.3212L103.639 44.3231Z" fill="#120F10"/>
<path d="M64.2482 58.2781C66.2056 57.7741 67.8583 57.3517 67.8847 57.3517C68.1641 57.2564 68.2578 56.998 68.2578 56.7799V36.9775C68.2578 36.8007 68.1777 36.6376 68.0586 36.5423C67.9247 36.4333 67.7655 36.393 67.579 36.4333C67.5252 36.447 66.2203 36.7879 64.4758 37.2379C62.5838 37.7133 60.1594 38.3401 58.2283 38.8441C56.3363 39.3206 54.9112 39.689 54.8585 39.7017C54.6993 39.743 54.5782 39.8373 54.5117 39.9739C54.458 40.0554 54.4316 40.1645 54.4316 40.2597V68.9814C54.4316 69.1858 54.5381 69.3489 54.6846 69.4579C54.8038 69.5404 54.9777 69.567 55.1242 69.5267C55.2844 69.4854 57.7087 68.8861 57.8689 68.8311C58.0291 68.7909 58.0955 68.7221 58.161 68.6278C58.2283 68.5315 58.2674 68.4097 58.2674 68.2869L58.2547 59.8293C62.2243 59.9118 64.4758 63.2619 64.4758 66.4478C64.4758 66.6934 64.5822 66.8152 64.7288 66.9243C64.8479 67.0058 65.0218 67.0333 65.1683 67.0058C65.3275 66.9646 67.7392 66.3378 67.8984 66.2975C68.0713 66.2562 68.125 66.1885 68.2051 66.0932C68.2715 65.9979 68.3115 65.8613 68.3115 65.7532C68.3115 62.4435 66.233 58.9707 64.2482 58.2761M58.2274 43.0616C58.2537 42.9663 58.2938 42.8847 58.3612 42.816C58.4276 42.7619 58.494 42.7207 58.5741 42.7069L63.9288 41.3335C64.0753 41.2923 64.2218 41.3473 64.3283 41.4288C64.422 41.5103 64.4758 41.6469 64.4758 41.7835V54.0203C64.4758 54.2119 64.3605 54.3239 64.1827 54.3642C64.005 54.4045 59.0811 55.661 58.8281 55.716C58.5751 55.771 58.242 55.5804 58.242 55.3073C58.242 55.2258 58.2157 43.1569 58.2157 43.1569C58.2157 43.1303 58.2156 43.0891 58.2293 43.0616" fill="#120F10"/>
<path d="M87.0125 31.4762C86.4509 31.6196 74.464 34.6867 74.4112 34.7044C74.1416 34.7908 73.9844 34.9775 73.9844 35.2624V63.9851C73.9844 64.4321 74.3565 64.603 74.6769 64.5293C74.7189 64.5205 87.1581 61.3414 87.4384 61.2736C87.7187 61.2068 87.8653 60.9838 87.8653 60.7146V47.9325C87.8653 47.2625 85.6998 47.2743 85.6998 46.6642C85.6998 45.8862 87.8653 44.555 87.8653 43.8261V31.9929C87.8653 31.6629 87.5742 31.3318 87.0125 31.4762ZM83.4825 36.3381C83.8107 36.2536 84.0275 36.4825 84.0275 36.7881V45.1376C84.0275 45.3291 83.9084 45.4382 83.7355 45.4785C83.5489 45.5197 78.6338 46.7703 78.3808 46.8253C78.1278 46.8794 77.7948 46.6888 77.7948 46.4167C77.7948 46.3764 77.7684 38.3933 77.7684 38.1693C77.7684 37.9454 77.9139 37.7764 78.1278 37.7194C78.3427 37.6634 83.2451 36.399 83.4835 36.3381M78.3681 59.6399C78.0585 59.7155 77.8221 59.5515 77.8221 59.1909V50.8385C77.8221 50.6479 77.9286 50.5388 78.1151 50.4986C78.288 50.4573 83.1269 49.2411 83.4698 49.1537C83.7208 49.0908 84.0559 49.2902 84.0559 49.5623C84.0559 49.6036 84.0998 57.68 84.0998 57.8332C84.0998 58.0533 83.9152 58.239 83.7404 58.2832C83.5645 58.3274 78.5879 59.5868 78.3681 59.6409" fill="#120F10"/>
</g>
</g>
</svg>
