<svg width="915" height="540" viewBox="0 0 915 540" fill="none" xmlns="http://www.w3.org/2000/svg">
<g clip-path="url(#clip0_248_527)">
<path d="M212.181 193.182C212.323 193.476 212.232 193.82 212.151 194.135C211.969 194.804 211.776 195.473 211.401 196.061C210.874 196.882 208.765 198.261 207.822 197.581C207.478 197.338 207.326 196.922 207.123 196.558C205.795 194.165 202.571 193.831 200.199 192.472C199.043 191.813 197.959 190.637 198.141 189.32C198.283 188.286 198.648 187.343 199.054 186.43C199.986 184.332 201.132 182.386 200.341 179.851C200.219 179.456 200.057 179.03 200.169 178.625C200.311 178.158 200.767 177.885 201.193 177.652C202.622 176.881 204.001 175.999 205.531 175.431C206.261 175.168 206.9 175.127 207.64 175.026C208.491 174.914 209.262 174.56 210.144 174.681C211.046 174.803 212.648 175.594 212.587 176.658C212.556 177.175 212.039 177.824 211.816 178.29C211.512 178.949 211.147 179.679 210.995 180.389C211.715 180.683 212.425 180.723 213.114 181.129C213.945 181.615 214.726 182.193 215.456 182.832C216.784 183.997 218.568 185.711 217.159 187.535C216.672 188.164 215.993 188.65 215.233 188.894C215.101 188.934 214.959 188.975 214.868 189.076C214.716 189.249 214.777 189.522 214.827 189.745C214.949 190.333 214.939 190.941 214.797 191.519C214.746 191.712 214.685 191.905 214.554 192.046C214.412 192.209 214.219 192.29 214.026 192.381L212.475 193.06" fill="white"/>
<path d="M122.527 80.6531C121.625 83.5524 121.22 86.624 121.362 89.6651V90.2227C121.108 90.2227 120.845 90.2227 120.581 90.243C120.206 86.9585 119.334 83.5828 119.669 80.3084C120.054 76.5475 122.01 72.9691 121.656 69.2183C121.493 67.5152 120.855 65.8426 120.378 64.18V64.1091C120.206 61.6761 120.976 58.8884 122.609 58.9188C123.734 58.9492 124.322 59.4865 124.616 60.0643C124.92 60.6421 125.711 60.6827 126.045 60.1251C127.789 57.2462 129.461 51.4375 129.461 51.4375C131.053 52.2586 132.381 52.7553 133.476 53.0291C133.526 55.3403 133.516 57.6821 133.425 59.892C133.364 61.4126 133.425 62.9332 133.567 64.4436C133.658 65.2445 133.76 66.025 133.871 66.5218C134.135 67.6571 133.263 68.5898 132.198 68.9547C132.127 69.2994 132.067 69.6542 131.985 69.9988C130.951 74.3072 130.81 84.3836 122.527 80.6531Z" fill="white"/>
<path d="M329.328 480.415V490.826C329.328 495.601 327.899 500.264 325.213 504.218L322.506 508.212C319.82 512.165 318.39 516.829 318.39 521.603V566.045H-11V456.562H305.475C318.654 456.562 329.328 467.247 329.328 480.415Z" fill="white"/>
<path d="M199.52 445.221L201.021 443.934C201.294 444.319 201.619 444.653 201.994 444.937L206.079 448.039C209.698 450.786 207.752 456.565 203.21 456.565H172.545C170.102 456.565 168.054 454.73 167.821 452.297C167.659 450.695 167.446 448.688 167.162 446.346L167.699 446.285C173.711 444.653 179.884 446.225 186.088 447.502C188.491 447.999 190.893 448.455 193.296 448.658C194.381 448.749 195.577 448.759 196.439 448.09C197.584 447.218 198.263 445.221 199.52 445.221Z" fill="white"/>
<path d="M186.088 447.498C179.884 446.221 173.71 444.649 167.699 446.281L167.162 446.342C165.286 430.913 160.481 401.089 149.513 378.706C140.176 359.669 136.486 339.577 135.016 326.652C133.952 317.234 130.374 308.263 124.727 300.649C118.736 292.58 110.606 281.095 102.577 268.109C96.0387 257.536 89.5711 245.969 84.3808 234.423L83.9145 234.636C85.8203 258.894 87.057 283.203 87.6146 307.522C87.6957 310.918 87.7667 314.314 87.4828 317.69C86.8442 325.395 84.4315 332.825 82.029 340.175C70.4623 375.625 59.8283 408.216 48.2516 443.666L48.2212 443.919C42.0374 443.068 35.8334 442.206 29.6396 441.345L28.4434 440.919C40.8412 406.158 45.4131 368.954 56.7669 333.788C58.4598 328.547 60.3149 323.296 60.761 317.812C61.2476 311.76 60.0007 305.718 58.8146 299.757C51.8098 264.632 44.4096 220.991 52.8438 186.463C56.3918 185.064 87.2801 173.528 119.334 179.975C119.628 182.5 120.236 185.379 121.433 188.247C124.788 196.327 153.223 242.695 171.764 303.285C188.612 358.3 198.486 429.21 200.159 441.791C200.27 442.571 200.564 443.301 201.02 443.93L199.52 445.217C198.263 445.217 197.584 447.214 196.438 448.086C195.577 448.755 194.38 448.745 193.296 448.654C190.893 448.451 188.491 447.995 186.088 447.498Z" fill="white"/>
<path d="M129.188 146.303C123.217 155.417 123.248 163.405 123.745 169.305C124.302 175.965 125.478 179.979 119.335 179.979C119.335 179.979 119.528 176.198 119.081 175.448C119.081 174.941 119.102 174.495 119.122 174.1C119.132 173.968 119.142 173.826 119.142 173.684C119.193 172.914 119.254 172.386 119.274 172.163C118.717 171.961 118.068 171.728 117.328 171.484C117.226 171.444 117.115 171.403 117.003 171.373C116.902 171.332 116.801 171.302 116.689 171.271C111.468 169.528 102.578 167.064 91.427 165.858H91.4067C83.2057 164.662 74.7816 164.135 68.9729 165.483C66.7428 165.655 64.4821 165.888 62.181 166.223L61.887 166.253C61.887 166.253 61.8769 166.253 61.8566 166.253C61.8465 166.253 61.816 166.264 61.7755 166.264C61.4612 166.355 60.559 166.649 59.7075 167.429C59.2513 167.845 58.8154 168.403 58.5011 169.143C58.1261 170.024 57.2239 172.092 56.2304 174.536C55.318 176.796 54.3347 179.381 53.6048 181.652C49.1951 175.124 45.3126 168.22 42.0179 161.053C39.3214 155.184 36.9595 148.716 38.1759 142.37C39.1795 137.088 42.5147 132.608 45.7586 128.33C51.7599 120.392 57.7713 112.465 63.7725 104.528C66.4488 100.98 69.6623 97.1578 73.7679 96.0021C72.3689 98.7595 71.8823 102.216 73.9098 104.446C75.0148 105.663 76.8192 106.464 77.1132 108.086C77.2754 108.968 76.9104 109.86 76.7178 110.742C76.0386 113.803 77.468 117.088 79.8401 119.146C82.2021 121.214 85.3649 122.166 88.4973 122.41C95.1677 122.927 102.01 120.24 106.552 115.334C109.613 112.029 111.61 107.863 114.499 104.396C116.466 102.054 118.879 99.9658 120.004 97.1172C120.876 94.9175 120.855 92.596 120.592 90.234C120.855 90.2239 121.119 90.2138 121.383 90.2138C128.712 90.1124 138.342 92.7481 142.813 97.9485C147.76 103.696 149.625 111.38 151.683 118.689C155.231 131.28 159.772 143.607 165.247 155.498C171.025 157.079 171.582 158.549 176.154 160.637C180.24 162.503 190.904 170.602 194.604 173.157C198.304 175.711 199.561 175.276 200.463 179.675C201.163 183.091 200.159 186.944 197.747 189.356C197.067 190.056 196.246 190.634 195.324 191.049C193.195 192.002 190.772 192.002 188.451 191.88C178.02 191.333 167.71 188.707 158.292 184.196C153.954 182.118 149.737 179.604 146.361 176.168C143.522 173.268 141.343 169.801 139.295 166.284C135.544 159.837 132.169 153.156 129.198 146.293L129.188 146.303Z" fill="white"/>
<path d="M133.476 53.0292C132.381 52.7555 131.053 52.2588 129.462 51.4376C129.462 51.4376 127.789 57.2463 126.046 60.1253C125.711 60.6828 124.92 60.6423 124.616 60.0645C124.322 59.4866 123.734 58.9494 122.609 58.919C120.977 58.8885 120.206 61.6763 120.379 64.1092V64.1802C119.902 62.538 119.578 60.916 119.994 59.2738C120.571 57.003 122.518 55.2188 122.862 52.8974L102.375 43.6725C109.238 38.0058 116.375 39.0094 119.385 39.8001C120.247 40.0332 121.139 40.0231 122.001 39.7798C124.332 39.1209 129.928 39.1817 136.619 50.87C137.278 52.0155 136.365 53.4651 135.047 53.3232C134.591 53.2725 134.064 53.1914 133.476 53.0292Z" fill="black"/>
<path d="M102.375 43.6758L122.862 52.9007C122.518 55.2221 120.571 57.0063 119.994 59.277C119.578 60.9193 119.902 62.5412 120.379 64.1835C120.541 66.6671 119.466 69.0595 117.54 70.6308C114.611 72.9928 108.528 75.8211 106.511 74.7972C102.953 73.0029 103.237 73.8646 102.862 71.2289C102.476 68.5932 93.3731 51.1064 102.375 43.6758Z" fill="black"/>
<path d="M120.582 90.2464C120.846 92.6084 120.866 94.9298 119.994 97.1296C118.869 99.9782 116.456 102.066 114.49 104.408C111.601 107.875 109.604 112.042 106.542 115.346C102.001 120.253 95.158 122.939 88.4876 122.422C85.3552 122.179 82.1924 121.226 79.8304 119.158C77.4583 117.1 76.0289 113.816 76.7081 110.754C76.9007 109.872 77.2657 108.98 77.1035 108.098C76.8095 106.476 75.0051 105.675 73.9001 104.459C71.8726 102.229 72.3592 98.7718 73.7582 96.0145C73.9204 95.6698 74.113 95.3454 74.3056 95.0312C75.4917 93.1152 77.1035 91.0472 76.5662 88.8475C76.3736 88.077 75.9276 87.3877 75.6539 86.6375C74.9544 84.6608 75.5727 82.4103 76.7183 80.6464C77.8638 78.8927 79.4857 77.5039 81.0063 76.0542C85.3349 71.9385 89.035 67.1537 91.914 61.9229C94.8842 56.5298 96.2021 48.1362 102.376 43.6758C93.3738 51.1064 102.477 68.5932 102.862 71.2289C103.237 73.8646 102.954 73.0029 106.512 74.7972C108.529 75.8211 114.611 72.9928 117.541 70.6308C119.467 69.0595 120.542 66.6671 120.379 64.1835C120.856 65.846 121.495 67.5186 121.657 69.2217C122.012 72.9725 120.055 76.5509 119.67 80.3119C119.335 83.5862 120.207 86.9619 120.582 90.2464Z" fill="black"/>
<path d="M119.081 175.445C119.527 176.195 119.335 179.977 119.335 179.977C119.132 178.263 119.071 176.712 119.081 175.445Z" fill="black"/>
<path d="M53.9694 182.219C54.6891 179.715 55.5102 177.261 56.4226 174.879C57.3958 172.325 58.4906 169.841 59.6969 167.438C60.5484 166.658 61.4507 166.364 61.7649 166.273C61.8055 166.273 61.8359 166.262 61.846 166.262C61.9575 166.242 62.069 166.222 62.1704 166.222L68.9624 165.482C77.0621 164.853 84.6447 165.117 91.3962 165.857H91.4164C102.932 167.519 113.992 170.469 116.678 171.27C116.8 171.311 116.902 171.341 116.993 171.372C117.104 171.402 117.216 171.443 117.317 171.483C118.828 172.041 119.132 172.892 119.132 173.683C119.132 173.825 119.122 173.967 119.111 174.099C119.04 174.666 118.899 175.163 119.071 175.437C119.061 176.714 119.122 178.265 119.324 179.978C87.2703 173.531 56.382 185.067 52.834 186.466C53.1787 185.037 53.5537 183.617 53.9592 182.219H53.9694Z" fill="black"/>
<path d="M102.569 268.122C111.793 348.622 81.0066 390.185 63.3475 437.921C62.6885 439.705 62.9724 441.713 64.0773 443.274C64.1686 443.406 64.2598 443.537 64.3409 443.649L62.9622 443.598C61.8066 442.757 60.1948 442.868 58.8262 443.284C57.4476 443.689 56.1399 444.369 54.7105 444.541C53.6562 444.673 52.5817 444.531 51.5274 444.379C50.4224 444.227 49.3276 444.075 48.2227 443.923L48.2531 443.669C59.8298 408.219 70.4638 375.628 82.0304 340.178C84.433 332.828 86.8457 325.398 87.4843 317.693C87.7681 314.318 87.6972 310.922 87.6161 307.526C87.0585 283.206 85.8218 258.897 83.916 234.639L84.3823 234.426C89.5726 245.972 96.0402 257.539 102.579 268.112H102.569V268.122Z" fill="white"/>
<path d="M91.4064 165.858C84.655 165.118 77.0723 164.855 68.9727 165.483C74.7813 164.135 83.2054 164.662 91.4064 165.858Z" fill="black"/>
<path d="M67.3811 448.385C69.4897 451.568 70.2196 451.619 67.1885 453.616C66.1951 454.265 65.0394 454.62 63.8534 454.62C63.2553 454.62 62.6673 454.62 62.0692 454.62C51.3643 454.62 40.6492 453.92 30.0354 452.542C29.0927 452.42 28.16 452.106 27.3896 451.548C25.129 449.896 25.8285 447.939 26.4975 446.196C27.1666 444.442 27.8154 442.678 28.4439 440.914L29.6401 441.34C35.834 442.201 42.038 443.063 48.2217 443.915C49.3267 444.067 50.4215 444.219 51.5265 444.371C52.5807 444.523 53.6553 444.665 54.7096 444.533C56.1389 444.361 57.4466 443.682 58.8253 443.276C60.1938 442.86 61.8056 442.749 62.9613 443.59L64.34 443.641C65.597 445.435 65.6984 445.851 67.3811 448.375V448.385Z" fill="white"/>
<path d="M62.172 166.219C62.0707 166.219 61.9592 166.239 61.8477 166.259C61.8679 166.259 61.8781 166.259 61.8781 166.259L62.172 166.229V166.219Z" fill="black"/>
<path d="M58.4915 169.155C58.8057 168.415 59.2416 167.857 59.6978 167.441C58.4915 169.844 57.3966 172.328 56.4235 174.882C56.3525 174.771 56.2917 174.659 56.2207 174.548C57.2142 172.105 58.1164 170.037 58.4915 169.155Z" fill="black"/>
<path d="M56.2193 174.543C56.2903 174.654 56.3511 174.766 56.422 174.878C55.5097 177.26 54.6886 179.713 53.9688 182.217C53.837 182.034 53.7154 181.842 53.5938 181.659C54.3236 179.389 55.3069 176.804 56.2193 174.543Z" fill="black"/>
<path d="M53.5943 181.66C53.716 181.843 53.8376 182.035 53.9694 182.218C53.5639 183.617 53.1888 185.036 52.8441 186.465C52.611 186.546 52.4995 186.597 52.4995 186.597C52.4691 185.543 52.9252 183.728 53.5943 181.66Z" fill="black"/>
<path d="M122.428 61.2831C122.742 61.1918 123.036 61.4757 123.218 61.7392C123.705 62.4793 123.928 63.3815 123.837 64.2533" stroke="black" stroke-width="0.25" stroke-miterlimit="10"/>
<path d="M122.873 62.9992C123.177 62.8572 123.562 62.9383 123.785 63.1918" stroke="black" stroke-width="0.25" stroke-miterlimit="10"/>
<path d="M130.618 61.7031C130.466 61.916 130.375 62.1796 130.375 62.4431" stroke="black" stroke-miterlimit="10"/>
<path d="M129.594 57.7257C130.263 57.5534 130.962 57.523 131.641 57.6243" stroke="black" stroke-miterlimit="10"/>
<path d="M127.516 68.918C127.759 69.5668 128.124 70.1649 128.59 70.6717" stroke="black" stroke-miterlimit="10"/>
<path d="M129.189 146.309C123.218 155.422 123.249 163.41 123.746 169.31C124.303 175.97 125.479 179.985 119.336 179.985" stroke="black" stroke-miterlimit="10"/>
<path d="M61.7646 166.277C60.6799 166.429 59.5851 166.592 58.4902 166.784" stroke="black" stroke-miterlimit="10"/>
<path d="M68.9619 165.484C66.7317 165.657 64.4711 165.89 62.1699 166.224" stroke="black" stroke-miterlimit="10"/>
<path d="M117.004 171.378C116.903 171.337 116.801 171.307 116.69 171.277C111.469 169.533 102.579 167.07 91.4277 165.863" stroke="black" stroke-miterlimit="10"/>
<path d="M121.859 173.171C121.768 173.141 120.876 172.755 119.274 172.167C118.717 171.965 118.068 171.732 117.328 171.488" stroke="black" stroke-miterlimit="10"/>
<path d="M133.477 53.0352C133.528 55.3465 133.518 57.6882 133.427 59.8981C133.366 61.4187 133.427 62.9393 133.569 64.4497C133.66 65.2506 133.761 66.0311 133.873 66.5279C134.136 67.6632 133.264 68.5959 132.2 68.9608C132.129 69.3055 132.068 69.6603 131.987 70.0049C130.953 74.3133 130.811 84.3897 122.529 80.6592C122.499 80.6491 122.458 80.6389 122.428 80.6187" stroke="black" stroke-miterlimit="10"/>
<path d="M172.546 456.567C170.102 456.567 168.055 454.732 167.822 452.299C167.659 450.698 167.446 448.69 167.163 446.349C165.287 430.92 160.482 401.096 149.514 378.713C140.177 359.675 136.487 339.583 135.017 326.658C133.953 317.241 130.374 308.269 124.728 300.656C118.737 292.587 110.607 281.101 102.578 268.115C96.0396 257.542 89.572 245.976 84.3817 234.429C76.9916 217.997 72.1866 201.615 73.474 188.254" stroke="black" stroke-miterlimit="10"/>
<path d="M119.336 179.984C119.63 182.509 120.238 185.388 121.434 188.256C124.79 196.336 153.225 242.704 171.766 303.294C188.614 358.309 198.488 429.219 200.16 441.8C200.272 442.58 200.566 443.31 201.022 443.939C201.296 444.324 201.62 444.658 201.995 444.942L206.081 448.044C209.7 450.791 207.753 456.57 203.212 456.57" stroke="black" stroke-miterlimit="10"/>
<path d="M119.123 174.102C119.102 174.497 119.092 174.943 119.082 175.44" stroke="black" stroke-miterlimit="10"/>
<path d="M119.295 172.043C119.295 172.043 119.284 172.084 119.274 172.165C119.254 172.388 119.193 172.915 119.143 173.685" stroke="black" stroke-miterlimit="10"/>
<path d="M104.697 193.13C107.069 190.22 109.046 186.997 110.577 183.57" stroke="black" stroke-width="0.25" stroke-miterlimit="10"/>
<path d="M145.814 305.613C147.254 304.995 148.704 304.376 150.143 303.758" stroke="black" stroke-width="0.25" stroke-miterlimit="10"/>
<path d="M147.02 311.129C148.266 310.531 149.513 309.932 150.76 309.324" stroke="black" stroke-width="0.25" stroke-miterlimit="10"/>
<path d="M73.4837 119.348C70.1182 134.989 68.8916 134.483 60.0113 147.793C57.2236 151.98 54.1621 156.024 52.0637 160.606C51.5467 161.732 51.0804 162.928 51.1108 164.175C51.1513 165.736 51.9522 167.165 52.7327 168.513C53.8985 170.521 55.0542 172.538 56.22 174.545C56.2909 174.657 56.3518 174.768 56.4227 174.88C56.4531 174.94 56.4937 175.001 56.5241 175.062" stroke="black" stroke-miterlimit="10"/>
<path d="M60.0113 166.812C59.8998 167.025 59.7985 167.228 59.6971 167.441C58.4908 169.844 57.3959 172.327 56.4228 174.882C55.5104 177.264 54.6893 179.717 53.9695 182.221C53.564 183.62 53.189 185.039 52.8443 186.469C44.4101 220.996 51.8103 264.637 58.8152 299.763C60.0012 305.723 61.2481 311.765 60.7615 317.817C60.3155 323.302 58.4603 328.553 56.7674 333.794C45.4137 368.96 40.8418 406.164 28.4439 440.924C27.8154 442.688 27.1666 444.452 26.4975 446.206C25.8285 447.949 25.129 449.906 27.3896 451.558C28.16 452.116 29.0927 452.43 30.0354 452.552C40.6492 453.93 51.3643 454.63 62.0692 454.63C62.6673 454.63 63.2553 454.63 63.8534 454.63C65.0394 454.63 66.1951 454.275 67.1885 453.626C70.2196 451.629 69.4897 451.579 67.3811 448.395C65.6984 445.871 65.597 445.456 64.34 443.661C64.2589 443.55 64.1676 443.418 64.0764 443.286C62.9714 441.725 62.6876 439.718 63.3465 437.934C81.0056 390.197 111.793 348.635 102.568 268.135" stroke="black" stroke-miterlimit="10"/>
<path d="M119.336 90.3268C119.741 90.2863 120.157 90.266 120.583 90.2458C120.846 90.2356 121.11 90.2255 121.374 90.2255C128.703 90.1241 138.333 92.7598 142.804 97.9602C147.751 103.708 149.616 111.392 151.674 118.701C155.222 131.292 159.763 143.618 165.237 155.509" stroke="black" stroke-miterlimit="10"/>
<path d="M125.953 138.355C126.967 141.032 128.041 143.678 129.187 146.303C132.157 153.166 135.533 159.846 139.284 166.294C141.331 169.811 143.511 173.278 146.349 176.178C149.725 179.614 153.942 182.128 158.281 184.206C167.698 188.717 178.008 191.343 188.439 191.89C190.761 192.012 193.183 192.012 195.312 191.059C196.235 190.644 197.056 190.066 197.735 189.366C200.148 186.954 201.151 183.101 200.452 179.685C199.55 175.286 198.293 175.721 194.593 173.167C190.892 170.612 180.228 162.513 176.143 160.647C171.571 158.559 171.013 157.089 165.235 155.508" stroke="black" stroke-miterlimit="10"/>
<path d="M72.4707 319.391C73.7885 320.273 75.4206 320.678 77.0021 320.516" stroke="black" stroke-width="0.25" stroke-miterlimit="10"/>
<path d="M74.3555 314.867C76.0889 315.252 77.8731 315.374 79.637 315.222" stroke="black" stroke-width="0.25" stroke-miterlimit="10"/>
<path d="M29.6406 441.352C35.8345 442.213 42.0385 443.075 48.2222 443.926C49.3272 444.078 50.422 444.231 51.527 444.383C52.5813 444.535 53.6558 444.677 54.7101 444.545C56.1394 444.372 57.4471 443.693 58.8258 443.288C60.1943 442.872 61.8062 442.761 62.9618 443.602" stroke="black" stroke-width="0.25" stroke-miterlimit="10"/>
<path d="M167.699 446.287C173.711 444.655 179.884 446.226 186.088 447.504C188.491 448 190.893 448.456 193.296 448.659C194.381 448.75 195.577 448.761 196.438 448.091C197.584 447.22 198.263 445.223 199.52 445.223C199.652 445.223 199.784 445.243 199.915 445.283" stroke="black" stroke-width="0.25" stroke-miterlimit="10"/>
<path d="M104.158 194.062C115.015 224.951 128.924 254.775 145.62 282.946C147.941 286.859 150.323 290.752 152.128 294.928C154.267 299.906 155.564 305.197 156.842 310.459C162.093 331.96 167.334 353.461 172.575 374.962C178.181 397.943 183.797 423.955 186.088 447.504" stroke="black" stroke-width="0.25" stroke-miterlimit="10"/>
<path d="M83.9149 234.641C85.8207 258.899 87.0574 283.208 87.615 307.528C87.6961 310.924 87.767 314.32 87.4832 317.695C86.8445 325.4 84.4319 332.83 82.0293 340.18C70.4627 375.63 59.8287 408.221 48.252 443.671" stroke="black" stroke-width="0.25" stroke-miterlimit="10"/>
<path d="M122.568 80.5078C122.548 80.5585 122.538 80.6092 122.527 80.6599C121.625 83.5591 121.22 86.6307 121.362 89.6719" stroke="black" stroke-miterlimit="10"/>
<path d="M200.535 178.563C203.211 176.586 206.425 175.37 209.73 175.086" stroke="black" stroke-miterlimit="10"/>
<path d="M208.744 179.484C211.664 180.143 214.391 181.674 216.469 183.823" stroke="black" stroke-miterlimit="10"/>
<path d="M212.283 186.32C213.277 186.898 214.108 187.74 214.686 188.733" stroke="black" stroke-miterlimit="10"/>
<path d="M210.064 189.965C210.815 191.019 211.524 192.114 212.173 193.239" stroke="black" stroke-miterlimit="10"/>
<path d="M207.133 195.99C206.91 195.99 205.876 195.514 204.842 195.027C203.808 194.541 202.774 194.034 202.581 193.953C199.226 192.736 199.216 192.868 197.918 189.543" stroke="black" stroke-miterlimit="10"/>
<path d="M209.86 196.223C209.445 196.841 208.989 197.419 208.482 197.956C208.279 198.169 208.036 198.382 207.752 198.372C207.336 198.341 207.123 197.855 207.062 197.439C207.002 196.983 207.032 196.507 207.133 196.05M207.133 196.05C207.133 196.03 207.144 196.01 207.144 195.99M207.133 196.05C207.042 196.071 206.981 196.071 207.133 195.99H207.144M207.133 196.05C207.235 196.03 207.377 195.979 207.144 195.99" stroke="black" stroke-miterlimit="10"/>
<path d="M76.0694 95.668C75.2686 95.6882 74.4981 95.7997 73.7581 96.0126C69.6525 97.1683 66.439 100.99 63.7628 104.538C57.7615 112.476 51.7501 120.403 45.7488 128.34C42.5049 132.618 39.1697 137.099 38.1662 142.381C36.9497 148.726 39.3117 155.194 42.0082 161.063C45.3028 168.231 49.1854 175.134 53.5951 181.662C53.7167 181.845 53.8384 182.037 53.9702 182.22C54.1019 182.413 54.2236 182.595 54.3554 182.788" stroke="black" stroke-miterlimit="10"/>
<path d="M59.0879 144.734C59.5643 145.485 59.9597 146.296 60.2435 147.137" stroke="black" stroke-miterlimit="10"/>
<path d="M84.8164 184.879C89.51 184.24 94.2339 183.916 98.968 183.926" stroke="black" stroke-width="0.25" stroke-miterlimit="10"/>
<path d="M53.4219 186.381C56.7165 186.725 60.0618 186.624 63.326 186.066" stroke="black" stroke-width="0.25" stroke-miterlimit="10"/>
<path d="M22.961 148.133C22.15 140.053 25.2014 131.68 31.0303 126.023" stroke="black" stroke-width="0.25" stroke-miterlimit="10"/>
<path d="M86.6113 28.3789C88.5678 30.3151 90.0783 32.6872 91.0008 35.2824" stroke="black" stroke-width="0.25" stroke-miterlimit="10"/>
<path d="M106.967 9.23047C107.504 15.0797 108.031 20.9289 108.558 26.7781" stroke="black" stroke-width="0.25" stroke-miterlimit="10"/>
<path d="M137.836 7C136.244 12.1295 134.501 17.2082 132.615 22.2363" stroke="black" stroke-width="0.25" stroke-miterlimit="10"/>
<path d="M153.842 20.543C152.159 23.0469 150.263 25.419 148.195 27.6188" stroke="black" stroke-width="0.25" stroke-miterlimit="10"/>
<path d="M91.2847 127.797C90.2102 136.586 87.1893 145.121 82.5059 152.633" stroke="black" stroke-width="0.25" stroke-miterlimit="10"/>
<path d="M210.926 180.075C215.234 171.093 221.793 161.726 229.467 155.309C238.428 147.808 251.576 145.385 260.761 153.911C269.195 161.736 271.79 174.428 271.962 185.458C272.277 205.915 267.421 226.838 273.574 246.869C275.328 252.566 278.258 258.345 283.498 261.183C298.35 269.232 313.88 255.547 321.838 243.838C337.307 221.07 343.227 192.99 360.826 171.499C368.398 162.243 380.766 151.163 393.66 152.451C405.896 153.667 413.833 165.376 417.686 175.989C423.494 192.037 426.272 209.169 425.805 226.23" stroke="black" stroke-width="0.25" stroke-miterlimit="10"/>
<path d="M204.64 195.871C201.984 203.575 198.061 210.854 193.073 217.301C189.545 221.873 185.014 226.283 179.276 226.992C177.259 227.246 175.039 226.952 173.508 225.603C171.613 223.941 171.237 221.173 171.065 218.659C170.812 215.101 170.71 211.533 170.761 207.965C170.791 205.572 170.883 203.109 170.092 200.848C169.311 198.588 167.395 196.53 165.013 196.347C161.222 196.063 158.809 200.139 155.839 202.501C150.253 206.941 141.444 205.065 136.517 199.895C131.601 194.735 129.908 187.254 129.685 180.117C129.624 177.796 129.675 175.404 128.823 173.244C127.992 171.105 126.015 169.23 123.744 169.311H123.633" stroke="black" stroke-width="0.25" stroke-miterlimit="10"/>
<path d="M136.781 171.711C139.022 175.695 141.607 179.486 144.496 183.034" stroke="black" stroke-width="0.25" stroke-miterlimit="10"/>
<path d="M134.48 177.945C135.555 179.983 136.974 181.838 138.667 183.399" stroke="black" stroke-width="0.25" stroke-miterlimit="10"/>
<path d="M204.943 157.155C210.124 142.72 222.592 131.113 237.362 126.977" stroke="black" stroke-width="0.25" stroke-miterlimit="10"/>
<path d="M202.662 134.11C204.487 131.11 206.697 128.352 209.231 125.93" stroke="black" stroke-width="0.25" stroke-miterlimit="10"/>
<path d="M253.886 230.793C251.068 251.615 259.766 273.623 276.036 286.893" stroke="black" stroke-width="0.25" stroke-miterlimit="10"/>
<path d="M239.238 258.477C239.745 266.039 242.614 273.429 247.348 279.359" stroke="black" stroke-width="0.25" stroke-miterlimit="10"/>
<path d="M-11 456.566H305.475C318.654 456.566 329.328 467.251 329.328 480.419V490.83C329.328 495.605 327.899 500.268 325.213 504.222L322.506 508.216C319.82 512.169 318.39 516.832 318.39 521.607V537" stroke="black" stroke-miterlimit="10"/>
<path d="M452.861 409.167C436.905 399.08 424.416 384.483 415.383 365.354C406.351 346.235 401.84 323.426 401.84 296.907C401.84 270.388 406.351 247.589 415.383 228.46C424.416 209.341 436.905 194.733 452.861 184.647C468.817 174.56 486.993 169.512 507.409 169.512C527.826 169.512 546.002 174.56 561.958 184.647C577.914 194.733 590.403 209.341 599.435 228.46C608.468 247.589 612.989 270.398 612.989 296.907C612.989 323.416 608.468 346.235 599.435 365.354C590.403 384.483 577.904 399.08 561.958 409.167C546.002 419.253 527.826 424.302 507.409 424.302C486.993 424.302 468.817 419.264 452.861 409.167ZM542.778 356.737C551.344 343.832 555.622 323.892 555.622 296.917C555.622 269.942 551.334 250.002 542.778 237.097C534.212 224.192 522.423 217.745 507.409 217.745C492.396 217.745 480.951 224.202 472.395 237.097C463.829 250.002 459.551 269.942 459.551 296.917C459.551 323.892 463.829 343.842 472.395 356.737C480.961 369.642 492.629 376.089 507.409 376.089C522.19 376.089 534.212 369.642 542.778 356.737Z" fill="#3F77E0"/>
<path d="M640.775 287.762C629.979 275.334 624.586 259.023 624.586 238.85C624.586 218.677 629.979 202.376 640.775 189.938C651.561 177.509 665.764 171.285 683.352 171.285C700.94 171.285 715.203 177.449 726.111 189.765C737.018 202.082 742.472 218.444 742.472 238.86C742.472 259.277 737.018 275.638 726.111 287.955C715.203 300.272 700.95 306.435 683.352 306.435C665.753 306.435 651.561 300.221 640.775 287.783V287.762ZM705.704 270.519C710.986 263.017 713.622 252.454 713.622 238.85C713.622 225.246 710.986 214.693 705.704 207.181C700.423 199.68 692.972 195.919 683.362 195.919C673.752 195.919 666.879 199.73 661.364 207.354C655.849 214.977 653.092 225.479 653.092 238.85C653.092 252.221 655.849 262.723 661.364 270.347C666.869 277.97 674.208 281.781 683.362 281.781C692.982 281.781 700.433 278.031 705.704 270.519ZM831.163 173.749H865.65L697.432 420.084H662.945L831.163 173.749ZM802.302 403.895C791.506 391.467 786.113 375.156 786.113 354.983C786.113 334.809 791.506 318.509 802.302 306.07C813.088 293.642 827.291 287.418 844.879 287.418C862.467 287.418 876.73 293.632 887.638 306.07C898.546 318.509 903.999 334.809 903.999 354.983C903.999 375.156 898.546 391.467 887.638 403.895C876.73 416.333 862.477 422.548 844.879 422.548C827.281 422.548 813.088 416.333 802.302 403.895ZM867.049 386.479C872.442 378.856 875.139 368.354 875.139 354.983C875.139 341.612 872.442 331.109 867.049 323.486C861.646 315.863 854.256 312.051 844.879 312.051C835.502 312.051 828.102 315.802 822.709 323.314C817.306 330.825 814.619 341.378 814.619 354.983C814.619 368.587 817.316 379.15 822.709 386.651C828.102 394.163 835.492 397.914 844.879 397.914C854.266 397.914 861.646 394.102 867.049 386.479Z" fill="#3F77E0"/>
<path d="M415.901 224.707C415.404 233.952 422.095 241.068 428.36 246.978C435.557 253.77 443.971 259.832 453.916 261.596C455.234 261.83 456.572 261.992 457.91 262.053C459.248 262.113 460.647 262.235 461.894 261.961C463.496 261.596 464.276 259.65 463.232 258.352C463.131 258.221 462.948 258.403 463.05 258.535C463.678 259.315 463.567 260.431 462.877 261.13C462.076 261.951 460.779 261.83 459.724 261.84C457.342 261.87 454.96 261.596 452.639 261.089C448.056 260.086 443.728 258.16 439.744 255.686C435.76 253.213 432.232 250.273 428.856 247.12C425.734 244.201 422.642 241.149 420.199 237.622C417.564 233.8 415.891 229.421 416.144 224.727C416.144 224.565 415.901 224.565 415.891 224.727L415.901 224.707Z" fill="black"/>
<path d="M419.094 219.781C420.28 223.846 422.47 227.526 425.43 230.547C427.143 232.29 429.029 233.882 430.884 235.474C432.739 237.065 434.685 238.636 436.632 240.147C440.484 243.127 444.478 245.935 448.604 248.541C452.73 251.146 456.896 253.7 461.63 254.755C462.867 255.028 464.134 255.191 465.401 255.191C466.202 255.191 467.054 255.221 467.601 254.542C468.382 253.569 467.956 252.028 466.679 251.795C466.516 251.764 466.456 252.007 466.608 252.038C467.327 252.17 467.784 252.768 467.733 253.498C467.672 254.39 467.003 254.856 466.162 254.917C463.952 255.069 461.711 254.623 459.613 253.944C455.315 252.545 451.412 250.071 447.631 247.638C440.109 242.793 432.911 237.308 426.383 231.165C423.048 228.023 420.584 224.12 419.297 219.72C419.246 219.568 419.003 219.629 419.054 219.791L419.094 219.781Z" fill="black"/>
<path d="M423.312 213.435C423.688 215.24 424.428 216.862 425.583 218.311C426.8 219.842 428.259 221.19 429.598 222.63C432.74 225.996 436.106 229.169 439.654 232.108C443.202 235.048 446.78 237.643 450.582 240.066C454.383 242.489 458.55 244.891 462.787 246.747C465.058 247.74 467.572 248.521 470.076 248.075C470.937 247.922 472.022 247.598 472.407 246.726C472.691 246.088 472.488 245.266 471.819 244.973C471.667 244.912 471.546 245.125 471.688 245.196C472.194 245.419 472.377 246.007 472.215 246.524C472.012 247.152 471.323 247.497 470.735 247.669C469.589 248.014 468.342 248.024 467.176 247.851C464.946 247.517 462.868 246.554 460.871 245.56C457.13 243.715 453.491 241.647 449.994 239.377C442.938 234.805 436.42 229.412 430.611 223.329C429.162 221.809 427.641 220.309 426.262 218.727C424.884 217.146 423.992 215.422 423.576 213.385C423.546 213.223 423.302 213.294 423.333 213.456L423.312 213.435Z" fill="black"/>
</g>
<defs>
<clipPath id="clip0_248_527">
<rect width="915" height="540" fill="white"/>
</clipPath>
</defs>
</svg>
