<svg width="696" height="540" viewBox="0 0 696 540" fill="none" xmlns="http://www.w3.org/2000/svg">
<g clip-path="url(#clip0_248_813)">
<path d="M334.539 79.2484C334.539 63.7684 332.079 48.8684 327.549 34.8984H54.2693C49.7393 48.8684 47.2793 63.7684 47.2793 79.2484C47.2793 139.798 84.7593 191.598 137.779 212.718C156.489 220.178 169.349 237.618 171.189 257.678H210.629C212.469 237.618 225.329 220.178 244.039 212.718C297.059 191.598 334.539 139.798 334.539 79.2484Z" fill="white"/>
<path d="M338.38 29.3398H43.4398C38.9663 29.3398 35.3398 32.9641 35.3398 37.4348C35.3398 41.9056 38.9663 45.5298 43.4398 45.5298H338.38C342.853 45.5298 346.48 41.9056 346.48 37.4348C346.48 32.9641 342.853 29.3398 338.38 29.3398Z" fill="white"/>
<path d="M338.38 45.5312H43.4297" stroke="black" stroke-width="0.68" stroke-miterlimit="10"/>
<path d="M327.85 122.69C313.56 118.91 298.08 116.84 281.92 116.84C265.76 116.84 249.32 119.04 234.66 123.04C215.49 128.28 195.34 128.28 176.17 123.04C161.51 119.04 145.58 116.84 128.91 116.84C102.44 116.84 77.8202 122.38 57.2402 131.9C71.7502 168.71 101.03 198.08 137.77 212.72C156.48 220.18 169.34 237.62 171.18 257.68H210.62C212.46 237.62 225.32 220.18 244.03 212.72C283.79 196.88 314.81 163.79 327.84 122.69H327.85Z" fill="#3F77E0"/>
<path d="M327.85 122.69C313.56 118.91 298.08 116.84 281.92 116.84C265.76 116.84 249.32 119.04 234.66 123.04C215.49 128.28 195.34 128.28 176.17 123.04C161.51 119.04 145.58 116.84 128.91 116.84C102.44 116.84 77.8202 122.38 57.2402 131.9" stroke="black" stroke-width="0.68" stroke-miterlimit="10"/>
<path d="M47.2793 434.68C47.2793 450.16 49.7393 465.06 54.2693 479.03H327.549C332.079 465.06 334.539 450.16 334.539 434.68C334.539 374.13 297.059 322.33 244.039 301.21C225.329 293.75 212.469 276.31 210.629 256.25H171.189C169.349 276.31 156.489 293.75 137.779 301.21C84.7593 322.33 47.2793 374.13 47.2793 434.68Z" fill="#3F77E0"/>
<path d="M43.4405 483.168L338.38 483.168C342.854 483.168 346.48 479.544 346.48 475.073C346.48 470.602 342.854 466.978 338.38 466.978L43.4405 466.978C38.9669 466.978 35.3405 470.602 35.3405 475.073C35.3405 479.544 38.9669 483.168 43.4405 483.168Z" fill="white"/>
<path d="M43.4297 466.98H338.38" stroke="black" stroke-width="0.68" stroke-miterlimit="10"/>
<path d="M53.959 391.24C68.249 395.02 83.729 394.19 99.889 394.19C116.049 394.19 132.489 391.99 147.149 387.99C166.319 382.75 186.469 382.75 205.639 387.99C220.299 391.99 236.229 397.09 252.899 397.09C279.369 397.09 303.989 391.55 324.569 382.03C310.059 345.22 280.779 315.85 244.039 301.21C225.329 293.75 212.469 276.31 210.629 256.25H171.189C169.349 276.31 156.489 293.75 137.779 301.21C98.019 317.05 66.999 350.14 53.969 391.24H53.959Z" fill="white"/>
<path d="M53.959 391.241C68.249 395.021 83.729 394.191 99.889 394.191C116.049 394.191 132.489 391.991 147.149 387.991C166.319 382.751 186.469 382.751 205.639 387.991C220.299 391.991 236.229 397.091 252.899 397.091C279.369 397.091 303.989 391.551 324.569 382.031" stroke="black" stroke-width="0.68" stroke-miterlimit="10"/>
<path d="M190.91 262.381C201.944 262.381 210.89 257.77 210.89 252.081C210.89 246.393 201.944 241.781 190.91 241.781C179.875 241.781 170.93 246.393 170.93 252.081C170.93 257.77 179.875 262.381 190.91 262.381Z" fill="#3F77E0"/>
<path d="M346.48 37.4281C346.48 32.9581 342.86 29.3281 338.38 29.3281H43.4301C38.9601 29.3281 35.3301 32.9481 35.3301 37.4281H35.3401C35.3401 41.8981 38.9601 45.5281 43.4401 45.5281H51.2701C48.6601 56.3381 47.2801 67.6281 47.2801 79.2481C47.2801 97.8381 50.8201 115.598 57.2501 131.898C58.1501 134.188 59.1101 136.448 60.1301 138.678C60.1301 138.698 60.1501 138.718 60.1601 138.738C61.6801 142.068 63.3201 145.338 65.0801 148.528C65.1001 148.558 65.1101 148.588 65.1301 148.618C66.3001 150.738 67.5301 152.828 68.8001 154.878C68.8201 154.908 68.8301 154.928 68.8501 154.958C70.7501 158.018 72.7601 160.998 74.8801 163.898C74.9301 163.968 74.9901 164.038 75.0401 164.118C76.4401 166.028 77.8901 167.908 79.3801 169.748C79.4201 169.798 79.4601 169.838 79.4901 169.888C80.1901 170.748 80.9101 171.608 81.6301 172.458C81.7001 172.538 81.7601 172.608 81.8301 172.688C83.3401 174.448 84.9001 176.178 86.4901 177.868C86.8901 178.298 87.3001 178.718 87.7001 179.178C88.1001 179.638 88.5601 180.058 89.0101 180.478C89.0801 180.538 89.1401 180.608 89.2001 180.668C90.0301 181.498 90.8701 182.318 91.7201 183.128C91.7801 183.188 91.8401 183.238 91.9001 183.298C92.5501 183.908 93.1901 184.528 93.8501 185.128C94.1101 185.368 94.3701 185.608 94.6401 185.838C96.3201 187.358 98.0301 188.828 99.7801 190.268C99.9401 190.408 100.11 190.538 100.28 190.668C101.04 191.288 101.81 191.898 102.59 192.508C102.72 192.608 102.85 192.708 102.98 192.818C103.87 193.508 104.77 194.188 105.68 194.868C105.78 194.938 105.88 195.018 105.98 195.088C106.78 195.668 107.58 196.248 108.39 196.818C108.61 196.968 108.82 197.118 109.04 197.268C109.88 197.848 110.72 198.428 111.57 198.988C111.65 199.038 111.72 199.088 111.8 199.138C112.73 199.748 113.66 200.348 114.6 200.938C114.8 201.068 115 201.188 115.2 201.318C115.97 201.798 116.74 202.268 117.52 202.728C117.75 202.868 117.99 203.008 118.22 203.148C119.17 203.708 120.13 204.258 121.09 204.798C121.18 204.848 121.28 204.898 121.37 204.948C122.24 205.428 123.11 205.898 123.99 206.368C124.26 206.508 124.53 206.658 124.81 206.798C125.61 207.218 126.41 207.618 127.22 208.018C127.41 208.118 127.61 208.218 127.8 208.308C128.78 208.788 129.77 209.258 130.76 209.718C130.95 209.808 131.14 209.888 131.33 209.978C132.17 210.358 133.01 210.738 133.86 211.098C134.15 211.218 134.43 211.348 134.72 211.468C135.73 211.898 136.75 212.328 137.78 212.728C139.86 213.558 141.86 214.508 143.78 215.578C158.24 223.558 168.24 237.908 170.78 254.358L170.93 257.188C170.93 257.188 170.93 257.188 170.93 257.198C170.93 257.528 170.95 257.858 170.98 258.188C170.79 259.678 170.53 261.158 170.22 262.618C169.24 267.208 167.68 271.608 165.6 275.728C165.57 275.788 165.54 275.838 165.51 275.898C165.05 276.788 164.57 277.668 164.07 278.528C163.53 279.448 162.97 280.348 162.38 281.228C160.53 284.008 158.43 286.618 156.09 289.008C154.82 290.308 153.47 291.548 152.06 292.728C151.12 293.508 150.16 294.258 149.16 294.978C148.66 295.338 148.16 295.688 147.65 296.028C146.12 297.058 144.53 298.008 142.88 298.868C141.23 299.728 139.53 300.528 137.78 301.218C136.68 301.658 135.58 302.118 134.49 302.578C134.22 302.698 133.94 302.808 133.67 302.928C132.59 303.398 131.5 303.878 130.43 304.378C129.36 304.878 128.3 305.388 127.24 305.918C126.97 306.048 126.71 306.178 126.44 306.318C125.39 306.848 124.34 307.388 123.3 307.938C122.26 308.498 121.23 309.068 120.21 309.648C119.95 309.798 119.7 309.938 119.44 310.088C118.42 310.678 117.41 311.268 116.4 311.878C115.4 312.488 114.4 313.118 113.41 313.748C113.16 313.908 112.92 314.068 112.67 314.228C111.69 314.868 110.71 315.518 109.74 316.178C108.77 316.838 107.82 317.518 106.86 318.208C106.62 318.378 106.39 318.548 106.16 318.718C105.21 319.408 104.27 320.108 103.35 320.828C102.42 321.538 101.51 322.268 100.6 323.008C100.37 323.188 100.15 323.378 99.9201 323.558C98.1101 325.038 96.3401 326.568 94.6001 328.138C94.3801 328.328 94.1701 328.528 93.9601 328.728C92.2301 330.308 90.5501 331.928 88.9001 333.598C88.7001 333.808 88.4901 334.008 88.2901 334.218C86.6501 335.888 85.0601 337.598 83.5001 339.348C83.3101 339.568 83.1201 339.778 82.9201 339.998C81.3801 341.758 79.8701 343.558 78.4101 345.388C78.2301 345.618 78.0501 345.838 77.8701 346.068C76.4201 347.908 75.0201 349.798 73.6601 351.708C73.4901 351.948 73.3301 352.178 73.1601 352.418C71.8101 354.338 70.5101 356.298 69.2601 358.288C69.1101 358.538 68.9501 358.778 68.8001 359.028C67.5601 361.028 66.3601 363.058 65.2201 365.128C65.0801 365.378 64.9401 365.638 64.8001 365.888C64.2401 366.918 63.6801 367.958 63.1401 369.008C63.1401 369.008 63.1401 369.008 63.1401 369.018C62.6001 370.068 62.0801 371.128 61.5601 372.198C61.4301 372.458 61.3101 372.728 61.1801 372.988C60.6701 374.058 60.1701 375.128 59.6901 376.208C59.2101 377.288 58.7401 378.378 58.2801 379.478C58.1701 379.748 58.0501 380.028 57.9401 380.298C57.4901 381.388 57.0501 382.488 56.6301 383.598C56.6301 383.598 56.6301 383.608 56.6301 383.618C56.2101 384.728 55.8001 385.848 55.4101 386.978C55.3101 387.258 55.2101 387.538 55.1201 387.818C54.7301 388.938 54.3501 390.068 53.9901 391.198C53.9901 391.198 53.9901 391.208 53.9901 391.218C49.6501 404.918 47.3001 419.518 47.3001 434.658C47.3001 445.768 48.5701 456.568 50.9601 466.958H43.4501C38.9801 466.958 35.3501 470.578 35.3501 475.058H35.3401C35.3401 479.528 38.9601 483.158 43.4401 483.158H338.39C342.86 483.158 346.49 479.538 346.49 475.058C346.49 470.588 342.87 466.958 338.39 466.958H330.88C333.27 456.578 334.54 445.768 334.54 434.658C334.54 416.068 331 398.308 324.57 382.008C323.67 379.718 322.71 377.458 321.69 375.218C321.69 375.198 321.67 375.178 321.66 375.158C320.14 371.828 318.5 368.558 316.74 365.368C316.72 365.338 316.71 365.308 316.69 365.278C315.52 363.158 314.29 361.068 313.02 359.018C313 358.988 312.99 358.968 312.97 358.938C311.07 355.878 309.05 352.898 306.94 349.998C306.89 349.928 306.84 349.858 306.78 349.788C305.38 347.878 303.93 345.998 302.43 344.158C302.33 344.038 302.22 343.918 302.14 343.778C301.73 343.138 301.28 342.528 300.71 342.028C300.44 341.788 300.22 341.498 299.98 341.228C298.47 339.458 296.91 337.738 295.31 336.048C295.11 335.838 294.91 335.628 294.71 335.418C294.06 334.708 293.37 334.038 292.69 333.358C292.66 333.328 292.63 333.298 292.6 333.258C291.77 332.428 290.93 331.608 290.08 330.798C290.02 330.748 289.97 330.698 289.91 330.638C289.24 330.008 288.58 329.378 287.9 328.768C287.65 328.548 287.41 328.318 287.16 328.098C285.48 326.578 283.77 325.108 282.02 323.668C281.85 323.528 281.69 323.398 281.52 323.258C280.75 322.628 279.97 322.008 279.19 321.398C279.07 321.308 278.95 321.208 278.83 321.118C277.94 320.428 277.04 319.748 276.13 319.068C276.03 318.998 275.93 318.918 275.83 318.848C275.03 318.268 274.23 317.688 273.42 317.118C273.2 316.968 272.99 316.818 272.77 316.668C271.93 316.088 271.09 315.508 270.24 314.948C270.16 314.898 270.09 314.848 270.01 314.798C269.08 314.188 268.15 313.588 267.21 312.998C267.02 312.878 266.83 312.758 266.63 312.638C265.85 312.158 265.07 311.678 264.28 311.208C264.05 311.068 263.81 310.928 263.58 310.788C262.63 310.228 261.67 309.678 260.71 309.138C260.62 309.088 260.52 309.038 260.43 308.988C259.56 308.508 258.69 308.038 257.81 307.568C257.54 307.428 257.27 307.278 256.99 307.138C256.19 306.718 255.39 306.318 254.58 305.918C254.39 305.818 254.19 305.718 254 305.628C253.02 305.148 252.03 304.678 251.04 304.218C250.85 304.128 250.66 304.048 250.47 303.958C249.63 303.578 248.79 303.198 247.94 302.838C247.65 302.718 247.37 302.588 247.08 302.468C246.07 302.038 245.05 301.608 244.02 301.208C241.94 300.378 239.94 299.428 238.02 298.358C223.15 290.148 213 275.218 210.82 258.178C210.85 257.848 210.87 257.518 210.87 257.188C210.87 256.768 210.84 256.358 210.8 255.948C210.99 254.388 211.26 252.838 211.59 251.318C212.8 245.668 214.89 240.308 217.74 235.408C217.93 235.078 218.13 234.748 218.33 234.418C220.75 230.468 223.66 226.838 227.01 223.638C227.89 222.798 228.8 221.988 229.74 221.208C230.68 220.428 231.65 219.678 232.64 218.958C233.14 218.598 233.64 218.248 234.15 217.908C235.68 216.878 237.27 215.928 238.92 215.068C240.57 214.208 242.27 213.408 244.02 212.718C245.12 212.278 246.22 211.818 247.31 211.358C247.58 211.238 247.86 211.128 248.13 211.008C249.21 210.538 250.29 210.058 251.37 209.558C252.44 209.058 253.5 208.548 254.56 208.018C254.83 207.888 255.09 207.758 255.36 207.618C256.41 207.088 257.46 206.548 258.5 205.998C259.54 205.438 260.57 204.868 261.59 204.288C261.85 204.138 262.1 203.998 262.36 203.848C263.38 203.258 264.39 202.668 265.4 202.058C266.4 201.448 267.4 200.818 268.39 200.188C268.64 200.028 268.88 199.868 269.13 199.708C270.11 199.068 271.09 198.418 272.06 197.758C273.03 197.098 273.98 196.418 274.94 195.728C275.18 195.558 275.41 195.388 275.65 195.218C276.6 194.528 277.54 193.828 278.46 193.108C279.39 192.398 280.3 191.668 281.21 190.928C281.44 190.748 281.66 190.558 281.89 190.378C283.7 188.898 285.47 187.368 287.21 185.798C287.43 185.608 287.64 185.408 287.85 185.208C289.58 183.628 291.26 182.008 292.91 180.338C293.11 180.128 293.32 179.928 293.52 179.718C295.16 178.048 296.75 176.338 298.31 174.588C298.5 174.368 298.69 174.158 298.89 173.938C300.43 172.178 301.94 170.378 303.4 168.548C303.58 168.318 303.76 168.098 303.94 167.868C305.39 166.028 306.79 164.138 308.15 162.228C308.32 161.988 308.48 161.758 308.65 161.518C310 159.598 311.3 157.638 312.55 155.648C312.7 155.398 312.86 155.158 313.01 154.908C314.25 152.908 315.45 150.878 316.59 148.808C316.73 148.558 316.87 148.298 317.01 148.048C317.57 147.018 318.13 145.978 318.67 144.928C318.67 144.928 318.67 144.928 318.67 144.918C319.21 143.868 319.73 142.808 320.25 141.738C320.38 141.478 320.5 141.208 320.63 140.948C321.14 139.878 321.64 138.808 322.12 137.728C322.6 136.648 323.07 135.558 323.53 134.458C323.64 134.188 323.76 133.908 323.87 133.638C324.32 132.548 324.76 131.448 325.18 130.338C325.18 130.338 325.18 130.328 325.18 130.318C325.6 129.208 326.01 128.088 326.4 126.958C326.5 126.678 326.6 126.398 326.69 126.118C327.08 124.998 327.46 123.868 327.82 122.738C327.82 122.738 327.82 122.728 327.82 122.718C332.16 109.018 334.51 94.4181 334.51 79.2781C334.51 67.6681 333.13 56.3781 330.52 45.5581H338.35C342.82 45.5581 346.45 41.9381 346.45 37.4581L346.48 37.4281Z" stroke="black" stroke-width="0.68" stroke-miterlimit="10"/>
<path d="M580.88 128.829C604.827 128.829 624.24 109.416 624.24 85.4694C624.24 61.5223 604.827 42.1094 580.88 42.1094C556.932 42.1094 537.52 61.5223 537.52 85.4694C537.52 109.416 556.932 128.829 580.88 128.829Z" fill="white"/>
<path d="M580.881 125.047C602.74 125.047 620.461 107.326 620.461 85.4667C620.461 63.6073 602.74 45.8867 580.881 45.8867C559.021 45.8867 541.301 63.6073 541.301 85.4667C541.301 107.326 559.021 125.047 580.881 125.047Z" fill="white" stroke="black" stroke-width="0.68" stroke-miterlimit="10"/>
<path d="M580.88 128.829C604.827 128.829 624.24 109.416 624.24 85.4694C624.24 61.5223 604.827 42.1094 580.88 42.1094C556.932 42.1094 537.52 61.5223 537.52 85.4694C537.52 109.416 556.932 128.829 580.88 128.829Z" stroke="black" stroke-width="0.68" stroke-miterlimit="10"/>
<path d="M580.881 55.3164V85.4664H601.251" stroke="black" stroke-width="0.68" stroke-miterlimit="10"/>
<path d="M501.592 281.856C501.342 280.246 501.652 278.556 502.262 276.916C503.782 272.776 507.162 268.936 508.142 267.276L508.222 267.066C513.012 268.966 519.712 268.236 522.472 267.806L522.582 268.516C522.562 272.286 523.262 276.006 523.982 279.716L530.692 278.676L533.302 271.766L543.942 270.646V305.396L508.102 309.856L506.552 310.056C506.292 310.056 505.982 310.086 505.622 310.166H505.602L493.442 311.686C493.382 311.696 493.342 311.696 493.342 311.696V282.366L501.592 281.856Z" fill="white"/>
<path d="M532.541 507.596C532.541 508.946 531.451 510.036 530.101 510.036H499.891C497.631 510.036 496.581 507.226 498.291 505.746L501.031 503.386C501.761 502.746 502.051 501.736 501.761 500.806C501.401 499.676 500.861 497.936 500.161 495.666L500.451 495.576C500.551 495.856 500.981 496.006 501.321 496.046C511.491 497.176 521.831 496.796 531.891 494.906C532.411 501.706 532.541 505.506 532.541 507.596Z" fill="white"/>
<path d="M463.652 331.126C462.782 323.736 461.672 314.506 460.572 306.166C460.572 306.146 460.572 306.116 460.572 306.086C460.362 303.476 460.232 301.696 460.232 301.696L458.492 291.736L458.302 290.636C458.232 290.186 458.152 289.756 458.082 289.346L457.982 288.806C457.852 289.556 451.012 329.736 461.752 355.386C461.702 356.706 461.692 358.026 461.712 359.346C461.862 368.436 461.972 395.586 458.382 417.896C453.602 447.646 449.312 480.236 447.122 497.566L446.862 497.536C437.762 498.576 428.502 498.206 419.512 496.456L419.042 496.496C406.462 357.206 433.712 249.426 438.552 231.706C438.632 231.426 438.702 231.136 438.772 230.856C438.772 230.856 457.382 242.686 495.292 238.976L493.352 231.846V228.996C493.352 228.996 493.372 228.866 493.402 228.656C493.482 230.356 493.722 232.056 494.112 233.726C495.952 241.736 500.542 257.086 502.272 276.906C501.662 278.556 501.352 280.246 501.602 281.856L493.352 282.366V286.836H486.612V319.886L508.872 317.876C509.522 325.036 510.382 335.686 510.632 344.286C510.822 350.856 511.612 357.396 513.012 363.816C516.402 379.516 522.692 411.186 527.232 449.606C529.862 471.836 531.212 485.966 531.902 494.906C521.842 496.796 511.502 497.176 501.332 496.046C500.992 496.006 500.562 495.856 500.462 495.576L500.172 495.666C493.032 472.576 469.792 394.636 465.262 345.136C465.262 345.136 464.612 339.246 463.662 331.126H463.652Z" fill="white"/>
<path d="M458.642 146.557C458.342 146.227 454.362 141.948 454.622 140.548C454.882 139.078 462.702 139.197 462.702 139.197L462.952 143.868V143.887C464.482 143.117 466.002 141.947 467.432 140.627L470.062 141.007C473.972 140.647 477.852 139.947 481.652 138.927C481.532 138.697 481.422 138.477 481.302 138.257H481.192C481.142 137.727 481.092 137.197 481.052 136.688C481.052 136.688 486.702 137.078 486.922 137.618C487.142 138.158 485.402 144.667 485.402 144.667C485.402 144.667 502.652 146.107 509.182 149.887C514.252 152.807 524.722 188.337 526.282 210.917C527.262 225.127 525.912 263.198 523.732 267.598C523.732 267.598 523.262 267.697 522.462 267.807C519.702 268.237 513.002 268.967 508.212 267.068C507.792 266.908 507.392 266.717 507.012 266.518L503.962 220.438C503.892 219.298 503.722 218.157 503.462 217.037C502.682 213.707 500.832 205.967 498.922 198.667C498.862 198.447 498.802 198.227 498.742 197.997C498.752 197.987 498.742 197.977 498.742 197.977C498.682 197.147 498.482 196.247 498.042 195.357C496.862 190.997 495.702 187.087 494.812 184.757C494.812 184.727 494.792 184.708 494.792 184.708C494.672 185.158 491.082 199.188 497.222 208.048C496.592 212.128 496.012 216.867 495.912 220.917C495.832 224.037 497.422 225.537 494.302 225.717C493.992 225.737 493.672 225.757 493.332 225.777C493.022 225.797 492.692 225.817 492.352 225.837C492.052 225.697 491.662 225.647 491.162 225.717C490.722 225.777 489.702 225.928 488.212 226.128H488.192C477.432 226.878 461.282 228.058 454.612 227.318C452.502 227.088 450.012 226.978 447.582 226.717C445.472 226.397 443.432 225.987 441.492 225.477C441.492 225.477 440.702 224.757 440.142 224.867C440.032 224.797 439.932 224.738 439.822 224.658C439.482 224.427 439.192 224.147 438.962 223.798C438.382 222.918 438.392 221.798 438.402 220.747C438.542 211.807 438.902 201.887 438.302 192.447C438.152 192.757 438.002 193.057 437.862 193.357C438.082 192.438 438.152 191.538 438.002 190.738L437.412 183.777C437.412 184.047 433.982 199.288 433.632 201.268C419.632 224.678 407.372 218.058 398.142 207.658C387.882 196.088 376.972 172.647 376.972 172.647C376.882 171.307 377.462 169.908 378.402 168.577C379.372 169.257 380.452 170.207 380.472 171.007L394.172 169.607C396.212 172.597 398.602 175.987 401.242 178.827C406.992 185.028 411.282 190.017 412.032 190.897C412.072 190.937 412.112 190.977 412.152 191.027C412.442 190.437 422.642 169.017 426.972 154.717C431.312 140.427 457.862 146.387 458.632 146.557H458.642Z" fill="white"/>
<path d="M508.852 317.676L508.872 317.876H508.862C508.862 317.806 508.862 317.746 508.862 317.676H508.852Z" fill="black"/>
<path d="M508.852 317.676C508.852 317.746 508.852 317.806 508.852 317.876L486.592 319.886V286.836H493.332V311.696C493.332 311.696 493.372 311.696 493.432 311.686C494.442 311.586 502.612 310.786 505.592 310.166H505.612L506.542 310.056C508.622 309.976 508.092 311.696 508.092 311.696L508.842 317.676H508.852Z" fill="black"/>
<path d="M506.551 310.055L505.621 310.165C505.981 310.085 506.291 310.055 506.551 310.055Z" fill="black"/>
<path d="M498.752 197.997C498.812 198.557 498.792 199.087 498.752 199.547V199.567C498.652 200.047 498.522 200.687 498.372 201.477V201.537C498.042 203.177 497.642 205.387 497.262 207.867L497.232 208.047C491.092 199.187 494.682 185.157 494.802 184.707C494.802 184.727 494.802 184.737 494.822 184.757C494.992 185.477 496.682 192.507 498.052 195.347C498.282 196.217 498.522 197.097 498.752 197.977C498.752 197.977 498.762 197.987 498.752 197.997Z" fill="black"/>
<path d="M498.751 197.975C498.521 197.095 498.281 196.215 498.051 195.355C498.491 196.245 498.691 197.145 498.751 197.975Z" fill="black"/>
<path d="M498.371 201.476C498.521 200.686 498.651 200.046 498.751 199.566C498.651 200.706 498.371 201.476 498.371 201.476Z" fill="black"/>
<path d="M498.362 201.535L497.262 207.865C497.642 205.385 498.042 203.175 498.362 201.535Z" fill="black"/>
<path d="M493.342 231.847L495.282 238.977C457.372 242.687 438.762 230.857 438.762 230.857C438.762 230.857 438.762 230.847 438.762 230.837C438.862 230.607 439.722 228.577 439.632 226.207L439.752 225.237C439.842 225.017 439.982 224.907 440.142 224.867C440.572 225.117 441.032 225.307 441.492 225.477C443.272 226.147 445.402 226.487 447.582 226.717C462.652 229.057 480.922 227.077 488.192 226.127H488.212C489.712 226.017 491.102 225.927 492.352 225.837C492.962 226.107 493.232 226.707 493.332 227.307C493.332 227.307 493.332 227.314 493.332 227.327C493.332 227.767 493.352 228.207 493.382 228.657C493.352 228.867 493.332 228.997 493.332 228.997V231.847H493.342Z" fill="black"/>
<path d="M494.821 184.757C494.821 184.757 494.821 184.727 494.801 184.707C494.801 184.707 494.801 184.727 494.821 184.757Z" fill="black"/>
<path d="M493.342 227.328C493.442 227.828 493.422 228.338 493.392 228.658C493.362 228.208 493.352 227.768 493.342 227.328Z" fill="black"/>
<path d="M491.171 225.715C491.671 225.645 492.061 225.695 492.361 225.835C491.111 225.925 489.721 226.015 488.221 226.125C489.711 225.925 490.731 225.775 491.171 225.715Z" fill="black"/>
<path d="M457.782 110.256V110.316C457.532 111.816 457.352 113.336 457.212 114.846V114.896C457.212 114.896 456.142 113.666 456.312 110.026C456.312 110.026 451.362 106.276 455.222 101.556C459.082 96.8363 480.112 90.5363 483.062 101.556C483.062 101.556 488.722 104.106 488.882 111.166C489.052 118.226 481.472 127.836 481.472 127.836L481.282 123.116C481.282 123.116 481.232 123.026 481.182 122.876C481.202 122.266 481.232 121.636 481.252 120.986C481.402 120.746 481.642 120.526 481.992 120.336C483.652 119.626 485.002 118.266 485.612 116.666C485.852 116.046 485.982 115.376 485.892 114.726C485.842 114.406 485.732 114.086 485.572 113.796C485.572 113.796 485.572 113.796 485.572 113.776C484.502 111.656 481.612 112.006 480.782 114.076C480.782 114.076 480.712 116.036 480.002 117.216L478.482 116.616L478.702 112.616C478.702 112.616 467.922 108.776 465.272 103.296C465.272 103.296 465.232 109.046 467.022 111.116C467.022 111.116 462.032 110.656 462.762 104.316C462.762 104.316 460.842 108.196 457.802 110.256H457.782Z" fill="black"/>
<path d="M485.892 114.727C485.982 115.377 485.852 116.047 485.612 116.667C485.002 118.267 483.652 119.627 481.992 120.337C483.722 119.417 486.622 115.927 485.572 113.797C485.732 114.087 485.842 114.407 485.892 114.727Z" fill="black"/>
<path d="M474.881 131.705C475.001 131.535 475.071 131.425 475.101 131.375C474.231 132.285 471.591 133.995 468.891 134.695C468.891 134.705 468.871 134.715 468.861 134.705C467.621 134.935 466.371 134.985 465.191 134.845C464.381 134.675 463.641 134.525 463.171 134.425C463.151 134.425 463.131 134.425 463.121 134.425C462.441 134.195 461.801 133.895 461.241 133.515C455.421 129.615 456.561 122.295 457.061 116.445C457.101 115.935 457.151 115.415 457.201 114.905V114.855L457.771 110.325V110.265C460.821 108.205 462.741 104.325 462.741 104.325C462.011 110.665 467.001 111.125 467.001 111.125C465.211 109.055 465.251 103.305 465.251 103.305C467.901 108.785 478.681 112.625 478.681 112.625L478.461 116.625L479.981 117.225C480.691 116.045 480.761 114.095 480.761 114.095C481.061 113.635 481.491 113.245 482.001 112.975C482.901 112.505 484.091 112.495 484.891 113.055C485.161 113.255 485.381 113.505 485.551 113.785C485.551 113.795 485.551 113.795 485.551 113.805C486.601 115.935 483.701 119.425 481.971 120.345C481.731 120.455 481.491 120.535 481.241 120.615C481.241 120.745 481.231 120.875 481.231 120.995C480.771 121.675 480.991 122.485 481.161 122.885C480.951 127.625 480.621 131.315 481.031 136.695C481.071 137.205 481.121 137.735 481.171 138.275H481.281C481.401 138.485 481.511 138.705 481.631 138.935C477.831 139.955 473.951 140.655 470.041 141.015L467.411 140.635C471.031 137.285 474.031 132.965 474.861 131.715L474.881 131.705Z" fill="white"/>
<path d="M481.251 120.984C481.231 121.634 481.201 122.264 481.181 122.874C481.011 122.474 480.791 121.664 481.251 120.984Z" fill="black"/>
<path d="M475.101 131.375C475.101 131.375 475.001 131.535 474.881 131.705C473.261 133.285 471.101 134.275 468.891 134.695C471.591 133.995 474.231 132.285 475.101 131.375Z" fill="black"/>
<path d="M474.881 131.705C474.051 132.955 471.051 137.275 467.431 140.625C466.001 141.945 464.481 143.115 462.951 143.885V143.865C462.941 140.975 462.711 136.535 462.621 134.315C462.621 134.315 462.811 134.355 463.121 134.415C463.131 134.415 463.151 134.415 463.171 134.415C463.801 134.625 464.481 134.765 465.191 134.835C465.271 134.855 465.361 134.875 465.451 134.895C466.501 135.115 467.691 135.005 468.861 134.695C468.871 134.695 468.881 134.695 468.891 134.685C471.101 134.265 473.261 133.275 474.881 131.695V131.705Z" fill="black"/>
<path d="M463.172 134.426C463.642 134.526 464.382 134.676 465.192 134.846C464.482 134.776 463.802 134.636 463.172 134.426Z" fill="black"/>
<path d="M462.951 326.895C463.551 328.365 463.501 332.015 463.331 335.055C463.331 335.065 463.321 335.085 463.331 335.105L463.281 335.745L462.981 339.445C462.961 339.645 462.951 339.755 462.951 339.755L462.871 340.815L461.911 352.755C461.841 353.635 461.781 354.505 461.741 355.385C451.001 329.735 457.841 289.555 457.971 288.805L458.071 289.345L458.291 290.635L458.481 291.735C459.121 295.635 459.831 300.675 460.561 306.085C460.561 306.115 460.561 306.145 460.561 306.165C461.091 312.875 462.151 324.945 462.941 326.895H462.951Z" fill="black"/>
<path d="M463.281 335.745L463.331 335.105C463.311 335.315 463.301 335.535 463.281 335.745Z" fill="black"/>
<path d="M462.98 339.446L463.28 335.746C463.18 337.436 463.04 338.846 462.98 339.446Z" fill="black"/>
<path d="M462.951 143.866L462.701 139.196L462.621 134.316C462.711 136.536 462.941 140.976 462.951 143.866Z" fill="black"/>
<path d="M461.912 352.756L462.872 340.816L461.752 355.406C461.752 355.406 461.742 355.396 461.742 355.386C461.782 354.506 461.842 353.636 461.912 352.756Z" fill="black"/>
<path d="M460.22 301.694C460.22 301.694 460.35 303.474 460.56 306.084C459.83 300.674 459.12 295.634 458.48 291.734L460.22 301.694Z" fill="black"/>
<path d="M457.771 110.316L457.211 114.846C457.351 113.336 457.531 111.816 457.771 110.316Z" fill="black"/>
<path d="M446.85 497.537L447.11 497.567C446.51 502.237 446.07 505.797 445.81 507.897C445.67 509.117 444.63 510.037 443.4 510.037H416.12C413.85 510.037 412.81 507.207 414.54 505.737L418.53 502.337C419.13 501.827 419.45 501.047 419.37 500.257C419.25 498.997 419.13 497.747 419.03 496.497L419.5 496.457C428.49 498.207 437.75 498.577 446.85 497.537Z" fill="white"/>
<path d="M441.502 225.477C443.442 225.987 445.482 226.397 447.592 226.717C445.412 226.487 443.282 226.147 441.502 225.477Z" fill="black"/>
<path d="M440.152 224.867C440.712 224.757 441.502 225.477 441.502 225.477C441.042 225.307 440.582 225.117 440.152 224.867Z" fill="black"/>
<path d="M439.761 225.234L439.641 226.204C439.621 225.754 439.671 225.444 439.761 225.234Z" fill="black"/>
<path d="M438.011 190.737C438.161 191.537 438.091 192.437 437.871 193.357C436.441 196.307 435.031 198.937 433.641 201.267C433.991 199.287 437.421 184.047 437.421 183.777L438.011 190.737Z" fill="black"/>
<path d="M433.641 201.265C435.031 198.935 436.441 196.305 437.871 193.355C437.001 197.085 433.771 201.245 433.621 201.475C433.611 201.495 433.621 201.425 433.641 201.265Z" fill="black"/>
<path d="M393.972 169.316C394.042 169.416 394.112 169.516 394.182 169.606L380.482 171.006C380.462 170.206 379.382 169.256 378.412 168.576C380.052 166.256 382.792 164.146 384.972 162.946L386.682 162.136C387.182 161.946 387.592 161.866 387.882 161.886C388.202 161.906 388.592 162.166 389.042 162.596L389.072 162.626C389.472 163.106 393.042 168.046 393.962 169.316H393.972Z" fill="white"/>
<path d="M386.751 162.107C388.541 161.277 388.881 162.447 389.051 162.597C388.601 162.167 388.211 161.907 387.891 161.887C387.601 161.867 387.191 161.947 386.691 162.137L386.751 162.107Z" fill="white"/>
<path d="M373.071 153.137C373.071 153.137 373.081 153.167 373.081 153.187C373.081 153.187 373.101 153.167 373.071 153.137ZM373.071 153.137C373.021 152.937 372.961 152.747 372.891 152.567C372.061 150.457 370.231 149.677 369.411 148.117C368.521 146.407 370.061 146.897 370.061 146.897C371.341 147.087 372.481 147.367 373.501 147.717C375.551 148.777 377.581 149.897 379.341 151.377C379.521 151.527 379.691 151.687 379.871 151.877C380.941 153.087 381.661 154.287 382.281 155.207C382.321 155.267 382.351 155.327 382.381 155.377C383.991 157.947 384.981 162.947 384.981 162.947C382.801 164.147 380.061 166.257 378.421 168.577C378.071 168.327 377.731 168.117 377.461 167.957C377.251 167.837 377.081 167.757 376.981 167.707C376.361 167.427 375.891 166.847 369.211 165.537C369.201 165.537 369.191 165.537 369.181 165.527C368.771 165.407 368.351 165.277 367.941 165.157C362.251 162.807 360.321 153.137 360.191 152.137C362.271 152.517 364.371 152.787 366.481 152.947C367.231 152.997 367.991 153.047 368.751 153.047H368.761C369.721 153.177 370.541 153.247 371.041 153.187C372.511 153.017 372.941 153.067 373.061 153.127L373.071 153.137Z" fill="white"/>
<path d="M379.862 151.875C379.682 151.685 379.512 151.525 379.332 151.375C377.572 149.895 375.542 148.775 373.492 147.715C376.532 148.725 378.492 150.315 379.862 151.875Z" fill="white"/>
<path d="M373.072 153.137L373.082 153.187C373.082 153.167 373.072 153.157 373.072 153.137Z" fill="white"/>
<path d="M367.932 165.156C368.342 165.276 368.762 165.406 369.172 165.526C368.742 165.446 368.322 165.316 367.932 165.156Z" fill="white"/>
<path d="M368.741 153.048C367.981 153.048 367.221 152.998 366.471 152.948C364.361 152.788 362.261 152.518 360.181 152.138C360.071 151.308 365.331 152.578 368.741 153.048Z" fill="white"/>
<path d="M474.881 131.708C474.991 131.618 475.081 131.518 475.181 131.418" stroke="black" stroke-miterlimit="10"/>
<path d="M465.191 134.847C466.371 134.987 467.621 134.937 468.861 134.707" stroke="black" stroke-miterlimit="10"/>
<path d="M457.201 114.898C457.151 115.408 457.101 115.928 457.061 116.438C456.561 122.288 455.421 129.608 461.241 133.508C461.801 133.888 462.441 134.188 463.121 134.418" stroke="black" stroke-miterlimit="10"/>
<path d="M471.771 117.219C471.911 117.309 471.981 117.479 471.971 117.639C471.961 117.799 471.891 117.959 471.781 118.079C471.731 118.139 471.641 118.199 471.581 118.149C471.521 118.109 471.551 118.019 471.591 117.959C471.661 117.829 471.741 117.699 471.811 117.569" stroke="black" stroke-miterlimit="10"/>
<path d="M461.591 116.797C461.731 116.897 461.791 117.057 461.791 117.227C461.781 117.387 461.701 117.537 461.601 117.667C461.551 117.727 461.461 117.777 461.391 117.737C461.341 117.687 461.371 117.607 461.391 117.547C461.471 117.407 461.541 117.277 461.621 117.147" stroke="black" stroke-miterlimit="10"/>
<path d="M485.561 113.778C485.391 113.498 485.171 113.248 484.901 113.048C484.101 112.488 482.912 112.498 482.012 112.968C481.502 113.238 481.071 113.628 480.771 114.078" stroke="black" stroke-miterlimit="10"/>
<path d="M481.262 120.606C481.512 120.526 481.752 120.446 481.992 120.336" stroke="black" stroke-miterlimit="10"/>
<path d="M483.861 115.079C483.651 114.859 483.251 114.849 482.961 114.999C482.671 115.149 482.481 115.409 482.311 115.679C481.861 116.399 481.571 117.209 481.471 118.039" stroke="black" stroke-width="0.25" stroke-miterlimit="10"/>
<path d="M482.841 116.397C482.781 116.207 482.521 116.137 482.321 116.197C482.121 116.267 481.971 116.427 481.871 116.597" stroke="black" stroke-width="0.25" stroke-miterlimit="10"/>
<path d="M481.181 122.879C480.971 127.619 480.641 131.309 481.051 136.689C481.091 137.199 481.141 137.729 481.191 138.269" stroke="black" stroke-miterlimit="10"/>
<path d="M481.262 120.609C481.262 120.739 481.252 120.869 481.252 120.989" stroke="black" stroke-miterlimit="10"/>
<path d="M462.952 143.887C462.952 144.417 462.952 144.877 462.932 145.277" stroke="black" stroke-miterlimit="10"/>
<path d="M465.68 116.797C465.22 118.537 464.92 120.317 464.82 122.097" stroke="black" stroke-miterlimit="10"/>
<path d="M473.511 114.056C472.911 113.626 472.151 113.406 471.391 113.446" stroke="black" stroke-miterlimit="10"/>
<path d="M462.741 114.087C462.141 113.657 461.371 113.437 460.621 113.477" stroke="black" stroke-miterlimit="10"/>
<path d="M468.141 124.367C467.471 124.847 466.681 125.177 465.871 125.307" stroke="black" stroke-miterlimit="10"/>
<path d="M372.891 147.406C373.091 147.506 373.291 147.616 373.491 147.716C375.541 148.776 377.571 149.896 379.331 151.376C379.511 151.526 379.681 151.686 379.861 151.876C380.731 152.746 381.581 153.946 382.271 155.206C382.311 155.266 382.341 155.326 382.371 155.376C383.031 156.616 383.551 157.886 383.791 158.966" stroke="black" stroke-miterlimit="10"/>
<path d="M359.121 151.938C359.471 152.008 359.821 152.077 360.181 152.137C362.261 152.517 364.361 152.787 366.471 152.947C367.221 152.997 367.981 153.048 368.741 153.048H368.751C370.061 153.068 371.371 152.997 372.661 152.757" stroke="black" stroke-miterlimit="10"/>
<path d="M362.592 156.547C363.682 156.867 364.802 157.047 365.942 157.077" stroke="black" stroke-miterlimit="10"/>
<path d="M364.711 160.809C366.001 161.069 367.311 161.219 368.621 161.259" stroke="black" stroke-miterlimit="10"/>
<path d="M366.852 164.828L367.932 165.158C368.342 165.278 368.762 165.408 369.172 165.528C369.172 165.538 369.192 165.538 369.202 165.538C369.842 165.728 370.472 165.928 371.112 166.118C371.552 166.248 371.982 166.378 372.422 166.498C373.592 166.798 375.902 167.688 377.452 167.958C377.752 168.008 378.022 168.038 378.252 168.038" stroke="black" stroke-miterlimit="10"/>
<path d="M375.46 156.966C375 156.236 374.36 155.646 373.89 154.926C373.52 154.376 373.27 153.766 373.06 153.136C373 152.956 372.94 152.766 372.89 152.576C372.84 152.416 372.79 152.246 372.74 152.086" stroke="black" stroke-miterlimit="10"/>
<path d="M412.042 190.9C411.292 190.02 407.002 185.03 401.252 178.83C398.612 175.99 396.222 172.6 394.182 169.61C394.112 169.52 394.042 169.42 393.972 169.32C391.972 166.37 390.302 163.83 389.082 162.63L389.052 162.6C388.602 162.17 388.212 161.91 387.892 161.89C387.602 161.87 387.192 161.95 386.692 162.14C386.192 162.32 385.612 162.6 384.982 162.95C382.802 164.15 380.062 166.26 378.422 168.58C377.482 169.91 376.902 171.31 376.992 172.65C376.992 172.65 387.902 196.09 398.162 207.66C407.392 218.06 419.652 224.68 433.652 201.27C435.042 198.94 436.452 196.31 437.882 193.36C438.022 193.06 438.172 192.76 438.322 192.45C438.352 192.39 438.382 192.32 438.412 192.25" stroke="black" stroke-miterlimit="10"/>
<path d="M458.64 146.559C457.87 146.389 431.32 140.429 426.98 154.719C422.65 169.019 412.45 190.439 412.16 191.029" stroke="black" stroke-miterlimit="10"/>
<path d="M462.702 139.198C462.702 139.198 454.882 139.078 454.622 140.548C454.362 141.948 458.342 146.228 458.642 146.558C458.642 146.568 458.662 146.568 458.662 146.568" stroke="black" stroke-miterlimit="10"/>
<path d="M414.581 193.907C413.841 192.897 413.031 191.927 412.161 191.027C412.121 190.977 412.081 190.937 412.041 190.897C411.901 190.747 411.751 190.597 411.611 190.457" stroke="black" stroke-miterlimit="10"/>
<path d="M481.302 138.258C481.422 138.478 481.532 138.698 481.652 138.928C477.852 139.948 473.972 140.648 470.062 141.008C471.332 142.698 472.602 144.388 473.872 146.088C472.882 147.138 471.182 146.818 469.772 147.108C469.422 147.178 469.072 147.308 468.852 147.578C468.572 147.928 468.582 148.418 468.552 148.868C468.472 150.058 468.002 151.238 467.122 152.048C466.252 152.848 464.942 153.218 463.822 152.838C461.972 152.228 461.202 149.978 461.302 148.038" stroke="black" stroke-miterlimit="10"/>
<path d="M498.05 195.348C496.87 190.998 495.71 187.088 494.82 184.758" stroke="black" stroke-miterlimit="10"/>
<path d="M481.061 136.688C481.061 136.688 486.711 137.078 486.931 137.618C487.151 138.158 485.411 144.667 485.411 144.667C485.411 144.667 502.661 146.107 509.191 149.887C514.261 152.807 524.731 188.337 526.291 210.917C527.271 225.127 525.921 263.198 523.741 267.598C523.741 267.598 523.271 267.697 522.471 267.807C519.711 268.237 513.011 268.968 508.221 267.068C507.801 266.908 507.401 266.718 507.021 266.518L503.971 220.438C503.901 219.298 503.731 218.157 503.471 217.037C502.691 213.707 500.841 205.967 498.931 198.667C498.871 198.447 498.811 198.227 498.751 197.997" stroke="black" stroke-miterlimit="10"/>
<path d="M440.151 224.87C440.041 224.8 439.941 224.74 439.831 224.66C439.491 224.43 439.201 224.15 438.971 223.8C438.391 222.92 438.401 221.8 438.411 220.75C438.551 211.81 438.911 201.89 438.311 192.45C438.071 188.61 437.661 184.85 437.021 181.27" stroke="black" stroke-miterlimit="10"/>
<path d="M488.202 226.129C477.442 226.879 461.292 228.059 454.622 227.319C452.512 227.089 450.022 226.979 447.592 226.719" stroke="black" stroke-miterlimit="10"/>
<path d="M497.231 208.047C496.601 212.127 496.021 216.867 495.921 220.917C495.841 224.037 497.431 225.537 494.311 225.717C494.001 225.737 493.681 225.757 493.341 225.777C493.031 225.797 492.701 225.817 492.361 225.837" stroke="black" stroke-miterlimit="10"/>
<path d="M498.932 198.668C498.932 198.668 498.862 198.978 498.752 199.548" stroke="black" stroke-miterlimit="10"/>
<path d="M463.332 335.056L463.652 331.126V331.086" stroke="black" stroke-miterlimit="10"/>
<path d="M438.76 230.859C438.69 231.139 438.62 231.429 438.54 231.709C433.7 249.429 406.45 357.209 419.03 496.499C419.13 497.749 419.25 498.999 419.37 500.259C419.45 501.049 419.13 501.829 418.53 502.339L414.54 505.739C412.81 507.209 413.85 510.039 416.12 510.039H443.4C444.63 510.039 445.67 509.119 445.81 507.899C446.07 505.799 446.51 502.239 447.11 497.569C449.3 480.239 453.59 447.649 458.37 417.899C461.96 395.589 461.85 368.439 461.7 359.349C461.68 358.029 461.69 356.709 461.74 355.389" stroke="black" stroke-miterlimit="10"/>
<path d="M439.642 226.207C439.442 227.767 439.151 229.307 438.771 230.837" stroke="black" stroke-miterlimit="10"/>
<path d="M439.832 224.656L439.762 225.236" stroke="black" stroke-miterlimit="10"/>
<path d="M522.58 268.52C522.56 272.29 523.261 276.01 523.981 279.72C524.681 283.43 525.401 287.15 525.371 290.92" stroke="black" stroke-miterlimit="10"/>
<path d="M520.611 286.996C521.171 288.666 521.371 290.456 521.191 292.206" stroke="black" stroke-miterlimit="10"/>
<path d="M516.311 287.797C516.491 289.367 516.501 290.957 516.331 292.537" stroke="black" stroke-miterlimit="10"/>
<path d="M510.491 293.328C510.771 290.158 510.391 286.928 509.361 283.918C509.061 283.038 508.691 282.148 508.081 281.458C507.461 280.758 506.541 280.268 505.621 280.358" stroke="black" stroke-miterlimit="10"/>
<path d="M502.261 276.918C501.651 278.558 501.341 280.248 501.591 281.858" stroke="black" stroke-miterlimit="10"/>
<path d="M508.142 267.277C507.162 268.937 503.782 272.777 502.262 276.907" stroke="black" stroke-miterlimit="10"/>
<path d="M493.342 286.837V282.367L501.592 281.857L508.082 281.457" stroke="black" stroke-miterlimit="10"/>
<path d="M505.601 310.168L493.441 311.688" stroke="black" stroke-miterlimit="10"/>
<path d="M523.981 279.718L530.691 278.678L533.301 271.768L543.941 270.648V305.398L508.101 309.858L506.551 310.058" stroke="black" stroke-miterlimit="10"/>
<path d="M493.391 228.656C493.471 230.356 493.711 232.056 494.101 233.726C495.941 241.736 500.531 257.086 502.261 276.906" stroke="black" stroke-miterlimit="10"/>
<path d="M493.342 225.719V227.309" stroke="black" stroke-miterlimit="10"/>
<path d="M458.29 290.638C458.22 290.188 458.14 289.758 458.07 289.348" stroke="black" stroke-miterlimit="10"/>
<path d="M508.86 317.878C509.51 325.038 510.37 335.688 510.62 344.288C510.81 350.858 511.6 357.398 513 363.818C516.39 379.518 522.68 411.188 527.22 449.608C529.85 471.838 531.2 485.968 531.89 494.908C532.41 501.708 532.54 505.508 532.54 507.598C532.54 508.948 531.45 510.038 530.1 510.038H499.89C497.63 510.038 496.58 507.228 498.29 505.748L501.03 503.388C501.76 502.748 502.05 501.738 501.76 500.808C501.4 499.678 500.86 497.938 500.16 495.668C493.02 472.578 469.78 394.638 465.25 345.138C465.25 345.138 464.6 339.248 463.65 331.128C462.78 323.738 461.67 314.508 460.57 306.168" stroke="black" stroke-miterlimit="10"/>
<path d="M508.102 309.859C508.102 309.859 508.432 312.999 508.852 317.679" stroke="black" stroke-miterlimit="10"/>
<path d="M494.8 184.709C494.29 183.389 493.86 182.599 493.57 182.539" stroke="black" stroke-miterlimit="10"/>
<path d="M457.971 288.807C457.421 285.827 456.961 283.997 456.631 283.887" stroke="black" stroke-miterlimit="10"/>
<path d="M463.451 164.828C463.861 165.048 464.231 165.358 464.481 165.758C464.721 166.128 464.851 166.598 464.711 167.018C464.581 167.428 464.111 167.748 463.691 167.618C463.271 167.488 463.111 166.828 463.471 166.578" stroke="black" stroke-width="0.25" stroke-miterlimit="10"/>
<path d="M462.161 176.809C462.581 177.019 462.941 177.339 463.191 177.729C463.431 178.099 463.561 178.569 463.421 178.989C463.291 179.409 462.821 179.729 462.401 179.589C461.981 179.459 461.821 178.799 462.191 178.559" stroke="black" stroke-width="0.25" stroke-miterlimit="10"/>
<path d="M461.771 188.777C462.191 188.987 462.551 189.307 462.801 189.697C463.041 190.077 463.171 190.537 463.041 190.957C462.901 191.377 462.431 191.697 462.011 191.567C461.591 191.427 461.431 190.767 461.801 190.527" stroke="black" stroke-width="0.25" stroke-miterlimit="10"/>
<path d="M461.39 200.746C461.8 200.966 462.17 201.276 462.42 201.676C462.65 202.046 462.79 202.516 462.65 202.926C462.51 203.346 462.04 203.666 461.62 203.536C461.2 203.406 461.04 202.746 461.41 202.496" stroke="black" stroke-width="0.25" stroke-miterlimit="10"/>
<path d="M461.902 212.727C462.322 212.937 462.682 213.257 462.932 213.647C463.172 214.017 463.302 214.487 463.162 214.907C463.032 215.327 462.562 215.647 462.142 215.507C461.722 215.377 461.562 214.717 461.922 214.467" stroke="black" stroke-width="0.25" stroke-miterlimit="10"/>
<path d="M532.222 494.848L531.892 494.908C521.832 496.798 511.492 497.178 501.322 496.048C500.982 496.008 500.552 495.858 500.452 495.578C500.432 495.518 500.422 495.458 500.432 495.388" stroke="black" stroke-width="0.25" stroke-miterlimit="10"/>
<path d="M446.852 497.537C437.752 498.577 428.492 498.207 419.502 496.457" stroke="black" stroke-width="0.25" stroke-miterlimit="10"/>
<path d="M505.731 503.889C505.301 503.669 504.871 503.439 504.441 503.219" stroke="black" stroke-width="0.25" stroke-miterlimit="10"/>
<path d="M504.441 504.97C504.221 504.82 504.011 504.67 503.791 504.52" stroke="black" stroke-width="0.25" stroke-miterlimit="10"/>
<path d="M422.75 504.997C422.46 504.717 422.06 504.557 421.66 504.547" stroke="black" stroke-width="0.25" stroke-miterlimit="10"/>
<path d="M484.321 348.069C482.751 347.889 481.131 348.249 479.791 349.089" stroke="black" stroke-width="0.25" stroke-miterlimit="10"/>
<path d="M483.672 353.286C482.402 352.976 481.072 352.866 479.762 352.956" stroke="black" stroke-width="0.25" stroke-miterlimit="10"/>
<path d="M436.101 351.038C434.821 350.768 433.511 350.638 432.201 350.668" stroke="black" stroke-width="0.25" stroke-miterlimit="10"/>
<path d="M436.431 356.537L433.191 354.887" stroke="black" stroke-width="0.25" stroke-miterlimit="10"/>
<path d="M491.171 352.309C490.571 351.999 489.881 351.879 489.211 351.989" stroke="black" stroke-width="0.25" stroke-miterlimit="10"/>
<path d="M450.771 354.27H448.811" stroke="black" stroke-width="0.25" stroke-miterlimit="10"/>
<path d="M488.121 253.707C485.271 250.767 482.421 247.827 479.561 244.887" stroke="black" stroke-width="0.25" stroke-miterlimit="10"/>
<path d="M445.132 245.02C443.472 246.85 441.542 248.43 439.422 249.71" stroke="black" stroke-width="0.25" stroke-miterlimit="10"/>
<path d="M394.181 169.609C394.181 169.609 389.231 162.759 389.061 162.599C388.891 162.439 388.541 161.279 386.761 162.109L384.971 162.939C384.971 162.939 383.941 157.709 382.271 155.199C380.601 152.689 378.121 148.109 370.061 146.889C370.061 146.889 368.511 146.399 369.411 148.109C370.311 149.819 372.401 150.589 373.091 153.179C373.091 153.179 373.321 152.909 371.041 153.179C368.761 153.449 360.051 151.069 360.191 152.129C360.331 153.199 362.531 164.219 369.211 165.529C375.891 166.839 376.361 167.419 376.981 167.699C377.601 167.979 380.451 169.699 380.491 170.999" fill="white"/>
<path d="M458.67 104.177C457.43 108.117 456.92 112.217 456.57 116.317C456.32 119.157 455.97 122.027 456.2 124.887C456.43 127.747 457.27 130.447 459.26 132.507C461.25 134.567 463.86 135.467 466.66 135.427C469.93 135.387 473.25 134.137 475.54 131.767C475.99 131.307 475.28 130.597 474.83 131.057C471.18 134.837 464.18 135.857 460.21 132.037C456.24 128.217 457.06 122.037 457.51 117.057C457.89 112.797 458.34 108.537 459.64 104.437C459.83 103.817 458.87 103.557 458.68 104.167L458.67 104.177Z" fill="black"/>
<path d="M471.52 117.637H471.53C471.53 117.637 471.46 117.597 471.43 117.567C471.46 117.587 471.49 117.617 471.51 117.647L471.43 117.547C471.43 117.547 471.48 117.617 471.49 117.657L471.44 117.537C471.44 117.537 471.47 117.627 471.48 117.667L471.46 117.537C471.46 117.537 471.46 117.627 471.46 117.677L471.48 117.547C471.48 117.607 471.45 117.667 471.43 117.717L471.48 117.597C471.45 117.667 471.41 117.727 471.37 117.787L471.45 117.687C471.45 117.687 471.4 117.747 471.37 117.767L471.47 117.687C471.47 117.687 471.44 117.707 471.42 117.717L471.54 117.667C471.54 117.667 471.52 117.667 471.5 117.677L471.63 117.657H471.61L471.74 117.677H471.72L471.84 117.727C471.84 117.727 471.83 117.727 471.82 117.717L471.92 117.797C471.92 117.797 471.91 117.787 471.9 117.777L471.98 117.877C471.98 117.877 472.01 117.947 472.03 117.987C472.03 117.977 472.03 117.967 472.03 117.957L472.05 118.087V118.067L472.03 118.197C472.03 118.197 472.03 118.157 472.05 118.137L472 118.257C472.03 118.187 472.08 118.117 472.12 118.047C472.16 117.967 472.21 117.897 472.25 117.817C472.31 117.707 472.34 117.557 472.3 117.427C472.27 117.307 472.18 117.187 472.07 117.127C471.95 117.067 471.81 117.037 471.68 117.077C471.55 117.117 471.45 117.187 471.38 117.307C471.34 117.377 471.3 117.457 471.25 117.527C471.21 117.597 471.17 117.667 471.13 117.737C471.1 117.797 471.07 117.867 471.06 117.927C471.05 118.007 471.04 118.067 471.06 118.147C471.08 118.227 471.07 118.237 471.1 118.307C471.15 118.427 471.23 118.517 471.34 118.577C471.45 118.647 471.59 118.667 471.72 118.647C471.81 118.637 471.89 118.607 471.97 118.567C472.03 118.527 472.09 118.487 472.14 118.437C472.21 118.357 472.28 118.267 472.33 118.167C472.43 117.977 472.5 117.747 472.48 117.537C472.46 117.377 472.43 117.247 472.35 117.107C472.27 116.967 472.16 116.867 472.04 116.777C471.94 116.707 471.77 116.697 471.65 116.727C471.53 116.757 471.41 116.847 471.35 116.957C471.29 117.077 471.26 117.217 471.3 117.347L471.35 117.467C471.39 117.547 471.45 117.597 471.53 117.647L471.52 117.637Z" fill="black"/>
<path d="M461.341 117.227H461.351C461.351 117.227 461.281 117.187 461.251 117.157C461.281 117.177 461.311 117.207 461.331 117.237L461.251 117.137C461.251 117.137 461.301 117.207 461.311 117.247L461.261 117.127C461.261 117.127 461.291 117.217 461.301 117.257L461.281 117.127C461.281 117.127 461.281 117.217 461.281 117.267L461.301 117.137C461.301 117.197 461.271 117.257 461.251 117.307L461.301 117.187C461.271 117.257 461.231 117.317 461.191 117.377L461.271 117.277C461.271 117.277 461.221 117.337 461.191 117.357L461.291 117.277C461.291 117.277 461.261 117.297 461.241 117.307L461.361 117.257C461.361 117.257 461.341 117.257 461.321 117.267L461.451 117.247H461.431L461.561 117.267H461.541L461.661 117.317C461.661 117.317 461.651 117.317 461.641 117.307L461.741 117.387C461.741 117.387 461.731 117.377 461.721 117.367L461.801 117.467C461.801 117.467 461.831 117.537 461.851 117.577C461.851 117.567 461.851 117.557 461.851 117.547L461.871 117.677V117.657L461.851 117.787C461.851 117.787 461.851 117.747 461.871 117.727L461.821 117.847C461.851 117.777 461.901 117.707 461.941 117.637C461.981 117.557 462.031 117.487 462.071 117.407C462.131 117.297 462.161 117.147 462.121 117.017C462.091 116.897 462.001 116.777 461.891 116.717C461.771 116.657 461.631 116.627 461.501 116.667C461.371 116.707 461.271 116.777 461.201 116.897C461.161 116.967 461.121 117.047 461.071 117.117C461.031 117.187 460.991 117.257 460.951 117.327C460.921 117.387 460.891 117.457 460.881 117.517C460.871 117.597 460.861 117.657 460.881 117.737C460.901 117.817 460.891 117.827 460.921 117.897C460.971 118.017 461.051 118.107 461.161 118.167C461.271 118.237 461.411 118.257 461.541 118.237C461.631 118.227 461.711 118.197 461.791 118.157C461.851 118.117 461.911 118.077 461.961 118.027C462.031 117.947 462.101 117.857 462.151 117.757C462.251 117.567 462.321 117.337 462.301 117.127C462.281 116.967 462.251 116.837 462.171 116.697C462.091 116.557 461.981 116.457 461.861 116.367C461.761 116.297 461.591 116.287 461.471 116.317C461.351 116.347 461.231 116.437 461.171 116.547C461.111 116.667 461.081 116.807 461.121 116.937L461.171 117.057C461.211 117.137 461.271 117.187 461.351 117.237L461.341 117.227Z" fill="black"/>
<path d="M481.391 121.089C483.561 120.419 485.431 118.779 486.161 116.599C486.571 115.369 486.511 113.939 485.571 112.969C484.741 112.109 483.401 111.929 482.301 112.299C481.021 112.729 480.121 113.819 479.711 115.079C479.511 115.689 480.481 115.959 480.671 115.349C481.021 114.269 481.861 113.329 483.021 113.149C484.291 112.949 485.371 113.769 485.401 115.079C485.431 116.269 484.781 117.459 483.991 118.319C483.201 119.179 482.211 119.789 481.111 120.129C480.501 120.319 480.761 121.289 481.381 121.089H481.391Z" fill="black"/>
<path d="M483.951 114.988C483.701 114.748 483.321 114.718 483.001 114.838C482.651 114.978 482.401 115.278 482.211 115.588C481.751 116.328 481.451 117.158 481.341 118.028C481.321 118.188 481.571 118.188 481.591 118.028C481.691 117.298 481.931 116.588 482.291 115.948C482.451 115.658 482.631 115.348 482.921 115.168C483.171 115.008 483.541 114.938 483.771 115.168C483.881 115.278 484.061 115.108 483.951 114.988Z" fill="black"/>
<path d="M482.962 116.36C482.872 116.11 482.602 116.02 482.352 116.06C482.092 116.1 481.892 116.32 481.752 116.53C481.662 116.67 481.882 116.79 481.972 116.66C482.072 116.51 482.202 116.36 482.382 116.31C482.392 116.31 482.402 116.31 482.412 116.31C482.392 116.31 482.412 116.31 482.422 116.31C482.442 116.31 482.462 116.31 482.492 116.31C482.522 116.31 482.552 116.31 482.602 116.33C482.602 116.33 482.632 116.34 482.612 116.33C482.612 116.33 482.632 116.33 482.642 116.34C482.652 116.35 482.662 116.35 482.672 116.36C482.672 116.36 482.682 116.37 482.692 116.38C482.692 116.38 482.712 116.41 482.702 116.39C482.702 116.39 482.722 116.44 482.722 116.42C482.742 116.48 482.802 116.53 482.872 116.51C482.932 116.49 482.982 116.42 482.962 116.36Z" fill="black"/>
<path d="M480.76 120.609C480.68 123.459 480.48 126.309 480.4 129.159C480.31 132.199 480.4 135.239 480.7 138.259C480.76 138.889 481.76 138.899 481.7 138.259C481.41 135.229 481.31 132.199 481.4 129.159C481.48 126.309 481.68 123.459 481.76 120.609C481.78 119.969 480.78 119.969 480.76 120.609Z" fill="black"/>
<path d="M462.121 134.32C462.261 137.96 462.581 141.63 462.431 145.27C462.401 145.91 463.401 145.91 463.431 145.27C463.581 141.63 463.261 137.96 463.121 134.32C463.101 133.68 462.101 133.68 462.121 134.32Z" fill="black"/>
<path d="M465.201 116.656C464.721 118.436 464.431 120.256 464.321 122.096C464.281 122.736 465.281 122.736 465.321 122.096C465.431 120.346 465.711 118.616 466.171 116.926C466.341 116.306 465.371 116.036 465.211 116.656H465.201Z" fill="black"/>
<path d="M473.771 113.62C473.091 113.14 472.221 112.91 471.391 112.95C471.131 112.96 470.881 113.17 470.891 113.45C470.901 113.71 471.111 113.96 471.391 113.95C471.571 113.95 471.751 113.95 471.931 113.96C471.951 113.96 471.981 113.96 472.001 113.96C471.931 113.95 471.921 113.95 471.971 113.96C472.021 113.96 472.061 113.98 472.111 113.99C472.201 114.01 472.291 114.03 472.371 114.05C472.451 114.07 472.541 114.1 472.621 114.13C472.651 114.14 472.801 114.18 472.671 114.15C472.711 114.16 472.751 114.18 472.781 114.2C472.941 114.28 473.101 114.37 473.251 114.48C473.461 114.63 473.821 114.53 473.931 114.3C474.071 114.04 473.981 113.78 473.751 113.62H473.771Z" fill="black"/>
<path d="M463.001 113.647C462.321 113.167 461.451 112.937 460.621 112.977C460.361 112.987 460.111 113.197 460.121 113.477C460.131 113.737 460.341 113.987 460.621 113.977C460.801 113.977 460.981 113.977 461.161 113.987C461.181 113.987 461.211 113.987 461.231 113.987C461.161 113.977 461.151 113.977 461.201 113.987C461.251 113.987 461.291 114.007 461.341 114.017C461.431 114.037 461.521 114.057 461.601 114.077C461.681 114.097 461.771 114.127 461.851 114.157C461.881 114.167 462.031 114.207 461.901 114.177C461.941 114.187 461.981 114.207 462.011 114.227C462.171 114.307 462.331 114.397 462.481 114.507C462.691 114.657 463.051 114.557 463.161 114.327C463.301 114.067 463.211 113.807 462.981 113.647H463.001Z" fill="black"/>
<path d="M475.121 131.338C475.121 131.338 469.061 140.788 462.961 143.878L462.711 139.188L462.631 134.308C462.631 134.308 463.961 134.578 465.461 134.888C468.961 135.628 473.901 132.658 475.131 131.328L475.121 131.338Z" fill="black"/>
<path d="M467.891 123.926C467.721 124.046 467.541 124.166 467.361 124.266C467.281 124.306 467.201 124.356 467.121 124.396C467.071 124.416 467.031 124.446 466.981 124.466C466.961 124.466 466.801 124.546 466.921 124.496C466.561 124.666 466.141 124.766 465.751 124.836C465.491 124.876 465.321 125.216 465.401 125.456C465.491 125.736 465.741 125.856 466.021 125.806C466.881 125.656 467.701 125.316 468.411 124.806C468.621 124.656 468.741 124.366 468.591 124.126C468.451 123.916 468.131 123.786 467.911 123.946L467.891 123.926Z" fill="black"/>
<path d="M372.641 147.829C375.121 149.099 377.841 150.409 379.761 152.479C381.431 154.289 382.751 156.699 383.311 159.099C383.461 159.729 384.421 159.459 384.271 158.829C383.681 156.309 382.291 153.819 380.571 151.899C378.601 149.689 375.741 148.299 373.141 146.969C372.571 146.679 372.061 147.539 372.641 147.829Z" fill="black"/>
<path d="M358.98 152.418C361.26 152.868 363.56 153.198 365.87 153.388C368.18 153.578 370.5 153.648 372.79 153.228C373.42 153.118 373.15 152.148 372.52 152.268C370.32 152.668 368.08 152.578 365.87 152.388C363.66 152.198 361.43 151.878 359.24 151.448C358.61 151.328 358.34 152.288 358.97 152.408L358.98 152.418Z" fill="black"/>
<path d="M362.46 157.027C363.59 157.357 364.77 157.537 365.94 157.577C366.2 157.577 366.45 157.337 366.44 157.077C366.43 156.797 366.22 156.587 365.94 156.577C364.84 156.547 363.78 156.377 362.72 156.067C362.47 155.997 362.16 156.157 362.1 156.417C362.04 156.677 362.18 156.957 362.45 157.037L362.46 157.027Z" fill="black"/>
<path d="M364.58 161.289C365.91 161.549 367.27 161.709 368.62 161.749C368.89 161.749 369.12 161.509 369.12 161.249C369.12 160.969 368.89 160.759 368.62 160.749C367.35 160.709 366.09 160.569 364.84 160.319C364.58 160.269 364.3 160.399 364.22 160.669C364.15 160.919 364.3 161.229 364.57 161.289H364.58Z" fill="black"/>
<path d="M366.72 165.309C368.9 165.969 371.11 166.569 373.28 167.269C374.87 167.779 376.56 168.529 378.25 168.539C378.89 168.539 378.89 167.549 378.25 167.539C376.62 167.529 374.95 166.749 373.41 166.259C371.28 165.579 369.12 164.989 366.98 164.349C366.36 164.159 366.1 165.129 366.71 165.309H366.72Z" fill="black"/>
<path d="M375.901 156.707C375.391 155.927 374.691 155.287 374.211 154.487C373.731 153.687 373.481 152.817 373.221 151.937C373.041 151.317 372.071 151.587 372.261 152.207C372.531 153.137 372.821 154.077 373.311 154.927C373.801 155.777 374.521 156.417 375.041 157.217C375.391 157.757 376.261 157.257 375.901 156.717V156.707Z" fill="black"/>
<path d="M437.421 183.77C437.441 183.92 433.441 201.75 433.621 201.47C433.801 201.19 438.781 194.79 438.011 190.73" fill="black"/>
<path d="M480.76 114.079C480.76 114.079 480.69 116.029 479.98 117.209L478.46 116.609L478.68 112.609C478.68 112.609 467.9 108.769 465.25 103.289C465.25 103.289 465.21 109.049 467 111.109C467 111.109 462.01 110.649 462.74 104.309C462.74 104.309 460.82 108.199 457.77 110.249L457.19 114.889C457.19 114.889 456.13 113.659 456.3 110.019C456.3 110.019 451.36 106.269 455.21 101.549C459.07 96.8285 480.1 90.5285 483.05 101.549C483.05 101.549 488.71 104.099 488.88 111.159C489.04 118.219 481.47 127.829 481.47 127.829L481.28 123.109C481.28 123.109 480.25 121.259 481.99 120.339C483.73 119.419 486.64 115.899 485.56 113.779C484.48 111.659 481.58 112.009 480.75 114.079H480.76Z" fill="black"/>
<path d="M462.701 139.198C462.701 139.198 454.881 139.078 454.621 140.538C454.361 141.998 458.661 146.568 458.661 146.568C458.661 146.568 431.381 140.218 426.981 154.708C422.581 169.208 412.161 191.038 412.161 191.038C412.161 191.038 407.601 185.658 401.251 178.818C394.901 171.978 390.011 162.038 387.891 161.878C385.771 161.718 376.651 167.618 376.981 172.648C376.981 172.648 387.891 196.088 398.161 207.658C408.431 219.228 422.431 226.118 438.411 192.248" stroke="black" stroke-miterlimit="10"/>
<path d="M415.01 193.66C414.08 192.4 413.07 191.21 411.96 190.11C411.5 189.66 410.8 190.36 411.25 190.82C412.3 191.86 413.27 192.98 414.15 194.17C414.31 194.39 414.58 194.5 414.83 194.35C415.04 194.22 415.17 193.88 415.01 193.67V193.66Z" fill="black"/>
<path d="M480.87 138.5L481.22 139.17L481.52 138.44C477.76 139.45 473.93 140.14 470.06 140.51C469.73 140.54 469.38 140.93 469.63 141.26C470.9 142.95 472.17 144.64 473.44 146.33L473.52 145.72C472.43 146.8 470.64 146.25 469.3 146.71C468.57 146.96 468.19 147.52 468.1 148.27C468 149.16 467.95 149.97 467.49 150.78C466.67 152.22 464.73 153.07 463.27 151.99C462.08 151.1 461.75 149.43 461.81 148.03C461.84 147.39 460.84 147.39 460.81 148.03C460.74 149.62 461.16 151.42 462.37 152.53C463.66 153.72 465.59 153.74 467.02 152.76C467.75 152.26 468.29 151.54 468.63 150.72C468.83 150.25 468.96 149.76 469.02 149.25C469.08 148.79 468.96 148.09 469.37 147.77C469.7 147.52 470.25 147.51 470.65 147.48C471.12 147.44 471.6 147.42 472.07 147.36C472.88 147.26 473.63 147.01 474.23 146.42C474.37 146.28 474.44 145.99 474.31 145.81C473.04 144.12 471.77 142.43 470.5 140.74L470.07 141.49C474.03 141.12 477.95 140.42 481.8 139.39C482.12 139.3 482.25 138.94 482.1 138.66L481.75 137.99C481.45 137.42 480.59 137.92 480.89 138.49L480.87 138.5Z" fill="black"/>
<path d="M481.061 136.688C481.061 136.688 486.721 137.078 486.931 137.618C487.141 138.158 485.411 144.667 485.411 144.667C485.411 144.667 502.661 146.107 509.191 149.877C514.251 152.807 524.731 188.328 526.291 210.908C527.271 225.118 525.921 263.188 523.741 267.598C523.741 267.598 513.101 269.767 507.021 266.507L503.971 220.438C503.891 219.288 503.731 218.157 503.461 217.037C501.801 209.937 495.341 182.887 493.561 182.537" stroke="black" stroke-miterlimit="10"/>
<path d="M498.452 198.53C497.062 205 495.982 211.62 495.542 218.22C495.472 219.28 495.382 220.36 495.422 221.43C495.452 222.27 495.622 223.08 495.722 223.9C495.782 224.37 495.851 224.84 495.341 225.04C494.681 225.3 493.852 225.24 493.142 225.29C489.642 225.51 486.142 225.77 482.642 226.01C474.742 226.55 466.781 227.16 458.861 227.04C457.511 227.02 456.151 226.97 454.801 226.84C452.421 226.6 450.042 226.48 447.662 226.23C445.282 225.98 442.792 225.67 440.672 224.58C439.412 223.93 438.952 222.93 438.912 221.54C438.872 220.24 438.941 218.92 438.961 217.62C439.161 206.72 439.521 195.73 438.081 184.89C437.911 183.63 437.722 182.38 437.502 181.14C437.392 180.51 436.422 180.78 436.542 181.41C438.522 192.5 438.231 203.89 438.021 215.1C437.991 216.45 437.972 217.8 437.952 219.15C437.932 220.37 437.801 221.66 438.061 222.87C438.591 225.3 441.322 226.09 443.442 226.58C445.902 227.15 448.451 227.33 450.961 227.52C452.791 227.66 454.622 227.87 456.452 227.97C459.992 228.16 463.551 228.05 467.091 227.91C471.381 227.74 475.671 227.49 479.961 227.2C483.761 226.95 487.561 226.67 491.361 226.41C492.131 226.36 492.902 226.31 493.662 226.26C494.422 226.21 495.272 226.24 495.952 225.86C497.232 225.16 496.621 223.49 496.491 222.36C496.231 220.18 496.542 217.87 496.752 215.7C496.982 213.35 497.282 211.01 497.642 208.67C498.122 205.53 498.672 202.4 499.312 199.29C499.341 199.12 499.382 198.96 499.412 198.8C499.552 198.17 498.582 197.9 498.452 198.53Z" fill="black"/>
<path d="M439.83 224.656L439.63 226.196C439.39 228.056 439.03 229.886 438.54 231.696C433.66 249.576 405.96 359.136 419.37 500.246C419.45 501.036 419.13 501.816 418.53 502.326L414.54 505.726C412.82 507.196 413.85 510.016 416.12 510.016H443.4C444.63 510.016 445.67 509.096 445.82 507.876C447.03 497.996 452.3 455.646 458.37 417.886C461.96 395.576 461.85 368.416 461.7 359.336C461.66 357.136 461.73 354.936 461.91 352.746L463.65 331.076" stroke="black" stroke-miterlimit="10"/>
<path d="M522.08 268.519C522.06 276.089 524.89 283.339 524.87 290.909C524.87 291.549 525.87 291.549 525.87 290.909C525.89 283.339 523.06 276.089 523.08 268.519C523.08 267.879 522.08 267.879 522.08 268.519Z" fill="black"/>
<path d="M520.131 287.129C520.671 288.769 520.861 290.479 520.691 292.199C520.661 292.469 520.941 292.699 521.191 292.699C521.481 292.699 521.661 292.469 521.691 292.199C521.861 290.399 521.661 288.579 521.091 286.859C520.891 286.249 519.921 286.509 520.131 287.129Z" fill="black"/>
<path d="M515.811 287.789C516.001 289.359 516.001 290.949 515.831 292.529C515.801 292.799 516.081 293.029 516.331 293.029C516.621 293.029 516.801 292.799 516.831 292.529C517.001 290.949 517.001 289.369 516.811 287.789C516.781 287.519 516.601 287.289 516.311 287.289C516.061 287.289 515.781 287.519 515.811 287.789Z" fill="black"/>
<path d="M510.991 293.319C511.231 290.489 510.971 287.619 510.191 284.889C509.561 282.689 508.411 279.699 505.621 279.849C504.981 279.889 504.981 280.889 505.621 280.849C508.201 280.699 509.001 284.119 509.471 286.049C510.041 288.429 510.201 290.879 510.001 293.319C509.951 293.959 510.951 293.959 511.001 293.319H510.991Z" fill="black"/>
<path d="M507.711 267.016C506.421 269.186 504.731 271.086 503.461 273.276C501.931 275.896 500.661 278.896 501.111 281.976C501.201 282.606 502.171 282.336 502.071 281.706C501.641 278.746 503.091 275.786 504.581 273.336C505.801 271.326 507.371 269.536 508.571 267.516C508.901 266.966 508.041 266.456 507.711 267.016Z" fill="black"/>
<path d="M523.98 279.707L530.7 278.677L533.3 271.767L543.94 270.637V305.387L493.34 311.687V282.367L508.08 281.447" stroke="black" stroke-miterlimit="10"/>
<path d="M493.34 225.719V227.029C493.34 229.289 493.59 231.529 494.1 233.729C495.94 241.739 500.54 257.099 502.26 276.919" stroke="black" stroke-miterlimit="10"/>
<path d="M508.101 309.847C508.101 309.847 510.201 329.927 510.621 344.277C510.811 350.847 511.601 357.387 513.001 363.817C516.401 379.507 522.691 411.187 527.221 449.607C531.841 488.727 532.531 502.747 532.541 507.597C532.541 508.937 531.451 510.027 530.101 510.027H499.881C497.621 510.027 496.581 507.227 498.291 505.747L501.031 503.387C501.771 502.747 502.051 501.737 501.761 500.807C497.761 488.137 470.221 399.487 465.251 345.137C465.251 345.137 458.571 284.537 456.621 283.887" stroke="black" stroke-miterlimit="10"/>
<path d="M494.8 184.699C494.8 184.699 491 199.049 497.23 208.049L498.37 201.479C498.37 201.479 499.5 198.349 498.05 195.349C496.6 192.349 494.8 184.709 494.8 184.709V184.699Z" fill="black"/>
<path d="M441.502 225.48C441.502 225.48 439.522 223.69 439.632 226.21C439.742 228.73 438.762 230.86 438.762 230.86C438.762 230.86 457.372 242.69 495.282 238.98L493.332 231.85V229C493.332 229 494.022 225.32 491.162 225.72C488.302 226.12 460.212 230.38 441.502 225.48Z" fill="black"/>
<path d="M493.341 286.828H486.611V319.888L508.871 317.868L508.101 311.688C508.101 311.688 508.771 309.498 505.621 310.158C502.461 310.818 493.341 311.688 493.341 311.688V286.828Z" fill="black"/>
<path d="M457.971 288.797C457.971 288.797 450.901 329.517 461.751 355.407L462.951 339.757C462.951 339.757 464.061 329.607 462.951 326.887C461.841 324.167 460.221 301.697 460.221 301.697L457.971 288.797Z" fill="black"/>
<path d="M463.391 164.937C463.791 165.147 464.141 165.437 464.381 165.817C464.621 166.197 464.771 166.697 464.541 167.107C464.371 167.407 463.931 167.677 463.611 167.437C463.401 167.277 463.301 166.867 463.541 166.687C463.671 166.597 463.541 166.377 463.411 166.467C463.151 166.657 463.091 166.987 463.201 167.287C463.331 167.617 463.631 167.807 463.991 167.767C464.381 167.717 464.711 167.417 464.841 167.047C464.981 166.617 464.861 166.147 464.641 165.767C464.381 165.317 463.981 164.957 463.521 164.717C463.381 164.647 463.251 164.857 463.391 164.937Z" fill="black"/>
<path d="M462.102 176.91C462.502 177.12 462.852 177.41 463.092 177.79C463.332 178.17 463.482 178.67 463.252 179.08C463.082 179.38 462.642 179.65 462.322 179.41C462.112 179.25 462.012 178.84 462.252 178.66C462.382 178.57 462.252 178.35 462.122 178.44C461.862 178.63 461.802 178.96 461.912 179.26C462.042 179.59 462.342 179.78 462.702 179.74C463.092 179.69 463.422 179.39 463.552 179.02C463.692 178.59 463.572 178.12 463.352 177.74C463.092 177.29 462.692 176.93 462.232 176.69C462.092 176.62 461.962 176.83 462.102 176.91Z" fill="black"/>
<path d="M461.711 188.879C462.111 189.089 462.461 189.379 462.701 189.759C462.941 190.139 463.091 190.639 462.861 191.049C462.691 191.349 462.251 191.619 461.931 191.379C461.721 191.219 461.621 190.809 461.861 190.629C461.991 190.539 461.861 190.319 461.731 190.409C461.471 190.599 461.411 190.929 461.521 191.229C461.651 191.559 461.951 191.749 462.311 191.709C462.701 191.659 463.031 191.359 463.161 190.989C463.301 190.559 463.181 190.089 462.961 189.709C462.701 189.259 462.301 188.899 461.841 188.659C461.701 188.589 461.571 188.799 461.711 188.879Z" fill="black"/>
<path d="M461.321 200.859C461.721 201.069 462.071 201.359 462.311 201.739C462.551 202.119 462.701 202.619 462.471 203.029C462.301 203.329 461.861 203.599 461.541 203.359C461.331 203.199 461.231 202.789 461.471 202.609C461.601 202.519 461.471 202.299 461.341 202.389C461.081 202.579 461.021 202.909 461.131 203.209C461.261 203.539 461.561 203.729 461.921 203.689C462.311 203.639 462.641 203.339 462.771 202.969C462.911 202.539 462.791 202.069 462.571 201.689C462.311 201.239 461.911 200.879 461.451 200.639C461.311 200.569 461.181 200.779 461.321 200.859Z" fill="black"/>
<path d="M461.84 212.828C462.24 213.038 462.59 213.328 462.83 213.708C463.07 214.088 463.22 214.588 462.99 214.998C462.82 215.298 462.38 215.568 462.06 215.328C461.85 215.168 461.75 214.758 461.99 214.578C462.12 214.488 461.99 214.268 461.86 214.358C461.6 214.548 461.54 214.878 461.65 215.178C461.78 215.508 462.08 215.698 462.44 215.658C462.83 215.608 463.16 215.308 463.29 214.938C463.43 214.508 463.31 214.038 463.09 213.658C462.83 213.208 462.43 212.848 461.97 212.608C461.83 212.538 461.7 212.748 461.84 212.828Z" fill="black"/>
<path d="M532.191 494.719C524.101 496.249 515.831 496.829 507.601 496.419C506.431 496.359 505.261 496.279 504.091 496.189C503.531 496.139 502.961 496.089 502.401 496.029C501.981 495.989 500.561 496.039 500.551 495.389C500.551 495.229 500.301 495.229 500.301 495.389C500.301 495.919 500.831 496.099 501.281 496.169C502.331 496.329 503.401 496.389 504.451 496.479C506.711 496.659 508.971 496.769 511.231 496.799C515.761 496.869 520.291 496.639 524.781 496.109C527.281 495.819 529.771 495.439 532.241 494.969C532.401 494.939 532.331 494.699 532.171 494.729L532.191 494.719Z" fill="black"/>
<path d="M446.851 497.407C437.751 498.437 428.531 498.077 419.541 496.327C419.381 496.297 419.321 496.537 419.471 496.567C428.481 498.317 437.731 498.687 446.851 497.657C447.011 497.637 447.011 497.387 446.851 497.407Z" fill="black"/>
<path d="M505.791 503.778C505.361 503.558 504.931 503.328 504.501 503.108C504.361 503.038 504.231 503.248 504.371 503.328C504.801 503.548 505.231 503.778 505.661 503.998C505.801 504.068 505.931 503.858 505.791 503.778Z" fill="black"/>
<path d="M504.5 504.857L503.85 504.417C503.8 504.377 503.71 504.407 503.68 504.457C503.65 504.517 503.67 504.587 503.72 504.627L504.37 505.067C504.42 505.107 504.51 505.077 504.54 505.027C504.57 504.967 504.55 504.897 504.5 504.857Z" fill="black"/>
<path d="M422.841 504.91C422.531 504.61 422.101 504.43 421.671 504.43C421.511 504.43 421.511 504.68 421.671 504.68C422.041 504.68 422.401 504.83 422.661 505.09C422.781 505.2 422.951 505.03 422.841 504.91Z" fill="black"/>
<path d="M421.231 506.637C421.391 506.637 421.391 506.387 421.231 506.387C421.071 506.387 421.071 506.637 421.231 506.637Z" fill="black"/>
<path d="M484.33 347.939C482.73 347.759 481.1 348.129 479.73 348.969C479.59 349.049 479.72 349.269 479.86 349.189C481.2 348.369 482.78 348.019 484.34 348.189C484.5 348.209 484.5 347.959 484.34 347.939H484.33Z" fill="black"/>
<path d="M483.71 353.157C482.42 352.847 481.09 352.737 479.77 352.827C479.61 352.837 479.61 353.087 479.77 353.077C481.07 352.987 482.38 353.097 483.65 353.397C483.81 353.437 483.87 353.197 483.72 353.157H483.71Z" fill="black"/>
<path d="M436.13 350.909C434.84 350.639 433.52 350.509 432.19 350.529C432.03 350.529 432.03 350.779 432.19 350.779C433.49 350.759 434.79 350.879 436.06 351.149C436.22 351.179 436.28 350.939 436.13 350.909Z" fill="black"/>
<path d="M436.5 356.43L433.26 354.78C433.12 354.71 432.99 354.92 433.13 355L436.37 356.65C436.51 356.72 436.64 356.51 436.5 356.43Z" fill="black"/>
<path d="M491.23 352.19C490.6 351.87 489.88 351.75 489.18 351.87C489.02 351.89 489.09 352.14 489.25 352.11C489.88 352.01 490.54 352.11 491.11 352.41C491.25 352.48 491.38 352.27 491.24 352.19H491.23Z" fill="black"/>
<path d="M450.771 354.137H448.821C448.661 354.137 448.661 354.387 448.821 354.387H450.771C450.931 354.387 450.931 354.137 450.771 354.137Z" fill="black"/>
<path d="M488.21 253.607C485.36 250.667 482.5 247.737 479.65 244.797C479.54 244.677 479.36 244.857 479.47 244.977C482.32 247.917 485.18 250.847 488.03 253.787C488.14 253.907 488.32 253.727 488.21 253.607Z" fill="black"/>
<path d="M445.041 244.926C443.381 246.746 441.471 248.316 439.361 249.596C439.221 249.676 439.351 249.896 439.491 249.816C441.611 248.526 443.551 246.946 445.221 245.106C445.331 244.986 445.151 244.806 445.041 244.926Z" fill="black"/>
<path d="M373.241 153.748C366.901 146.308 360.641 138.808 354.441 131.258C348.241 123.708 342.171 116.148 336.141 108.508C334.461 106.378 332.751 104.278 331.131 102.108C329.711 100.208 328.351 98.038 328.671 95.558C328.731 95.108 328.101 94.928 327.821 95.208C327.211 95.808 326.611 96.398 326.001 96.998C325.771 97.218 325.821 97.628 326.101 97.788C326.861 98.228 327.631 98.668 328.391 99.098C328.951 99.418 329.451 98.558 328.891 98.238C328.131 97.798 327.361 97.358 326.601 96.928L326.701 97.718C327.311 97.118 327.911 96.528 328.521 95.928L327.671 95.578C327.401 97.648 328.241 99.618 329.351 101.318C330.601 103.248 332.131 105.018 333.551 106.828C336.621 110.738 339.711 114.628 342.821 118.498C349.031 126.248 355.321 133.938 361.681 141.578C365.281 145.898 368.901 150.188 372.541 154.468C372.961 154.958 373.661 154.248 373.251 153.758L373.241 153.748Z" fill="black"/>
</g>
<defs>
<clipPath id="clip0_248_813">
<rect width="589.58" height="481.54" fill="white" transform="translate(35 29)"/>
</clipPath>
</defs>
</svg>
